<?xml version="1.0" encoding="utf-8"?>
<!DOCTYPE svg PUBLIC "-//W3C//DTD SVG 1.0//EN" "http://www.w3.org/TR/2001/REC-SVG-20010904/DTD/svg10.dtd">
<svg version="1.0" xmlns="http://www.w3.org/2000/svg" width="2048px" height="2048px" viewBox="0 0 2048 2048" preserveAspectRatio="xMidYMid meet">
 <g fill="#fffefe">
  <path d="M0 1024 l0 -1024 1024 0 1024 0 0 1024 0 1024 -1024 0 -1024 0 0 -1024z m1434 514 l0 -8 15.80 0 16 0 0.60 -7.40 c0.60 -7.20 1 -7.60 8.20 -8.20 7.20 -0.60 7.40 -0.80 7.40 -8.60 0 -7.80 0 -7.80 8 -7.80 7.20 0 8 -0.60 8 -4.80 0 -8.80 2 -11.20 9.20 -11.20 l6.80 0 0 -12 0 -12 6.80 0 c3.60 0 9.60 -0.60 13 -1.20 l6.20 -1.20 0 -429.80 0 -429.80 -13 0 -13 0 0 -14.80 0 -15 -7.40 -0.60 c-7.20 -0.60 -7.60 -1 -8.20 -8 -0.60 -7.40 -0.80 -7.60 -8.60 -7.60 -7.80 0 -7.80 0 -7.80 -7.80 0 -7.80 -0.20 -8 -7.40 -8.60 -7.20 -0.60 -7.60 -1 -8.20 -8 l-0.60 -7.40 -15.40 -0.60 -15.40 -0.60 -0.60 -9.60 -0.60 -9.40 -409.40 0.40 -409.40 0.60 -0.60 9.40 -0.60 9.60 -16 0 -15.80 0 0 7.80 c0 7.80 -0.20 8 -7.40 8.60 -7.20 0.60 -7.60 1 -8.20 8.20 -0.60 7.20 -0.80 7.40 -8.60 7.40 -7.80 0 -7.80 0 -7.80 8 l0 8 -8 0 -8 0 0 15 0 15 -14 0 -14.20 0 0.20 411.60 c0.20 226.20 0.80 420.20 1.40 430.80 l1.20 19.60 12.20 -0.60 12.20 -0.40 0.60 12.60 0.60 12.40 7.80 0 c8 0 8 0 8 7.80 0 7.80 0.20 8 7.60 8.60 7 0.60 7.40 1 8 8.20 0.60 7.20 0.80 7.40 8.60 7.40 7.80 0 7.80 0 7.80 8 l0 8 16 0 16 0 0 8 0 8 410 0 410 0 0 -8z"/>
 </g>
 <g fill="#07091a">
  <path d="M608 1544 l0 -8 -16 0 -16 0 0 -8 c0 -8 0 -8 -7.80 -8 -7.80 0 -8 -0.20 -8.60 -7.40 -0.60 -7.20 -1 -7.60 -8 -8.20 -7.40 -0.60 -7.60 -0.80 -7.60 -8.60 0 -7.80 0 -7.80 -8 -7.80 l-7.80 0 -0.60 -12.20 -0.60 -12.40 -13 -0.20 -13 -0.20 -0.60 -436.40 -0.40 -436.60 14 0 14 0 0 -15 0 -15 8 0 8 0 0 -8 c0 -8 0 -8 7.80 -8 7.80 0 8 -0.20 8.60 -7.40 0.60 -7.20 1 -7.60 8.20 -8.20 7.20 -0.60 7.40 -0.80 7.40 -8.60 l0 -7.80 15.80 0 16 0 0.60 -9.60 0.60 -9.40 415.40 -0.60 415.40 -0.40 0.60 9.40 0.60 9.60 15.40 0.60 15.40 0.60 0.60 7.40 c0.60 7 1 7.40 8.20 8 7.20 0.60 7.40 0.80 7.40 8.60 0 7.80 0 7.80 7.80 7.80 7.80 0 8 0.20 8.60 7.60 0.60 7 1 7.40 8.20 8 l7.40 0.60 0 15 0 14.80 13 0 13 0 0 435.80 0 435.80 -6.20 1.20 c-3.40 0.60 -9.40 1.20 -13 1.20 l-6.80 0 0 12 0 12 -6.80 0 c-7.20 0 -9.20 2.40 -9.20 11.20 0 4.20 -0.80 4.80 -8 4.80 -8 0 -8 0 -8 7.80 0 7.80 -0.20 8 -7.40 8.60 -7.20 0.60 -7.60 1 -8.20 8.20 l-0.60 7.40 -16 0 -15.80 0 0 8 0 8 -416 0 -416 0 0 -8z m826 -38 l0 -7.80 23.60 -0.60 23.40 -0.60 0.60 -15.40 0.60 -15.60 7.80 0 8 0 0 -17 0 -17 7.20 0 7.20 0 -0.80 -417 -0.60 -417 -6.40 0 c-6.40 0 -6.60 -0.40 -6.60 -8 l0 -8 -8 0 -8 0 0 -8 0 -8 -8 0 -8 0 0 -8 0 -8 -16 0 -16 0 0 -12 0 -12 -409 0 -409 0 0 12 0 12 -17 0 -17 0 0 8 0 8 -8 0 -8 0 0 8 0 8 -8 0 c-8 0 -8 0 -8 7.80 0 7.40 -0.40 8 -6.40 8.60 l-6.60 0.60 -0.40 412 c-0.20 226.60 0 414 0.60 416.60 0.60 3.40 2.20 4.40 6.80 4.40 l6 0 0 17 0 17 8 0 8 0 0 8 0 8 8 0 8 0 0 8 0 8 16 0 16 0 0 8 0 8 410 0 410 0 0 -8z"/>
  <path d="M650 1486 l0 -8 -24 0 -24 0 0 -16 0 -16 -16 0 -16 0 0 -24 0 -24 -8 0 -8 0 0 -374 0 -374 8 0 8 0 0 -32 0 -32 16 0 16 0 0 -8 0 -8 24 0 24 0 0 -8 0 -8 374 0 374 0 0 8 0 8 24 0 24 0 0 8 0 8 16 0 16 0 0 32 0 32 8 0 8 0 0 373.80 0 374 -7.40 0.60 -7.60 0.60 -0.60 23.60 -0.60 23.40 -15.80 0 -16 0 0 16 0 16 -24 0 -24 0 0 8 0 8 -374 0 -374 0 0 -8z m528 -62 l0 -42 -8 0 -8 0 0 -40 0 -40 -8 0 -8 0 0.60 -109.40 0.80 -109.60 13.20 -0.60 13.40 -0.60 0 56.20 0 56 8 0 8 0 0 24 0 24 8 0 8 0 0 56 0 56 8 0 8 0 0 8 0 8 25.80 0 26 0 0.60 -7.40 c0.60 -7.20 1 -7.60 8.20 -8.20 l7.40 -0.60 0 -82 0 -81.80 -8 0 -8 0 0 -40 0 -40 -8 0 -8 0 0 -32 0 -32 -8 0 -8 0 0 -24 0 -24 -8 0 -8 0 0 -8 0 -8 -16 0 -16 0 0 -8 0 -8 -8 0 -8 0 0 -16 0 -16 -50 0 -50 0 0 8 0 8 -54 0 -54 0 0 -8 0 -8 -50 0 -50 0 0 15.80 0 16 -7.40 0.60 c-7.20 0.60 -7.60 1 -8.20 8.20 l-0.60 7.40 -16 0 -15.80 0 0 19.80 0 20 -7.40 0.60 -7.60 0.60 -0.60 11.40 -0.60 11.40 -7.40 0.60 -7.40 0.60 -0.60 31.60 -0.60 31.40 -7.80 0 -8 0 0 39.80 0 40 -7.40 0.60 -7.60 0.60 -0.60 81.60 -0.40 81.40 8 0 8 0 0 8 0 8 26 0 26 0 0 -8 0 -8 8 0 8 0 0 -56 0 -56 8 0 7.80 0 0.60 -23.40 0.60 -23.60 7.60 -0.60 7.40 -0.60 0 -55 0 -54.80 14 0 14 0 0 108.80 0 109 -7.40 0.60 -7.60 0.60 -0.60 39.60 -0.40 39.40 -8 0 -8 0 0 42 0 42 154 0 154 0 0 -42z m-111.60 -525.40 l0.60 -7.60 15.40 -0.60 15.40 -0.60 0.60 -7.40 c0.60 -7 1 -7.40 8.20 -8 7.20 -0.60 7.40 -0.80 7.40 -8.60 0 -7.80 0 -7.80 8 -7.80 l8 0 0 -16 0 -16 8 0 8 0 0 -66 0 -66 -16 0 -16 0 0 -16 0 -16 -16 0 -16 0 0 -8 0 -8 -58 0 -58 0 0 8 0 7.80 -15.40 0.60 -15.60 0.60 -0.60 15.60 -0.60 15.40 -15.80 0 -16 0 0 66 0 66 8 0 8 0 0 16 0 16 8 0 8 0 0 8 0 8 8 0 8 0 0 8 0 8 16 0 16 0 0 8 0 8 41.80 0 42 0 0.60 -7.40z"/>
 </g>
 <g fill="#808184">
  <path d="M864 1424 l0 -48 8 0 8 0 0.40 -39.40 0.60 -39.60 7.60 -0.60 7.40 -0.60 0 -103 0 -102.80 -8 0 -8 0 0 54.80 0 55 -7.40 0.60 -7.60 0.60 -0.60 23.60 -0.60 23.40 -7.80 0 -8 0 0 56 0 56 -8 0 -8 0 0 8 0 8 -32 0 -32 0 0 -8 0 -8 -8 0 -8 0 0.40 -87.40 0.60 -87.60 7.60 -0.60 7.40 -0.60 0 -40 0 -39.80 8 0 7.80 0 0.60 -31.40 0.60 -31.60 7.40 -0.60 7.40 -0.60 0.60 -11.40 0.60 -11.40 7.60 -0.60 7.40 -0.60 0 -20 0 -19.80 15.80 0 16 0 0.60 -7.40 c0.60 -7.20 1 -7.60 8.20 -8.20 l7.40 -0.60 0 -16 0 -15.80 56 0 56 0 0 8 0 8 48 0 48 0 0 -8 0 -8 56 0 56 0 0 16 0 16 8 0 8 0 0 8 0 8 16 0 16 0 0 8 0 8 8 0 8 0 0 24 0 24 8 0 8 0 0 32 0 32 8 0 8 0 0 40 0 40 8 0 8 0 0 87.80 0 88 -7.40 0.60 c-7.20 0.60 -7.60 1 -8.20 8.20 l-0.60 7.40 -32 0 -31.80 0 0 -8 0 -8 -8 0 -8 0 0 -56 0 -56 -8 0 -8 0 0 -24 0 -24 -8 0 -8 0 0 -56.20 0 -56 -7.20 0.60 -7.20 0.60 -0.80 103.60 -0.80 103.40 8 0 8 0 0 40 0 40 8 0 8 0 0 48 0 48 -160 0 -160 0 0 -48z"/>
  <path d="M976 904 l0 -8 -16 0 -16 0 0 -8 0 -8 -8 0 -8 0 0 -8 0 -8 -8 0 -8 0 0 -16 0 -16 -8 0 -8 0 0 -72 0 -72 16 0 15.80 0 0.60 -15.40 0.60 -15.60 15.60 -0.60 15.40 -0.60 0 -7.80 0 -8 64 0 64 0 0 8 0 8 16 0 16 0 0 16 0 16 16 0 16 0 0 72 0 72 -8 0 -8 0 0 16 0 16 -8 0 c-8 0 -8 0 -8 7.80 0 7.80 -0.20 8 -7.40 8.60 -7.20 0.60 -7.60 1 -8.20 8 l-0.60 7.40 -15.40 0.60 -15.40 0.60 -0.60 7.60 -0.60 7.40 -48 0 -47.80 0 0 -8z"/>
  <path d="M500.40 606.60 l-0.40 -16.60 9.60 0.40 9.40 0.20 -8.40 0.80 -8.40 0.80 -0.80 15.40 -0.60 15.40 -0.40 -16.40z"/>
 </g>
 <g fill="#7d808c">
  <path d="M608 1512 l0 -8 -16 0 -16 0 0 -8 0 -8 -8 0 -8 0 0 -8 0 -8 -8 0 -8 0 0 -17 0 -17 -6.80 0 -7 0 0.40 -422.40 0.40 -422.60 6.60 -0.60 c6 -0.60 6.40 -1.20 6.40 -8.60 0 -7.80 0 -7.80 8 -7.80 l8 0 0 -8 0 -8 8 0 8 0 0 -8 0 -8 17 0 17 0 0 -12 0 -12 415 0 415 0 0 12 0 12 16 0 16 0 0 8 0 8 8 0 8 0 0 8 0 8 8 0 8 0 0 8 c0 7.60 0.20 8 6.60 8 l6.40 0 0.60 423 0.80 423 -7.20 0 -7.20 0 0 17 0 17 -8 0 -8 0 0 11 c0 10.40 -0.20 11 -5 11 -4 0 -5 1 -5 5 0 5 0 5 -19 5 l-19 0 0 8 0 8 -416 0 -416 0 0 -8z m784 -32 l0 -8 24 0 24 0 0 -11 c0 -10.40 0.20 -11 5 -11 4 0 5 -1 5 -5 0 -5.40 1.40 -5.80 14.40 -5.20 l7.40 0.60 0.60 -23.80 0.60 -23.60 7.60 -0.60 7.40 -0.60 0 -368 0 -367.80 -8 0 -8 0 0 -32 0 -32 -16 0 -16 0 0 -8 0 -8 -24 0 -24 0 0 -8 0 -8 -368 0 -368 0 0 8 0 8 -24 0 -24 0 0 8 0 8 -16 0 -16 0 0 32 0 32 -8 0 -8 0 0 368 0 368 8 0 8 0 0 24 0 24 11 0 c10.40 0 11 0.20 11 5 0 4 1 5 5 5 4.80 0 5 0.60 5 11 l0 11 24 0 24 0 0 8 0 8 368 0 368 0 0 -8z"/>
  <path d="M1168.80 1149 c0 -9.80 0.20 -14.20 0.60 -9.60 0.40 4.60 0.40 12.80 0 18 -0.40 5.20 -0.60 1.60 -0.60 -8.40z"/>
  <path d="M928 871.60 c0 -9.80 1 -9.40 2.60 1 0.60 4 0.40 7.40 -0.80 7.40 -1 0 -1.80 -3.80 -1.80 -8.40z"/>
 </g>
 <g fill="#15182b">
  <path d="M1472 1496.20 l0 -8.20 8.20 0 8 0 -0.60 7.60 c-0.60 7 -1 7.40 -8 8 l-7.60 0.60 0 -8z"/>
  <path d="M1440 1453.80 c0 -1.80 -1.40 -3.80 -3 -4.60 -1.60 -0.60 -3 0 -3 1.40 0 1.60 -0.80 1.20 -2 -0.60 -3 -4.60 -2.40 -6 2.80 -6 2.60 0 5.20 -0.80 5.60 -1.80 0.40 -0.80 4.80 -2 10.20 -2.60 8 -1 9.20 -0.60 7.20 1.60 -1.20 1.60 -1.80 5.40 -1.20 8.60 1.20 5.60 1 5.80 -7.60 6.60 -7.40 0.40 -9 0 -9 -2.60z"/>
  <path d="M592 1448 l0 -8 8 0 8 0 0 8 0 8 -8 0 -8 0 0 -8z"/>
  <path d="M1152.80 1156 c0 -23.60 0.40 -33.40 0.60 -21.60 0.40 12 0.40 31.20 0 43 -0.20 12 -0.60 2.20 -0.60 -21.40z"/>
 </g>
</svg>