<svg width="290" height="110" viewBox="0 0 290 110" xmlns="http://www.w3.org/2000/svg">
  <style>.px { shape-rendering: crispEdges; }</style>
  <rect x="0" y="0" width="290" height="110" rx="10" fill="#1a0f2e" stroke="#a855f7" stroke-width="1.5"/>
  <rect x="10" y="10" width="270" height="90" rx="6" fill="#0d0618"/>
  <!-- spotlight rays -->
  <rect class="px" x="56" y="13" width="4" height="10" fill="#a855f7" opacity="0.3"/>
  <rect class="px" x="50" y="15" width="4" height="8" fill="#a855f7" opacity="0.25"/>
  <rect class="px" x="62" y="15" width="4" height="8" fill="#a855f7" opacity="0.25"/>
  <rect class="px" x="44" y="19" width="4" height="6" fill="#c084fc" opacity="0.2"/>
  <rect class="px" x="68" y="19" width="4" height="6" fill="#c084fc" opacity="0.2"/>
  <!-- hero with purple theme -->
  <!-- crown hair -->
  <rect class="px" x="54" y="22" width="12" height="4" fill="#c084fc"/>
  <!-- head -->
  <rect class="px" x="52" y="26" width="16" height="12" fill="#d8b4fe"/>
  <!-- body -->
  <rect class="px" x="50" y="38" width="20" height="14" fill="#7c3aed"/>
  <!-- cape -->
  <rect class="px" x="66" y="38" width="10" height="20" fill="#5b21b6"/>
  <rect class="px" x="68" y="56" width="6" height="4" fill="#4c1d95"/>
  <!-- arms -->
  <rect class="px" x="40" y="38" width="10" height="4" fill="#7c3aed"/>
  <rect class="px" x="36" y="34" width="6" height="4" fill="#c084fc"/>
  <rect class="px" x="70" y="38" width="4" height="4" fill="#7c3aed"/>
  <!-- legs -->
  <rect class="px" x="50" y="52" width="8" height="10" fill="#4c1d95"/>
  <rect class="px" x="62" y="52" width="6" height="10" fill="#4c1d95"/>
  <!-- sparkle -->
  <rect class="px" x="86" y="42" width="4" height="4" fill="#c084fc" opacity="0.7"/>
  <rect class="px" x="82" y="46" width="12" height="4" fill="#c084fc" opacity="0.7"/>
  <rect class="px" x="86" y="50" width="4" height="4" fill="#c084fc" opacity="0.7"/>
  <text font-family="monospace" font-size="10" font-weight="bold" fill="#a855f7" x="110" y="30">TIER 4</text>
  <text font-family="monospace" font-size="15" font-weight="bold" fill="#d8b4fe" x="110" y="50">Main Character</text>
  <text font-family="monospace" font-size="9" fill="#7c3aed" x="110" y="68">&#x1F31F;  451+ wins</text>
</svg>