<svg width="290" height="110" viewBox="0 0 290 110" xmlns="http://www.w3.org/2000/svg">
  <style>.px { shape-rendering: crispEdges; }</style>
  <rect x="0" y="0" width="290" height="110" rx="10" fill="#001a1f" stroke="#b9f2ff" stroke-width="1.5"/>
  <rect x="10" y="10" width="270" height="90" rx="6" fill="#000d10"/>
  <!-- aura rings -->
  <rect class="px" x="36" y="22" width="52" height="4" fill="#b9f2ff" opacity="0.15"/>
  <rect class="px" x="40" y="26" width="44" height="4" fill="#b9f2ff" opacity="0.2"/>
  <rect class="px" x="36" y="52" width="52" height="4" fill="#b9f2ff" opacity="0.15"/>
  <rect class="px" x="40" y="56" width="44" height="4" fill="#b9f2ff" opacity="0.1"/>
  <!-- glow outer -->
  <rect class="px" x="53" y="27" width="16" height="16" fill="#b9f2ff" opacity="0.2"/>
  <!-- head -->
  <rect class="px" x="55" y="29" width="12" height="12" fill="#b9f2ff"/>
  <!-- hair spike -->
  <rect class="px" x="55" y="25" width="4" height="6" fill="#7de8ff"/>
  <rect class="px" x="61" y="23" width="4" height="8" fill="#7de8ff"/>
  <!-- body -->
  <rect class="px" x="53" y="41" width="16" height="14" fill="#4dd0e8"/>
  <!-- glowing hands -->
  <rect class="px" x="41" y="41" width="12" height="6" fill="#7de8ff"/>
  <rect class="px" x="37" y="37" width="6" height="4" fill="#b9f2ff"/>
  <rect class="px" x="65" y="41" width="12" height="6" fill="#7de8ff"/>
  <rect class="px" x="73" y="37" width="6" height="4" fill="#b9f2ff"/>
  <!-- legs -->
  <rect class="px" x="53" y="55" width="6" height="10" fill="#0090aa"/>
  <rect class="px" x="63" y="55" width="6" height="10" fill="#0090aa"/>
  <!-- sparkles -->
  <rect class="px" x="30" y="34" width="4" height="4" fill="#b9f2ff" opacity="0.8"/>
  <rect class="px" x="86" y="38" width="4" height="4" fill="#b9f2ff" opacity="0.8"/>
  <rect class="px" x="34" y="48" width="4" height="4" fill="#7de8ff" opacity="0.6"/>
  <text font-family="monospace" font-size="10" font-weight="bold" fill="#b9f2ff" x="108" y="36">TIER 5</text>
  <text font-family="monospace" font-size="15" font-weight="bold" fill="#d6f8ff" x="108" y="56">Protagonist</text>
  <text font-family="monospace" font-size="9" fill="#4dd0e8" x="108" y="74">&#x1F4AB;  1001+ wins</text>
</svg>