<svg width="290" height="110" viewBox="0 0 290 110" xmlns="http://www.w3.org/2000/svg">
  <style>.px { shape-rendering: crispEdges; }</style>
  <rect x="0" y="0" width="290" height="110" rx="10" fill="#1a1a18" stroke="#8b8b8b" stroke-width="1"/>
  <rect x="10" y="10" width="270" height="90" rx="6" fill="#111110"/>
  <!-- npc 1 -->
  <rect class="px" x="50" y="26" width="10" height="10" fill="#8b8b8b"/>
  <rect class="px" x="48" y="36" width="14" height="12" fill="#5f5f5f"/>
  <rect class="px" x="48" y="48" width="5" height="8" fill="#444"/>
  <rect class="px" x="57" y="48" width="5" height="8" fill="#444"/>
  <!-- npc 2 -->
  <rect class="px" x="74" y="32" width="8" height="8" fill="#6e6e6e"/>
  <rect class="px" x="72" y="40" width="12" height="10" fill="#4a4a4a"/>
  <rect class="px" x="72" y="50" width="4" height="6" fill="#333"/>
  <rect class="px" x="80" y="50" width="4" height="6" fill="#333"/>
  <!-- ... speech bubble -->
  <rect class="px" x="60" y="20" width="4" height="4" fill="#8b8b8b"/>
  <rect class="px" x="66" y="20" width="4" height="4" fill="#8b8b8b"/>
  <rect class="px" x="72" y="20" width="4" height="4" fill="#8b8b8b"/>
  <text font-family="monospace" font-size="10" font-weight="bold" fill="#8b8b8b" x="100" y="34">TIER 1</text>
  <text font-family="monospace" font-size="15" font-weight="bold" fill="#c0c0c0" x="100" y="54">Background NPC</text>
  <text font-family="monospace" font-size="9" fill="#555" x="100" y="72">&#x1F464;  0+ wins</text>
</svg>