<?xml version="1.0" encoding="utf-8" ?><svg xmlns="http://www.w3.org/2000/svg" xmlns:xlink="http://www.w3.org/1999/xlink" width="1024" height="1024" viewBox="0 0 1024 1024"><path fill="#BFF9F5" d="M799.927 0L848.027 0L848 15.9463C843.129 16.0427 837.259 16.0034 832.473 16.3418L832.494 47.0696C832.496 51.8244 832.709 58.819 832.416 63.422C834.08 63.4626 836.116 63.2365 837.35 63.98C837.552 70.5084 837.91 88.6457 837.306 94.7135C835.685 95.8763 834.361 95.7117 832.148 95.8208C832.431 101.108 832.219 106.675 832.118 111.989C837.059 111.933 843.123 111.698 847.975 111.82L848.006 127.868C852.976 127.806 859.03 127.832 863.995 128.014C864.088 133.18 864.119 138.482 864.335 143.634C869.441 143.703 874.546 143.822 879.65 143.991C880.149 149.091 879.993 154.776 879.982 159.942C883.984 159.778 891.932 158.964 894.87 161.11C896.869 164.054 896.054 171.992 895.971 175.95L911.872 175.833C912.172 186.422 912.013 197.314 911.979 207.929C917.318 207.854 922.657 207.849 927.995 207.913C928.07 218.447 928.306 229.465 928.05 239.962C933.357 239.874 938.666 239.88 943.973 239.979C944.64 249.348 944.318 262.383 944.253 272.002C949.187 271.481 954.852 271.924 959.913 271.841C961.019 284.291 960.029 307.079 960.174 320.005C964.555 319.543 971.617 319.867 976.208 319.943C976.277 329.43 976.52 342.714 975.982 352.031C970.832 352.071 965.214 352.227 960.107 352.108C960.237 368.066 960.283 384.023 960.246 399.981C965.476 399.863 970.707 399.851 975.938 399.944C976.058 410.642 976.094 421.34 976.047 432.038C976.053 442.498 976.217 453.526 976.017 463.943C970.681 464.045 965.344 464.091 960.006 464.079C955.002 463.905 950.805 464.012 945.834 464.184L944.005 464.458C944.021 480.162 944.242 496.349 944.006 512.012L928.003 512.05L928.009 543.954L911.975 544.066L911.974 591.984C912.62 614.041 911.892 634.189 912.01 656.067L912.005 671.961L927.97 672.014L928.077 704.027L912.034 704.004C912.132 719.584 912.443 736.521 912.036 752.024C917.364 751.962 922.692 751.952 928.02 751.994C928.072 762.658 928.064 773.323 927.996 783.988C917.603 784.01 906.636 784.204 896.289 783.892C895.745 787.476 895.997 796.119 896.018 800.059L880.131 800.016L864.003 800.037L864.018 816.042L848.065 816.046C837.371 816.114 826.677 816.099 815.983 816L815.981 832.129C805.321 832.036 794.66 832.019 784 832.079L783.996 815.995L767.855 816.026C768.127 811.31 767.95 804.798 767.953 799.942L783.87 799.937C783.943 794.84 784.169 789.013 783.836 783.985L752.008 784.009C751.999 788.016 752.142 793.314 751.903 797.217L751.894 799.282C750.395 800.597 724.015 800 720.016 799.987L719.996 816.004L703.994 815.96C703.961 821.13 703.799 826.896 704.077 832.012C704.154 837.352 704.13 842.694 704.004 848.034L704.017 864.15C699.287 863.869 692.5 864.088 687.605 864.079L655.961 864.011L639.991 864.005C640.009 867.896 640.245 876.625 639.687 880.165L639.972 880.572L639.988 896L639.999 912.071L640.028 928.003L608.069 928.072L608.024 943.978C597.383 944.044 586.74 944.044 576.099 943.978C576.075 949.254 576.135 954.776 575.971 960.03L559.983 960.037L544.03 960.002C544.122 965.331 544.142 970.661 544.09 975.991L480.008 975.994L480.003 960.02C474.879 959.91 469.31 960.019 464.151 960.021C463.853 955.162 464.015 948.961 464.009 944.002L448.002 943.998C442.098 943.996 420.692 944.667 416.697 943.509C415.288 941.488 415.932 931.018 415.992 928.025C405.342 927.991 394.692 928.02 384.042 928.111C383.797 922.666 383.944 917.453 384.043 912.011C378.606 911.972 373.169 912.03 367.734 912.185C367.73 907.595 367.481 900.385 367.953 896.028C357.089 896.007 347.02 896.226 336.097 895.88C335.946 890.692 336.029 885.247 336.029 880.037C330.822 879.932 325.303 880.013 320.071 880.005C319.963 874.775 320.026 869.269 320.014 864.017L304.005 864.006L304.01 847.979L320.015 847.99L319.995 832.004L319.973 799.994L319.992 784.519C314.745 784.769 309.493 784.868 304.241 784.816C303.694 788.573 303.926 795.607 303.941 799.646C299.6 800.22 292.565 799.994 287.95 799.988L288.033 816.052C282.92 815.91 277.128 816.032 271.96 816.03C271.968 820.813 271.804 827.386 272.046 832.031C272.029 837.207 271.899 842.852 272.079 847.989L256.009 847.99C245.34 848.073 234.671 848.069 224.001 847.978L224.024 832C218.674 832.052 213.323 832.042 207.972 831.969C207.943 826.642 207.973 821.315 208.063 815.989L192.029 816.046C181.353 816.146 170.677 816.063 160.005 815.797L159.951 800.002C149.563 800.021 138.311 800.245 127.996 799.808C127.917 794.907 127.657 788.833 127.907 784.022L111.97 784.079L112.018 767.994L96.0243 768.069L95.9971 752.002L112.019 752.002C111.87 735.997 111.87 719.992 112.019 703.987L95.9565 703.973L96.0346 639.968C90.7944 640.087 85.255 640.029 79.9949 640.051C79.5448 628.662 79.9785 614.248 79.9769 602.667L79.9904 528.034C74.715 528.154 69.323 528.029 64.0381 527.969C63.7431 512.436 63.8485 495.511 64.0145 479.977C58.6811 480.073 53.3463 480.075 48.0128 479.982C47.8181 475.035 47.9332 469.123 47.9185 464.111L47.9136 431.945C48.0629 399.915 48.0515 367.885 47.8794 335.855C52.5631 336.141 58.6132 335.994 63.3986 336.014C65.0718 333.416 63.0595 309.808 64.2753 304.67C66.4863 302.95 76.9649 303.94 80.0023 304.079C79.9774 298.945 79.6081 276.335 80.4084 272.719C82.5661 270.974 93.015 271.849 96.0678 272.141C95.8001 267.09 95.9568 261.107 95.9643 255.988C101.318 255.985 106.672 255.951 112.026 255.886C111.858 250.594 111.954 245.354 112.015 240.063C117.17 239.873 122.824 239.994 128.018 240.002C127.825 234.834 127.923 229.216 127.915 224.013L144.027 224.014L143.904 207.971C154.651 207.869 165.399 207.853 176.147 207.924C175.805 202.851 176.006 196.853 176.055 191.702C185.397 192.336 198.311 191.903 208.024 191.983L208.028 207.971L239.984 207.988L271.955 207.952C271.759 203.181 271.947 196.916 271.969 192.032L255.988 192.033L255.977 176.228C257.897 176.172 259.834 176.02 261.752 175.891C265.417 175.758 268.444 175.82 272.116 175.948C271.76 171.47 271.964 164.743 271.966 160.098L304.109 159.987C314.712 159.882 325.414 159.985 336.025 160.012C335.942 154.724 336.002 149.298 336.003 143.997C346.308 143.746 357.67 143.989 368.113 143.944C367.784 139.126 367.968 132.89 367.979 127.968L432.093 127.899C431.79 123.064 431.973 116.967 431.989 112.04C447.888 111.739 464.014 112.033 480.005 111.837C479.773 106.919 479.858 100.883 479.811 95.8799C485.221 96.0104 490.633 95.9894 496.041 95.8169C506.702 95.9513 517.364 96.0013 528.026 95.9668L528.036 80.0096L560.116 79.9667C559.816 75.2616 559.992 68.9384 559.986 64.1137C569.79 63.7274 582.128 64.0116 592.101 64.0002C591.945 58.5416 591.899 53.0805 591.963 47.6201C598.077 48.0687 605.931 47.7955 612.184 47.7642C621.458 47.7366 630.732 47.7744 640.005 47.8774L640.115 64.012C645.024 63.9992 650.566 64.1022 655.415 63.9369C656.265 68.6852 656.054 75.079 656.008 80.0129L655.992 95.9764L688.024 96.0091L703.996 96.0066L719.989 96.0226L735.968 96.0139L735.998 111.997L735.989 127.995C739.694 127.988 748.672 128.232 751.971 127.702L751.885 117.676L751.975 112.057L768.035 112.028C767.988 101.271 768.013 90.5143 768.11 79.7581C767.754 69.6367 768.02 57.721 768.136 47.564C770.695 48.0224 780.761 47.9828 784.15 48.0416C783.971 42.5002 784.086 37.1158 784.173 31.5774C787.385 32.1639 796.242 32.1686 799.425 31.5065C800.18 28.8676 799.867 4.86746 799.927 0Z"/><path fill="#BFF9F5" d="M863.992 432.038C885.31 431.915 906.628 431.907 927.946 432.014L943.977 431.859L976.047 432.038C976.053 442.498 976.217 453.526 976.017 463.943C970.681 464.045 965.344 464.091 960.006 464.079C955.002 463.905 950.805 464.012 945.834 464.184L944.005 464.458C944.021 480.162 944.242 496.349 944.006 512.012L928.003 512.05L928.009 543.954L911.975 544.066L911.974 591.984C912.62 614.041 911.892 634.189 912.01 656.067L912.005 671.961L927.97 672.014L928.077 704.027L912.034 704.004C912.132 719.584 912.443 736.521 912.036 752.024C917.364 751.962 922.692 751.952 928.02 751.994C928.072 762.658 928.064 773.323 927.996 783.988C917.603 784.01 906.636 784.204 896.289 783.892C895.745 787.476 895.997 796.119 896.018 800.059L880.131 800.016L864.003 800.037L864.018 816.042L848.065 816.046C837.371 816.114 826.677 816.099 815.983 816L815.981 832.129C805.321 832.036 794.66 832.019 784 832.079L783.996 815.995L767.855 816.026C768.127 811.31 767.95 804.798 767.953 799.942L783.87 799.937C783.943 794.84 784.169 789.013 783.836 783.985L752.008 784.009C751.999 788.016 752.142 793.314 751.903 797.217L751.894 799.282C750.395 800.597 724.015 800 720.016 799.987L719.996 816.004L703.994 815.96C703.961 821.13 703.799 826.896 704.077 832.012C704.154 837.352 704.13 842.694 704.004 848.034L704.017 864.15C699.287 863.869 692.5 864.088 687.605 864.079L655.961 864.011L639.991 864.005C640.009 867.896 640.245 876.625 639.687 880.165L639.972 880.572L639.988 896L639.999 912.071L640.028 928.003L608.069 928.072L608.024 943.978C597.383 944.044 586.74 944.044 576.099 943.978C576.075 949.254 576.135 954.776 575.971 960.03L559.983 960.037L560.021 943.948C554.788 943.892 549.267 944.013 544.013 944.051L528.005 944.029L527.966 880.536L528.085 879.904C527.637 869.884 527.958 858.136 528.03 848.013L528.037 751.996L511.975 751.971L495.968 752.008L495.956 624.156L496 607.984L512.005 608.003L511.976 576.013L528.01 576.004C528.006 560.11 528.179 543.874 527.971 528.008L543.985 527.997L543.997 544.024L559.985 543.996L559.997 560.024L575.989 559.996L575.997 576.024L591.989 575.996L591.999 608.024L607.989 607.996L607.999 640.024L623.989 639.996L623.999 672.024L639.989 671.996L639.999 704.022L656.004 704.006L656.014 655.989L640.007 655.985L640.014 623.988L624.007 623.985L624.018 591.988L608.008 591.985L608.022 559.98L592.007 559.985L592.014 527.981L576.007 527.985L576.017 495.98L560.001 495.985L559.974 480.005L623.996 480.002L623.966 464.005C650.811 464.108 677.083 463.696 703.985 464.06L703.965 448.004L736.003 448.036C735.997 442.686 735.956 437.336 735.878 431.987L752.018 432.014L784.036 431.982L816.022 431.982C832.012 431.888 848.003 431.906 863.992 432.038Z"/><path fill="#D49D5C" d="M895.999 496.009L911.992 496L911.975 544.066L911.974 591.984C912.62 614.041 911.892 634.189 912.01 656.067L912.005 671.961L927.97 672.014L928.077 704.027L912.034 704.004C912.132 719.584 912.443 736.521 912.036 752.024C917.364 751.962 922.692 751.952 928.02 751.994C928.072 762.658 928.064 773.323 927.996 783.988C917.603 784.01 906.636 784.204 896.289 783.892C895.745 787.476 895.997 796.119 896.018 800.059L880.131 800.016L864.003 800.037L864.018 816.042L848.065 816.046C837.371 816.114 826.677 816.099 815.983 816L815.981 832.129C805.321 832.036 794.66 832.019 784 832.079L783.996 815.995L767.855 816.026C768.127 811.31 767.95 804.798 767.953 799.942L783.87 799.937C783.943 794.84 784.169 789.013 783.836 783.985L752.008 784.009L752.025 768.003L736.017 768.003L720.024 768.005L720.028 751.997L704.027 752.002L704.008 720.109L704.042 688.001L688.031 688.004L688.007 671.874L688.02 656.004L672.026 656.005L672.023 623.997L704.003 624.01L703.998 608.014L736.003 608.01L736.009 592L784.004 592.01L784 576.018L800.003 576.01L800.01 560L799.999 544.009L832.016 544L831.999 528.009L880.017 528.016L879.998 512.009L896.013 512.016L895.999 496.009Z"/><path fill="#FCF2B7" d="M895.967 592.003L911.974 591.984C912.62 614.041 911.892 634.189 912.01 656.067L912.005 671.961L927.97 672.014L928.077 704.027L912.034 704.004C912.132 719.584 912.443 736.521 912.036 752.024C917.364 751.962 922.692 751.952 928.02 751.994C928.072 762.658 928.064 773.323 927.996 783.988C917.603 784.01 906.636 784.204 896.289 783.892C895.745 787.476 895.997 796.119 896.018 800.059L880.131 800.016L864.003 800.037L864.018 816.042L848.065 816.046C837.371 816.114 826.677 816.099 815.983 816L815.981 832.129C805.321 832.036 794.66 832.019 784 832.079L783.996 815.995L767.855 816.026C768.127 811.31 767.95 804.798 767.953 799.942L783.87 799.937C783.943 794.84 784.169 789.013 783.836 783.985L799.884 783.989L799.939 768.004L815.99 768.001L815.956 752.004L863.993 752.001L863.971 704.004L879.993 704.001L879.95 640.004L895.997 640.001L895.967 592.003Z"/><path fill="#F8725C" d="M815.997 783.991L864.001 783.998L879.888 784.006C879.941 788.005 879.786 796.254 880.131 800.016L864.003 800.037L864.018 816.042L848.065 816.046C837.371 816.114 826.677 816.099 815.983 816C816.026 810.651 815.996 805.301 815.892 799.953L815.922 799.626C816.145 795.048 815.988 788.698 815.997 783.991Z"/><path fill="#E4BE86" d="M815.922 799.626C824.449 800.45 838.885 800.021 848.025 800.017L864.003 800.037L864.018 816.042L848.065 816.046C837.371 816.114 826.677 816.099 815.983 816C816.026 810.651 815.996 805.301 815.892 799.953L815.922 799.626Z"/><path fill="#D1BCB2" d="M848.025 800.017L864.003 800.037L864.018 816.042L848.065 816.046L848.025 800.017Z"/><path fill="#D1BCB2" d="M864.001 783.998L879.888 784.006C879.941 788.005 879.786 796.254 880.131 800.016L864.003 800.037L864.001 783.998Z"/><path fill="#D1BCB2" d="M912.036 752.024C917.364 751.962 922.692 751.952 928.02 751.994C928.072 762.658 928.064 773.323 927.996 783.988C917.603 784.01 906.636 784.204 896.289 783.892L895.999 783.509L895.996 767.999L895.974 752.025L912.036 752.024Z"/><path fill="#F8725C" d="M912.036 752.024L912.01 768.022L895.996 767.999L895.974 752.025L912.036 752.024Z"/><path fill="#E4BE86" d="M895.982 656.017L912.01 656.067L912.005 671.961L927.97 672.014L928.077 704.027L912.034 704.004L911.992 688.023L895.991 687.997L895.982 656.017Z"/><path fill="#D1BCB2" d="M799.98 800.019C805.158 799.999 810.749 800.085 815.892 799.953C815.996 805.301 816.026 810.651 815.983 816L815.981 832.129C805.321 832.036 794.66 832.019 784 832.079L783.996 815.995L783.996 800.034L799.98 800.019Z"/><path fill="#F8725C" d="M783.996 800.034L799.98 800.019L800.009 816.022L783.996 815.995L783.996 800.034Z"/><path fill="#F7E9A6" d="M895.97 703.941C901.324 703.892 906.68 703.913 912.034 704.004C912.132 719.584 912.443 736.521 912.036 752.024L895.974 752.025C895.351 737.735 895.959 718.62 895.97 703.941Z"/><path fill="#F8725C" d="M863.998 768.026L895.996 767.999L895.999 783.509L896.289 783.892C895.745 787.476 895.997 796.119 896.018 800.059L880.131 800.016C879.786 796.254 879.941 788.005 879.888 784.006L864.001 783.998L863.998 768.026Z"/><path fill="#E4BE86" d="M879.888 784.006C885.402 784.007 890.504 784.109 895.999 783.509L896.289 783.892C895.745 787.476 895.997 796.119 896.018 800.059L880.131 800.016C879.786 796.254 879.941 788.005 879.888 784.006Z"/><path fill="#F7E9A6" d="M799.969 784.037L815.997 783.991C815.988 788.698 816.145 795.048 815.922 799.626L815.892 799.953C810.749 800.085 805.158 799.999 799.98 800.019C800.188 794.238 800.187 789.816 799.969 784.037Z"/><path fill="#BE4809" d="M895.999 496.009L911.992 496L911.975 544.066L911.974 591.984L895.967 592.003L895.997 640.001L879.95 640.004L879.993 704.001L863.971 704.004L863.993 752.001L815.956 752.004L815.99 768.001L799.939 768.004L799.884 783.989L783.836 783.985L752.008 784.009L752.025 768.003L768.007 768.003L767.993 752.009L800 752.004L799.986 736.009L815.99 736.016L831.994 735.995L831.98 719.98L847.998 720.004L848.005 688.046L847.97 655.985L863.995 656.005L863.978 624.008L879.996 624.005L880.005 592.045L879.98 559.99L895.998 560.004L895.99 544.024L832.016 544L831.999 528.009L880.017 528.016L879.998 512.009L896.013 512.016L895.999 496.009Z"/><path fill="#D49D5C" d="M799.999 544.009L832.016 544L895.99 544.024L895.998 560.004L879.98 559.99L880.005 592.045L848.008 592.033L848.017 608.022C832.141 608.011 815.828 608.204 799.993 607.982L751.96 608.01L751.98 623.987L719.96 624.01L719.98 639.987L687.957 640.01L688.02 656.004L672.026 656.005L672.023 623.997L704.003 624.01L703.998 608.014L736.003 608.01L736.009 592L784.004 592.01L784 576.018L800.003 576.01L800.01 560L799.999 544.009Z"/><path fill="#C47933" d="M847.959 560.01L879.98 559.99L880.005 592.045L848.008 592.033L848.017 608.022C832.141 608.011 815.828 608.204 799.993 607.982L799.96 592.011L831.979 591.986L831.98 576.004L847.981 575.986L847.959 560.01Z"/><path fill="#BE4809" d="M799.999 544.009L832.016 544L832.009 560.023L800.01 560L799.999 544.009Z"/><path fill="#D49D5C" d="M816.007 688.031L848.005 688.046L847.998 720.004L831.98 719.98L831.994 735.995L815.99 736.016L799.986 736.009L800 752.004L767.993 752.009L768.007 768.003L752.025 768.003L736.017 768.003L720.024 768.005L720.028 751.997L720.03 736.037L752.025 736.016L752.021 720.034L784.029 720.016L784.018 704.034L816.028 704.017L816.007 688.031Z"/><path fill="#C47933" d="M815.959 720.011L831.98 719.98L831.994 735.995L815.99 736.016L815.959 720.011Z"/><path fill="#C47933" d="M831.961 656.012L847.97 655.985L848.005 688.046L816.007 688.031L816.028 704.017L784.018 704.034L784.029 720.016L752.021 720.034L752.025 736.016L720.03 736.037L720.028 751.997L704.027 752.002L704.008 720.109C714.554 719.744 725.408 719.938 735.982 719.999L735.964 704.012L767.982 703.989L767.964 688.011L799.987 687.986L799.98 672.009L831.981 671.987L831.961 656.012Z"/><path fill="#C47933" d="M751.96 608.01L799.993 607.982L800.023 624.016L768.008 624.033L768.017 640.022L736.018 640.033L736.027 656.023L704.018 656.033L704.027 672.01C698.863 671.997 693.121 672.106 688.007 671.874L688.02 656.004L687.957 640.01L719.98 639.987L719.96 624.01L751.98 623.987L751.96 608.01Z"/><path fill="#FCF2B7" d="M863.992 432.038C885.31 431.915 906.628 431.907 927.946 432.014L943.977 431.859L976.047 432.038C976.053 442.498 976.217 453.526 976.017 463.943C970.681 464.045 965.344 464.091 960.006 464.079C955.002 463.905 950.805 464.012 945.834 464.184L944.005 464.458C944.021 480.162 944.242 496.349 944.006 512.012L928.003 512.05L928.009 543.954L911.975 544.066L911.992 496L895.999 496.009L896.013 512.016L879.998 512.009L880.017 528.016L831.999 528.009L832.016 544L799.999 544.009L800.01 560L800.003 576.01L784 576.018L784.004 592.01L736.009 592L736.003 608.01L703.998 608.014L704.003 624.01L672.023 623.997L656.034 624.001L655.969 608.003L656.024 576.004L639.999 576.056L640.024 560.002L624.001 560.055L624.01 527.988L639.965 528.002L639.91 512.005L671.987 512L671.935 496.005L703.98 496.001L704.003 480.007L704.001 464.183C720.63 463.409 735.474 464.02 751.989 463.968C767.999 463.86 784.01 463.866 800.02 463.987L799.994 448L816.012 447.994L816.022 431.982C832.012 431.888 848.003 431.906 863.992 432.038Z"/><path fill="#F7E9A6" d="M863.992 432.038C885.31 431.915 906.628 431.907 927.946 432.014L943.977 431.859L976.047 432.038C976.053 442.498 976.217 453.526 976.017 463.943C970.681 464.045 965.344 464.091 960.006 464.079C955.002 463.905 950.805 464.012 945.834 464.184L944.005 464.458C934.649 464.696 921.222 464.572 912.006 464.178C901.513 463.645 890.593 464.13 879.983 463.836C877.901 463.551 875.241 463.631 873.085 463.598C854.023 463.308 834.976 463.977 815.914 463.885C811.603 464.157 804.532 463.976 800.02 463.987L799.994 448L816.012 447.994L816.022 431.982C832.012 431.888 848.003 431.906 863.992 432.038Z"/><path fill="#FAFCE3" d="M943.977 431.859L976.047 432.038C976.053 442.498 976.217 453.526 976.017 463.943C970.681 464.045 965.344 464.091 960.006 464.079C955.002 463.905 950.805 464.012 945.834 464.184L944.443 463.761C943.495 460.954 943.953 436.432 943.977 431.859Z"/><path fill="#FCFCC2" d="M704.001 464.183C720.63 463.409 735.474 464.02 751.989 463.968C767.999 463.86 784.01 463.866 800.02 463.987C804.532 463.976 811.603 464.157 815.914 463.885C815.913 469.108 815.871 474.384 815.935 479.602L784.552 479.687C779.804 479.699 772.185 479.945 767.741 479.558C767.845 484.974 767.884 490.392 767.858 495.809C751.798 494.739 735.027 496.833 719.97 495.385C719.945 500.796 720.003 506.512 719.874 511.9L687.931 511.962L687.91 527.867L655.642 528C652.381 528.017 642.609 528.292 639.965 528.002L639.91 512.005L671.987 512L671.935 496.005L703.98 496.001L704.003 480.007L704.001 464.183Z"/><path fill="#AC4F2B" d="M704.001 464.183C720.63 463.409 735.474 464.02 751.989 463.968L751.989 479.988C736.121 479.989 719.834 479.791 704.003 480.007L704.001 464.183Z"/><path fill="#BE4809" d="M687.999 592.009L736.009 592L736.003 608.01L703.998 608.014L704.003 624.01L672.023 623.997L656.034 624.001L655.969 608.003L688.016 608.016L687.999 592.009Z"/><path fill="#BE4809" d="M767.994 560.009L800.01 560L800.003 576.01L784 576.018L784.004 592.01L736.009 592L735.997 576.009L768.013 576.016L767.994 560.009Z"/><path fill="#E4BE86" d="M879.983 463.836C890.593 464.13 901.513 463.645 912.006 464.178L912.003 480L879.985 479.999L879.983 463.836Z"/><path fill="#E4BE86" d="M847.984 480.021L879.985 479.999L880.002 496.007L848.003 496.003L847.984 480.021Z"/><path fill="#E4BE86" d="M687.989 544.014L736.006 543.991L736.012 559.997L703.995 560.016L704.011 576.001L672 575.999L671.99 560.019L688.001 560.005L687.989 544.014Z"/><path fill="#E4BE86" d="M767.973 512.019L800.011 511.974L800.006 528.007L767.986 527.999L767.973 512.019Z"/><path fill="#E4BE86" d="M815.973 496.011L832.004 495.98L832.011 512.007L815.992 512.005L815.973 496.011Z"/><path fill="#E4BE86" d="M751.975 528.019L767.986 527.999L768.008 544.008L751.999 544.008L751.975 528.019Z"/><path fill="#FCF2B7" d="M559.984 623.92L576.001 623.987C576.001 634.414 575.788 645.673 576.015 656.032L591.953 656.012L591.978 672.046L607.949 672.012L607.961 687.917C607.962 692.753 607.789 699.35 608.036 704.039L607.982 719.984L591.947 720.007L591.974 735.986L576.007 736.023L575.995 751.999L576.003 816.023L575.995 831.998L576 864.024L591.993 863.982L608.088 864.03C607.94 869.355 607.912 874.682 608.006 880.008C619.541 879.64 627.579 878.165 639.687 880.165L639.972 880.572L639.988 896L639.999 912.071L640.028 928.003L608.069 928.072L608.024 943.978C597.383 944.044 586.74 944.044 576.099 943.978C576.075 949.254 576.135 954.776 575.971 960.03L559.983 960.037L560.021 943.948C554.788 943.892 549.267 944.013 544.013 944.051L528.005 944.029L527.966 880.536L528.085 879.904C527.637 869.884 527.958 858.136 528.03 848.013L528.037 751.996L528.002 736.011L527.981 672L544.034 671.992C543.884 656.025 543.877 640.056 544.016 624.089C548.422 623.694 555.386 623.91 559.984 623.92Z"/><path fill="#AC4F2B" d="M576.015 656.032L591.953 656.012L591.978 672.046L607.949 672.012L607.961 687.917C607.962 692.753 607.789 699.35 608.036 704.039L607.982 719.984L591.947 720.007L591.974 735.986L576.007 736.023L575.995 751.999L576.003 816.023L575.995 831.998L576 864.024L591.993 863.982L608.088 864.03C607.94 869.355 607.912 874.682 608.006 880.008C592.274 879.636 575.769 879.903 560.02 879.997L560.001 672.017L576.018 672.016L576.015 656.032Z"/><path fill="#D49D5C" d="M607.961 687.917C607.962 692.753 607.789 699.35 608.036 704.039L607.982 719.984L591.947 720.007L591.974 735.986L576.007 736.023L575.998 703.987L576 688.011L592.004 687.997C597.323 688.047 602.643 688.021 607.961 687.917Z"/><path fill="#C47933" d="M576 688.011L592.004 687.997L592.02 704.029L575.998 703.987L576 688.011Z"/><path fill="#F7E9A6" d="M608.006 880.008C619.541 879.64 627.579 878.165 639.687 880.165L639.972 880.572L639.988 896L639.999 912.071L640.028 928.003L608.069 928.072L608.024 943.978C597.383 944.044 586.74 944.044 576.099 943.978C576.075 949.254 576.135 954.776 575.971 960.03L559.983 960.037L560.021 943.948C554.788 943.892 549.267 944.013 544.013 944.051L528.005 944.029L527.966 880.536L528.085 879.904C533.404 879.996 538.724 880.001 544.044 879.919L544.028 912.017L575.956 911.969L575.972 895.967L607.926 895.956L608.006 880.008Z"/><path fill="#FB9678" d="M543.983 928.036L575.977 927.997C575.991 932.46 575.812 939.737 576.099 943.978C576.075 949.254 576.135 954.776 575.971 960.03L559.983 960.037L560.021 943.948C554.788 943.892 549.267 944.013 544.013 944.051L543.983 928.036Z"/><path fill="#D1BCB2" d="M560.021 943.948C565.059 944.109 570.993 943.971 576.099 943.978C576.075 949.254 576.135 954.776 575.971 960.03L559.983 960.037L560.021 943.948Z"/><path fill="#D1BCB2" d="M607.984 911.998C617.466 912.001 630.808 911.63 639.999 912.071L640.028 928.003L608.069 928.072C607.917 922.919 608.004 917.186 607.984 911.998Z"/><path fill="#D1BCB2" d="M575.977 927.997C584.967 927.995 599.491 927.573 608.069 928.072L608.024 943.978C597.383 944.044 586.74 944.044 576.099 943.978C575.812 939.737 575.991 932.46 575.977 927.997Z"/><path fill="#FB9678" d="M575.984 912.038L607.984 911.998C608.004 917.186 607.917 922.919 608.069 928.072C599.491 927.573 584.967 927.995 575.977 927.997L575.984 912.038Z"/><path fill="#FB9678" d="M607.992 896.032L639.988 896L639.999 912.071C630.808 911.63 617.466 912.001 607.984 911.998L607.992 896.032Z"/><path fill="#F7E9A6" d="M527.981 672L544.034 671.992L544.053 736.055L528.002 736.011L527.981 672Z"/><path fill="#D49D5C" d="M671.982 784.004C677.308 784.046 682.633 784.045 687.958 783.999C687.983 793.714 687.957 803.429 687.881 813.144C688.253 815.373 687.818 814.881 689.203 815.979C691.102 816.242 692.357 816.156 694.285 816.109L703.994 815.96C703.961 821.13 703.799 826.896 704.077 832.012C704.154 837.352 704.13 842.694 704.004 848.034L704.017 864.15C699.287 863.869 692.5 864.088 687.605 864.079L655.961 864.011L639.991 864.005C640.009 867.896 640.245 876.625 639.687 880.165C627.579 878.165 619.541 879.64 608.006 880.008C607.912 874.682 607.94 869.355 608.088 864.03L591.993 863.982L576 864.024L575.995 831.998L576.003 816.023L591.991 815.983L591.955 800.007L607.98 799.988L607.95 784.014L639.991 783.987L671.982 784.004Z"/><path fill="#FCF2B7" d="M688.405 831.991L704.077 832.012C704.154 837.352 704.13 842.694 704.004 848.034L704.017 864.15C699.287 863.869 692.5 864.088 687.605 864.079L655.961 864.011L639.991 864.005L640.008 848.055L639.979 832.434C645.313 832.186 650.636 831.858 655.973 832.017C666.079 831.792 676.321 832.15 686.542 831.917L688.405 831.991Z"/><path fill="#AC4F2B" d="M639.979 832.434C645.313 832.186 650.636 831.858 655.973 832.017L655.991 847.989C651.186 847.993 644.678 847.824 640.008 848.055L639.979 832.434Z"/><path fill="#BE6742" d="M655.979 800.02L672.024 800.014L687.627 800.015C687.517 804.034 687.209 809.31 687.881 813.144C688.253 815.373 687.818 814.881 689.203 815.979C691.102 816.242 692.357 816.156 694.285 816.109L703.994 815.96C703.961 821.13 703.799 826.896 704.077 832.012L688.405 831.991L686.542 831.917C676.321 832.15 666.079 831.792 655.973 832.017C650.636 831.858 645.313 832.186 639.979 832.434L639.714 832.064C640.239 828.84 639.994 819.664 639.971 816.022L655.987 816.003L655.979 800.02Z"/><path fill="#AC4F2B" d="M672.024 800.014L687.627 800.015C687.517 804.034 687.209 809.31 687.881 813.144C688.253 815.373 687.818 814.881 689.203 815.979C691.102 816.242 692.357 816.156 694.285 816.109L703.994 815.96C703.961 821.13 703.799 826.896 704.077 832.012L688.405 831.991L686.542 831.917C683.108 831.474 675.726 831.639 672.015 831.63C671.777 821.093 671.78 810.551 672.024 800.014Z"/><path fill="#BE4809" d="M694.285 816.109L703.994 815.96C703.961 821.13 703.799 826.896 704.077 832.012L688.405 831.991C687.592 829.828 687.601 818.531 688.488 816.489C690.848 816.592 691.989 816.621 694.285 816.109Z"/><path fill="#C47933" d="M607.95 784.014L639.991 783.987L640.014 800.024L624.023 800.033L624.027 816.017L591.991 815.983L591.955 800.007L607.98 799.988L607.95 784.014Z"/><path fill="#AC4F2B" d="M607.967 847.998C618.407 847.998 629.635 847.811 640.008 848.055L639.991 864.005C640.009 867.896 640.245 876.625 639.687 880.165C627.579 878.165 619.541 879.64 608.006 880.008C607.912 874.682 607.94 869.355 608.088 864.03L607.967 847.998Z"/><path fill="#FCF2B7" d="M608.088 864.03C618.722 863.96 629.357 863.951 639.991 864.005C640.009 867.896 640.245 876.625 639.687 880.165C627.579 878.165 619.541 879.64 608.006 880.008C607.912 874.682 607.94 869.355 608.088 864.03Z"/><path fill="#BE4809" d="M639.714 832.064L639.979 832.434L640.008 848.055C629.635 847.811 618.407 847.998 607.967 847.998L607.978 832.006L639.714 832.064Z"/><path fill="#BE4809" d="M591.929 848.008L607.967 847.998L608.088 864.03L591.993 863.982L591.929 848.008Z"/><path fill="#C47933" d="M576.003 816.023L591.991 815.983L592.003 832.036L575.995 831.998L576.003 816.023Z"/><path fill="#D49D5C" d="M608.036 704.039L623.957 704.01L623.993 720.044L639.967 720.005L640.001 752.053L655.969 752.005L655.983 768.034L671.948 768.01L671.982 784.004L639.991 783.987L607.95 784.014L607.98 799.988L591.955 800.007L591.991 815.983L576.003 816.023L575.995 751.999L576.007 736.023L591.974 735.986L591.947 720.007L607.982 719.984L608.036 704.039Z"/><path fill="#C47933" d="M608.036 704.039L623.957 704.01L623.993 720.044L624.026 736.017L608.02 736.034L608.025 752.016L575.995 751.999L576.007 736.023L591.974 735.986L591.947 720.007L607.982 719.984L608.036 704.039Z"/><path fill="#C47933" d="M655.983 768.034L671.948 768.01L671.982 784.004L639.991 783.987L639.951 768.01L655.983 768.034Z"/><path fill="#BE4809" d="M704.003 480.007L703.98 496.001L671.935 496.005L671.987 512L639.91 512.005L639.965 528.002L624.01 527.988L623.998 496.008L640.022 496.037L639.996 480.008L704.003 480.007Z"/><path fill="#AC4F2B" d="M736.017 768.003L752.025 768.003L752.008 784.009C751.999 788.016 752.142 793.314 751.903 797.217L751.894 799.282C750.395 800.597 724.015 800 720.016 799.987L719.997 784.012L732.127 784.139C733.532 784.133 734.633 784.299 735.822 783.617C736.333 779.664 736.055 772.241 736.017 768.003Z"/><path fill="#BE6742" d="M736.017 768.003L752.025 768.003L752.008 784.009C751.999 788.016 752.142 793.314 751.903 797.217C751.455 793.206 751.558 787.952 751.687 783.929C748.671 784.134 734.12 785.332 732.127 784.139C733.532 784.133 734.633 784.299 735.822 783.617C736.333 779.664 736.055 772.241 736.017 768.003Z"/><path fill="#FCFCC2" d="M543.995 592.005L559.997 591.971L559.984 623.92C555.386 623.91 548.422 623.694 544.016 624.089L543.995 592.005Z"/><path fill="#FEFEFE" d="M656.004 704.006L672.014 703.991L672.014 719.998L656.001 720.021L656.004 704.006Z"/><path fill="#E4BE86" d="M799.927 0L848.027 0L848 15.9463C843.129 16.0427 837.259 16.0034 832.473 16.3418L832.494 47.0696C832.496 51.8244 832.709 58.819 832.416 63.422C834.08 63.4626 836.116 63.2365 837.35 63.98C837.552 70.5084 837.91 88.6457 837.306 94.7135C835.685 95.8763 834.361 95.7117 832.148 95.8208C832.431 101.108 832.219 106.675 832.118 111.989C837.059 111.933 843.123 111.698 847.975 111.82L848.006 127.868C852.976 127.806 859.03 127.832 863.995 128.014C864.088 133.18 864.119 138.482 864.335 143.634C869.441 143.703 874.546 143.822 879.65 143.991C880.149 149.091 879.993 154.776 879.982 159.942C883.984 159.778 891.932 158.964 894.87 161.11C896.869 164.054 896.054 171.992 895.971 175.95L911.872 175.833C912.172 186.422 912.013 197.314 911.979 207.929C917.318 207.854 922.657 207.849 927.995 207.913C928.07 218.447 928.306 229.465 928.05 239.962C933.357 239.874 938.666 239.88 943.973 239.979C944.64 249.348 944.318 262.383 944.253 272.002C949.187 271.481 954.852 271.924 959.913 271.841C961.019 284.291 960.029 307.079 960.174 320.005C964.555 319.543 971.617 319.867 976.208 319.943C976.277 329.43 976.52 342.714 975.982 352.031C970.832 352.071 965.214 352.227 960.107 352.108C960.237 368.066 960.283 384.023 960.246 399.981C965.476 399.863 970.707 399.851 975.938 399.944C976.058 410.642 976.094 421.34 976.047 432.038L943.977 431.859L927.946 432.014C906.628 431.907 885.31 431.915 863.992 432.038C848.003 431.906 832.012 431.888 816.022 431.982L784.036 431.982L752.018 432.014L735.878 431.987L704.038 431.993L704.034 416.024C683.89 415.438 660.41 416.003 640.019 416.007L639.991 384.009L656.011 384.038L656.007 367.911L656.009 336.07L655.981 320.01L672.011 320.039L671.987 288.009L688.011 288.038L687.994 256.01L704.011 256.037L704.007 223.92L704.025 207.993L720.01 208.011L720.029 192.012L719.998 176.003L719.981 160.015L736.002 160.002L735.989 127.995C739.694 127.988 748.672 128.232 751.971 127.702L751.885 117.676L751.975 112.057L768.035 112.028C767.988 101.271 768.013 90.5143 768.11 79.7581C767.754 69.6367 768.02 57.721 768.136 47.564C770.695 48.0224 780.761 47.9828 784.15 48.0416C783.971 42.5002 784.086 37.1158 784.173 31.5774C787.385 32.1639 796.242 32.1686 799.425 31.5065C800.18 28.8676 799.867 4.86746 799.927 0Z"/><path fill="#E4BE86" d="M799.927 0L848.027 0L848 15.9463C843.129 16.0427 837.259 16.0034 832.473 16.3418L832.494 47.0696C832.496 51.8244 832.709 58.819 832.416 63.422C834.08 63.4626 836.116 63.2365 837.35 63.98C837.552 70.5084 837.91 88.6457 837.306 94.7135C835.685 95.8763 834.361 95.7117 832.148 95.8208C832.431 101.108 832.219 106.675 832.118 111.989C837.059 111.933 843.123 111.698 847.975 111.82L848.006 127.868C852.976 127.806 859.03 127.832 863.995 128.014C864.088 133.18 864.119 138.482 864.335 143.634C869.441 143.703 874.546 143.822 879.65 143.991C880.149 149.091 879.993 154.776 879.982 159.942C883.984 159.778 891.932 158.964 894.87 161.11C896.869 164.054 896.054 171.992 895.971 175.95L911.872 175.833C912.172 186.422 912.013 197.314 911.979 207.929L911.987 239.983L895.998 240.043L895.937 256.043L879.998 256.036L879.968 240.03L863.988 240.011L847.968 239.999L847.968 255.99L815.969 256.008L815.995 271.987L783.98 272.008L784.001 287.986L751.967 288.008L751.994 303.988L719.969 304.008L719.98 319.992L687.966 320.008L687.988 336C677.438 335.965 666.529 335.788 656.009 336.07L655.981 320.01L672.011 320.039L671.987 288.009L688.011 288.038L687.994 256.01L704.011 256.037L704.007 223.92L704.025 207.993L720.01 208.011L720.029 192.012L719.998 176.003L719.981 160.015L736.002 160.002L735.989 127.995C739.694 127.988 748.672 128.232 751.971 127.702L751.885 117.676L751.975 112.057L768.035 112.028C767.988 101.271 768.013 90.5143 768.11 79.7581C767.754 69.6367 768.02 57.721 768.136 47.564C770.695 48.0224 780.761 47.9828 784.15 48.0416C783.971 42.5002 784.086 37.1158 784.173 31.5774C787.385 32.1639 796.242 32.1686 799.425 31.5065C800.18 28.8676 799.867 4.86746 799.927 0Z"/><path fill="#FAFCE3" d="M799.927 0L848.027 0L848 15.9463C843.129 16.0427 837.259 16.0034 832.473 16.3418L832.494 47.0696C832.496 51.8244 832.709 58.819 832.416 63.422C834.08 63.4626 836.116 63.2365 837.35 63.98C837.552 70.5084 837.91 88.6457 837.306 94.7135C835.685 95.8763 834.361 95.7117 832.148 95.8208C832.431 101.108 832.219 106.675 832.118 111.989C837.059 111.933 843.123 111.698 847.975 111.82L848.006 127.868C852.976 127.806 859.03 127.832 863.995 128.014C864.088 133.18 864.119 138.482 864.335 143.634C869.441 143.703 874.546 143.822 879.65 143.991C880.149 149.091 879.993 154.776 879.982 159.942C883.984 159.778 891.932 158.964 894.87 161.11C896.869 164.054 896.054 171.992 895.971 175.95L911.872 175.833C912.172 186.422 912.013 197.314 911.979 207.929L911.987 239.983L895.998 240.043L895.937 256.043L879.998 256.036L879.968 240.03L863.988 240.011L847.968 239.999C848.11 229.42 847.999 218.612 847.994 208.013L832.011 208.008L831.997 192.014L816.01 192.006L815.997 176.014L800.006 176.006L799.998 160.002L783.992 159.959L783.981 144.01C779.537 144.02 772.198 144.208 768.034 143.621L767.988 128.005L752.043 128.01L751.971 127.702L751.885 117.676L751.975 112.057L768.035 112.028C767.988 101.271 768.013 90.5143 768.11 79.7581C767.754 69.6367 768.02 57.721 768.136 47.564C770.695 48.0224 780.761 47.9828 784.15 48.0416C783.971 42.5002 784.086 37.1158 784.173 31.5774C787.385 32.1639 796.242 32.1686 799.425 31.5065C800.18 28.8676 799.867 4.86746 799.927 0Z"/><path fill="#BE4809" d="M815.982 160.026L831.972 160.006L831.978 176.039L847.973 176.004L847.982 192.039L863.974 192.005L863.975 208.075L863.988 240.011L847.968 239.999C848.11 229.42 847.999 218.612 847.994 208.013L832.011 208.008L831.997 192.014L816.01 192.006L815.997 176.014L800.006 176.006L799.998 160.002L815.982 160.026Z"/><path fill="#FEFEFE" d="M815.959 64.1789C821.735 64.0723 826.651 63.9898 832.416 63.422C834.08 63.4626 836.116 63.2365 837.35 63.98C837.552 70.5084 837.91 88.6457 837.306 94.7135C835.685 95.8763 834.361 95.7117 832.148 95.8208C822.057 96.3231 810.195 96.0351 799.975 96.0336C799.839 90.7828 799.907 85.3335 799.9 80.0658C805.265 79.9531 810.631 79.9218 815.996 79.9721L815.959 64.1789Z"/><path fill="#E4BE86" d="M783.904 127.969L799.982 127.989L799.989 144.038L799.998 160.002L783.992 159.959L783.981 144.01C779.537 144.02 772.198 144.208 768.034 143.621L767.988 128.005L783.468 128.056L783.904 127.969Z"/><path fill="#AC4F2B" d="M783.981 144.01L799.989 144.038L799.998 160.002L783.992 159.959L783.981 144.01Z"/><path fill="#BE4809" d="M767.988 128.005L783.468 128.056C784.179 133.033 783.967 138.912 783.981 144.01C779.537 144.02 772.198 144.208 768.034 143.621L767.988 128.005Z"/><path fill="#F7E9A6" d="M879.99 224.028L896.005 223.969L895.998 240.043L895.937 256.043L879.998 256.036L879.968 240.03L879.99 224.028Z"/><path fill="#E4BE86" d="M863.975 208.075L879.982 207.988L879.99 224.028L879.968 240.03L863.988 240.011L863.975 208.075Z"/><path fill="#BFF9F5" d="M768.035 112.028L784 111.997C783.974 117.275 784.007 122.706 783.904 127.969L783.468 128.056L767.988 128.005L752.043 128.01L751.971 127.702L751.885 117.676L751.975 112.057L768.035 112.028Z"/><path fill="#FB9678" d="M799.989 144.038L815.982 144.005L815.982 160.026L799.998 160.002L799.989 144.038Z"/><path fill="#D49D5C" d="M751.971 127.702L752.043 128.01L767.988 128.005L768.034 143.621C772.198 144.208 779.537 144.02 783.981 144.01L783.992 159.959L799.998 160.002L800.006 176.006L800.009 192.015L751.985 192.028L751.991 208.011L720.01 208.011L720.029 192.012L719.998 176.003L719.981 160.015L736.002 160.002L735.989 127.995C739.694 127.988 748.672 128.232 751.971 127.702Z"/><path fill="#F7E9A6" d="M751.971 127.702L752.043 128.01L767.988 128.005L768.034 143.621L767.859 143.973C767.989 149.313 768.01 154.655 767.922 159.995L752 160.011L736.002 160.002L735.989 127.995C739.694 127.988 748.672 128.232 751.971 127.702Z"/><path fill="#D0E4D2" d="M752.043 128.01L767.988 128.005L768.034 143.621L767.859 143.973L751.99 144.006C751.977 138.674 751.994 133.342 752.043 128.01Z"/><path fill="#FAFCE3" d="M719.981 160.015L736.002 160.002L752 160.011L752.014 176.03L735.996 176.016L736.02 192.024L720.029 192.012L719.998 176.003L719.981 160.015Z"/><path fill="#E4BE86" d="M768.034 143.621C772.198 144.208 779.537 144.02 783.981 144.01L783.992 159.959C778.653 159.962 773.313 159.994 767.974 160.055L767.986 175.986L752.014 176.03L752 160.011L767.922 159.995C768.01 154.655 767.989 149.313 767.859 143.973L768.034 143.621Z"/><path fill="#D49D5C" d="M704.025 207.993L720.01 208.011L720.01 224.013C714.899 223.994 709.062 224.093 704.007 223.92L704.025 207.993Z"/><path fill="#FCF2B7" d="M911.979 207.929C917.318 207.854 922.657 207.849 927.995 207.913C928.07 218.447 928.306 229.465 928.05 239.962C933.357 239.874 938.666 239.88 943.973 239.979C944.64 249.348 944.318 262.383 944.253 272.002C949.187 271.481 954.852 271.924 959.913 271.841C961.019 284.291 960.029 307.079 960.174 320.005C964.555 319.543 971.617 319.867 976.208 319.943C976.277 329.43 976.52 342.714 975.982 352.031C970.832 352.071 965.214 352.227 960.107 352.108C960.237 368.066 960.283 384.023 960.246 399.981C965.476 399.863 970.707 399.851 975.938 399.944C976.058 410.642 976.094 421.34 976.047 432.038L943.977 431.859L927.946 432.014C927.902 427.389 928.408 402.545 927.543 400.019C928.12 398.787 927.96 357.245 927.98 351.999L911.983 352.03L911.977 303.999L895.987 304.03L895.937 256.043L895.998 240.043L911.987 239.983L911.979 207.929Z"/><path fill="#F7E9A6" d="M928.05 239.962C933.357 239.874 938.666 239.88 943.973 239.979C944.64 249.348 944.318 262.383 944.253 272.002C938.966 272.514 933.289 272.428 927.951 272.468C927.744 261.633 927.777 250.795 928.05 239.962Z"/><path fill="#D49D5C" d="M847.968 239.999L863.988 240.011L864.016 272L848.004 272.081L848.022 288.017L816.011 288.028L816.009 304.019L784.005 304.023L784.009 320.017L736.011 320.028L736.009 336.017L704 336.023L704.005 352.017L672.01 352.029L672.013 368.011C666.995 367.993 660.942 368.114 656.007 367.911L656.009 336.07C666.529 335.788 677.438 335.965 687.988 336L687.966 320.008L719.98 319.992L719.969 304.008L751.994 303.988L751.967 288.008L784.001 287.986L783.98 272.008L815.995 271.987L815.969 256.008L847.968 255.99L847.968 239.999Z"/><path fill="#BE4809" d="M863.988 240.011L879.968 240.03L879.998 256.036L895.937 256.043L895.987 304.03L911.977 303.999L911.983 352.03L927.98 351.999C927.96 357.245 928.12 398.787 927.543 400.019C917.282 399.829 906.31 400.002 896 400.004L896.009 352.037L895.993 320.023L879.979 320.005C880.094 304.008 880.1 288.011 879.995 272.014L864.016 272L863.988 240.011Z"/><path fill="#BE4809" d="M896 400.004C906.31 400.002 917.282 399.829 927.543 400.019C928.408 402.545 927.902 427.389 927.946 432.014C906.628 431.907 885.31 431.915 863.992 432.038C848.003 431.906 832.012 431.888 816.022 431.982L784.036 431.982L784.015 416.006L848.005 416.009L847.992 400.002L896 400.004Z"/><path fill="#FCFCC2" d="M896 400.004C906.31 400.002 917.282 399.829 927.543 400.019C928.408 402.545 927.902 427.389 927.946 432.014C906.628 431.907 885.31 431.915 863.992 432.038L863.963 416.003L895.991 416.001L896 400.004Z"/><path fill="#E4BE86" d="M879.995 352.031L896.009 352.037L896 400.004L847.992 400.002L848.005 416.009L784.015 416.006L784.009 400.032L816.012 400.019L815.996 383.987L848.011 384.021L848.013 368.032L880.012 368.017L879.995 352.031Z"/><path fill="#D49D5C" d="M751.964 384.008L815.996 383.987L816.012 400.019L784.009 400.032L784.015 416.006L784.036 431.982L752.018 432.014L735.878 431.987L704.038 431.993L704.034 416.024C714.487 415.769 725.482 415.969 735.973 416.001L735.952 400.008L751.982 399.988L751.964 384.008Z"/><path fill="#E4BE86" d="M752.012 416.024L784.015 416.006L784.036 431.982L752.018 432.014L752.012 416.024Z"/><path fill="#D49D5C" d="M879.979 320.005L895.993 320.023L896.009 352.037L879.995 352.031L880.012 368.017L848.013 368.032L848.011 384.021L815.996 383.987L815.982 368.008L831.997 367.997L831.98 352.008L863.991 351.989L863.971 336.007L879.968 335.992L879.979 320.005Z"/><path fill="#A40E0C" d="M95.9694 463.988L111.999 463.966L143.98 463.993L143.99 480.007L159.967 479.974C170.643 479.918 181.32 479.921 191.996 479.982L192.034 495.994C197.359 495.96 202.685 495.957 208.01 495.987L208.044 512L207.996 528.01L207.984 544.02L239.983 544.02L239.994 560.008C250.592 560.015 261.404 559.911 271.985 560.032L272.002 576.007C287.913 576.012 304.097 575.856 319.984 576.034L319.997 592.01L351.988 592.004C356.917 591.936 362.984 591.007 366.975 593.39C367.984 594.552 367.822 595.95 367.927 597.576L367.964 607.922L367.969 623.998L351.921 623.999L351.972 655.998L335.973 656L335.976 703.998L319.929 704C319.981 717.367 320.702 738.063 319.88 750.758L319.619 751.681C317.119 752.296 307.179 751.998 303.964 751.986C303.974 762.688 303.842 773.75 304.006 784.422L304.241 784.816C303.694 788.573 303.926 795.607 303.941 799.646C299.6 800.22 292.565 799.994 287.95 799.988L288.033 816.052C282.92 815.91 277.128 816.032 271.96 816.03C271.968 820.813 271.804 827.386 272.046 832.031C272.029 837.207 271.899 842.852 272.079 847.989L256.009 847.99C245.34 848.073 234.671 848.069 224.001 847.978L224.024 832C218.674 832.052 213.323 832.042 207.972 831.969C207.943 826.642 207.973 821.315 208.063 815.989L192.029 816.046C181.353 816.146 170.677 816.063 160.005 815.797L159.951 800.002C149.563 800.021 138.311 800.245 127.996 799.808C127.917 794.907 127.657 788.833 127.907 784.022L111.97 784.079L112.018 767.994L96.0243 768.069L95.9971 752.002L112.019 752.002C111.87 735.997 111.87 719.992 112.019 703.987L95.9565 703.973L96.0346 639.968C90.7944 640.087 85.255 640.029 79.9949 640.051C79.5448 628.662 79.9785 614.248 79.9769 602.667L79.9904 528.034C74.715 528.154 69.323 528.029 64.0381 527.969C63.7431 512.436 63.8485 495.511 64.0145 479.977L63.9942 464.037L80.4629 464.013L95.9694 463.988Z"/><path fill="#BE6742" d="M175.984 512.015L208.044 512L207.996 528.01L207.984 544.02L239.983 544.02L239.994 560.008C250.592 560.015 261.404 559.911 271.985 560.032L272.002 576.007C287.913 576.012 304.097 575.856 319.984 576.034L319.997 592.01L351.988 592.004C356.917 591.936 362.984 591.007 366.975 593.39C367.984 594.552 367.822 595.95 367.927 597.576L367.964 607.922L367.969 623.998L351.921 623.999L351.972 655.998L335.973 656L335.976 703.998L319.929 704C319.981 717.367 320.702 738.063 319.88 750.758L319.619 751.681C317.119 752.296 307.179 751.998 303.964 751.986L271.989 752.005L271.976 736.027L239.996 736.004L239.969 720.024L207.996 720.003L207.979 704.026L191.993 704.005L191.983 688.027L175.998 687.973L175.995 672.023L176.015 655.994L160.011 656.013L160.014 623.991L144.008 624.013L144.003 592.018L159.998 592.005L160.044 559.99L144.007 560.014L144.001 512.014L175.984 512.015Z"/><path fill="#AC4F2B" d="M160.044 559.99L192.031 559.975L192.03 576.017L224.028 575.975L224.03 592.021L240.027 591.973L240.007 608.031L256.018 607.973L256.008 624.018L288.024 623.978L288.008 640.024L320.018 639.979L320.008 656.026L335.453 655.996C335.445 661.293 335.39 666.665 335.446 671.954L287.995 672.002L287.982 656.024L271.991 656.002L271.981 640.025L239.995 640.002L239.968 624.024L208.003 624.006L207.965 608.022L175.978 608.002L175.965 592.023L159.998 592.005L160.044 559.99Z"/><path fill="#AC4F2B" d="M175.995 672.023L208.018 671.978L208.007 688.024L240.032 687.975L240.03 704.02L256.032 703.97L256.029 720.016L288.034 719.973L288.002 736.032L319.558 736.009C319.46 740.501 319.317 746.317 319.88 750.758L319.619 751.681C317.119 752.296 307.179 751.998 303.964 751.986L271.989 752.005L271.976 736.027L239.996 736.004L239.969 720.024L207.996 720.003L207.979 704.026L191.993 704.005L191.983 688.027L175.998 687.973L175.995 672.023Z"/><path fill="#A40E0C" d="M175.984 512.015L208.044 512L207.996 528.01L175.991 528.012L175.984 512.015Z"/><path fill="#A40E0C" d="M351.988 592.004C356.917 591.936 362.984 591.007 366.975 593.39C367.984 594.552 367.822 595.95 367.927 597.576L367.964 607.922C363.763 608.197 356.404 608.004 351.985 608.01L351.988 592.004Z"/><path fill="#FB9678" d="M79.9904 528.034L96.0159 527.967L95.9834 576.037L111.998 576.029L112.009 592.004L127.991 592.01L128.002 640.004L143.994 640.01L144.002 704.004L159.991 704.012L160.011 736.003L175.995 736.012L176.012 752.005L191.991 752.01L192.01 768.003L223.995 768.01L224.001 784.005L271.992 784.01L272.026 800.006L287.95 799.988L288.033 816.052C282.92 815.91 277.128 816.032 271.96 816.03C271.968 820.813 271.804 827.386 272.046 832.031C272.029 837.207 271.899 842.852 272.079 847.989L256.009 847.99C245.34 848.073 234.671 848.069 224.001 847.978L224.024 832C218.674 832.052 213.323 832.042 207.972 831.969C207.943 826.642 207.973 821.315 208.063 815.989L192.029 816.046C181.353 816.146 170.677 816.063 160.005 815.797L159.951 800.002C149.563 800.021 138.311 800.245 127.996 799.808C127.917 794.907 127.657 788.833 127.907 784.022L111.97 784.079L112.018 767.994L96.0243 768.069L95.9971 752.002L112.019 752.002C111.87 735.997 111.87 719.992 112.019 703.987L95.9565 703.973L96.0346 639.968C90.7944 640.087 85.255 640.029 79.9949 640.051C79.5448 628.662 79.9785 614.248 79.9769 602.667L79.9904 528.034Z"/><path fill="#F8725C" d="M79.9904 528.034L96.0159 527.967L95.9834 576.037L111.998 576.029L112.009 592.004L112.01 672.034L128.016 671.965L128.017 688.009L112.035 688.023C112.027 693.289 111.95 698.737 112.019 703.987L95.9565 703.973L96.0346 639.968C90.7944 640.087 85.255 640.029 79.9949 640.051C79.5448 628.662 79.9785 614.248 79.9769 602.667L79.9904 528.034Z"/><path fill="#D1BCB2" d="M95.9971 752.002L112.019 752.002L112.051 767.974L144.019 768.006L143.997 784.006L160.019 784.013L160.032 799.943L192.024 800.012L192.029 816.046C181.353 816.146 170.677 816.063 160.005 815.797L159.951 800.002C149.563 800.021 138.311 800.245 127.996 799.808C127.917 794.907 127.657 788.833 127.907 784.022L111.97 784.079L112.018 767.994L96.0243 768.069L95.9971 752.002Z"/><path fill="#D1BCB2" d="M240.019 816.015L271.96 816.03C271.968 820.813 271.804 827.386 272.046 832.031C272.029 837.207 271.899 842.852 272.079 847.989L256.009 847.99C245.34 848.073 234.671 848.069 224.001 847.978L224.024 832C218.674 832.052 213.323 832.042 207.972 831.969C207.943 826.642 207.973 821.315 208.063 815.989L240.019 816.015Z"/><path fill="#F8725C" d="M240.019 816.015L271.96 816.03C271.968 820.813 271.804 827.386 272.046 832.031C261.59 831.838 250.505 832.011 240.001 832.004L240.019 816.015Z"/><path fill="#F8725C" d="M112.019 703.987L128.021 703.968L128.003 752.026L144.024 751.965L144.019 768.006L112.051 767.974L112.019 752.002C111.87 735.997 111.87 719.992 112.019 703.987Z"/><path fill="#F8725C" d="M192.024 800.012L240.026 799.943L240.019 816.015L208.063 815.989L192.029 816.046L192.024 800.012Z"/><path fill="#F8725C" d="M160.019 784.013L192.027 783.95L192.024 800.012L160.032 799.943L160.019 784.013Z"/><path fill="#F8725C" d="M144.019 768.006L160.02 767.956L160.019 784.013L143.997 784.006L144.019 768.006Z"/><path fill="#FB9678" d="M95.9694 463.988L111.999 463.966L111.999 480.007L111.998 576.029L95.9834 576.037L96.0159 527.967L79.9904 528.034C74.715 528.154 69.323 528.029 64.0381 527.969C63.7431 512.436 63.8485 495.511 64.0145 479.977L63.9942 464.037L80.4629 464.013L95.9694 463.988Z"/><path fill="#F8725C" d="M63.9942 464.037L80.4629 464.013L79.9904 528.034C74.715 528.154 69.323 528.029 64.0381 527.969C63.7431 512.436 63.8485 495.511 64.0145 479.977L63.9942 464.037Z"/><path fill="#BE6742" d="M175.998 687.973L191.983 688.027L191.993 704.005L207.979 704.026L207.996 720.003L239.969 720.024L239.996 736.004L271.976 736.027L271.989 752.005L303.964 751.986C303.974 762.688 303.842 773.75 304.006 784.422C299.972 783.671 292.371 783.948 288.023 783.995L288.029 767.995L256.038 768.015L239.999 768.011L240.017 751.989L208.006 752.012L208.015 735.993L192.016 736.013L192.02 719.995L176.006 720.012L175.998 687.973Z"/><path fill="#BE4809" d="M240.017 751.989L256.039 751.962L256.038 768.015L239.999 768.011L240.017 751.989Z"/><path fill="#BE4809" d="M159.967 479.974C170.643 479.918 181.32 479.921 191.996 479.982L192.034 495.994C197.359 495.96 202.685 495.957 208.01 495.987L208.044 512L175.984 512.015L176.04 495.99L159.978 496.007L159.967 479.974Z"/><path fill="#BE6742" d="M111.999 463.966L143.98 463.993L143.99 480.007L111.999 480.007L111.999 463.966Z"/><path fill="#BE6742" d="M143.99 480.007L159.967 479.974L159.978 496.007L144.022 496.015L143.99 480.007Z"/><path fill="#BE6742" d="M176.055 191.702C185.397 192.336 198.311 191.903 208.024 191.983L208.028 207.971L239.984 207.988L271.955 207.952L288.041 208.001C288.052 212.858 287.94 218.293 288.115 223.101L287.974 224.009C288.032 229.319 288.029 234.63 287.964 239.941C287.732 245.294 287.596 250.65 287.554 256.008L304.011 256.03C306.819 256.004 318.013 255.615 319.947 256.504C319.952 261.208 319.785 267.299 320.085 271.891L320.381 272.024L335.966 272.006L335.978 288.015L351.973 288.006L351.958 303.908L351.99 320.042L367.968 320.012L367.979 384.05L383.951 384.011L383.974 415.999C362.643 415.826 341.31 415.831 319.979 416.013C320.009 419.172 320.637 430.262 319.219 431.865L317.558 431.911C309.472 432.301 298.901 432.01 290.652 432.008L239.912 431.998L224.112 432.015C224.089 435.229 223.955 439.149 224.069 442.303C225.31 449.665 223.614 457.072 224.184 464.007L208.053 464.01L191.985 464.002L191.996 479.982C181.32 479.921 170.643 479.918 159.967 479.974L143.99 480.007L143.98 463.993L111.999 463.966L95.9694 463.988L80.4629 464.013L63.9942 464.037L64.0145 479.977C58.6811 480.073 53.3463 480.075 48.0128 479.982C47.8181 475.035 47.9332 469.123 47.9185 464.111L47.9136 431.945C48.0629 399.915 48.0515 367.885 47.8794 335.855C52.5631 336.141 58.6132 335.994 63.3986 336.014C65.0718 333.416 63.0595 309.808 64.2753 304.67C66.4863 302.95 76.9649 303.94 80.0023 304.079C79.9774 298.945 79.6081 276.335 80.4084 272.719C82.5661 270.974 93.015 271.849 96.0678 272.141C95.8001 267.09 95.9568 261.107 95.9643 255.988C101.318 255.985 106.672 255.951 112.026 255.886C111.858 250.594 111.954 245.354 112.015 240.063C117.17 239.873 122.824 239.994 128.018 240.002C127.825 234.834 127.923 229.216 127.915 224.013L144.027 224.014L143.904 207.971C154.651 207.869 165.399 207.853 176.147 207.924C175.805 202.851 176.006 196.853 176.055 191.702Z"/><path fill="#FB8973" d="M176.055 191.702C185.397 192.336 198.311 191.903 208.024 191.983L208.028 207.971L239.984 207.988L271.955 207.952L288.041 208.001C288.052 212.858 287.94 218.293 288.115 223.101L287.974 224.009C288.032 229.319 288.029 234.63 287.964 239.941C287.732 245.294 287.596 250.65 287.554 256.008L304.011 256.03L304.006 272.019C277.63 271.682 250.487 272.02 224.047 272.023L208.014 272.019L208.009 288.016L191.904 288.021L160.007 288.017L160.011 320.014L144.005 320.017L144.014 336.016L128.011 336.019L127.996 352.009L112.011 352.003L112.01 432.014L95.9931 431.96C95.9943 442.398 96.1837 453.61 95.9694 463.988L80.4629 464.013L63.9942 464.037L64.0145 479.977C58.6811 480.073 53.3463 480.075 48.0128 479.982C47.8181 475.035 47.9332 469.123 47.9185 464.111L47.9136 431.945C48.0629 399.915 48.0515 367.885 47.8794 335.855C52.5631 336.141 58.6132 335.994 63.3986 336.014C65.0718 333.416 63.0595 309.808 64.2753 304.67C66.4863 302.95 76.9649 303.94 80.0023 304.079C79.9774 298.945 79.6081 276.335 80.4084 272.719C82.5661 270.974 93.015 271.849 96.0678 272.141C95.8001 267.09 95.9568 261.107 95.9643 255.988C101.318 255.985 106.672 255.951 112.026 255.886C111.858 250.594 111.954 245.354 112.015 240.063C117.17 239.873 122.824 239.994 128.018 240.002C127.825 234.834 127.923 229.216 127.915 224.013L144.027 224.014L143.904 207.971C154.651 207.869 165.399 207.853 176.147 207.924C175.805 202.851 176.006 196.853 176.055 191.702Z"/><path fill="#A40E0C" d="M287.554 256.008L304.011 256.03L304.006 272.019C277.63 271.682 250.487 272.02 224.047 272.023L208.014 272.019L208.009 288.016L191.904 288.021L160.007 288.017L160.011 320.014L144.005 320.017L144.014 336.016L128.011 336.019L127.996 352.009L112.011 352.003L111.992 319.997L127.996 320.006L127.993 287.997L143.996 288.007L143.993 271.997L175.995 272.007L175.992 255.997L287.554 256.008Z"/><path fill="#F7E9A6" d="M176.055 191.702C185.397 192.336 198.311 191.903 208.024 191.983L208.028 207.971L239.984 207.988L240.008 224.033L159.993 224.036L159.999 240.02L144.091 240.03C143.813 235.136 144.004 229.001 144.027 224.014L143.904 207.971C154.651 207.869 165.399 207.853 176.147 207.924C175.805 202.851 176.006 196.853 176.055 191.702Z"/><path fill="#FAFCE3" d="M176.055 191.702C185.397 192.336 198.311 191.903 208.024 191.983L208.028 207.971C197.776 207.977 186.297 208.213 176.147 207.924C175.805 202.851 176.006 196.853 176.055 191.702Z"/><path fill="#E4BE86" d="M47.9136 431.945L63.9974 432.019C74.5311 432.003 85.495 432.141 95.9931 431.96C95.9943 442.398 96.1837 453.61 95.9694 463.988L80.4629 464.013L63.9942 464.037L64.0145 479.977C58.6811 480.073 53.3463 480.075 48.0128 479.982C47.8181 475.035 47.9332 469.123 47.9185 464.111L47.9136 431.945Z"/><path fill="#D1BCB2" d="M47.9185 464.111C53.276 463.973 58.6357 463.948 63.9942 464.037L64.0145 479.977C58.6811 480.073 53.3463 480.075 48.0128 479.982C47.8181 475.035 47.9332 469.123 47.9185 464.111Z"/><path fill="#F8725C" d="M47.8794 335.855C52.5631 336.141 58.6132 335.994 63.3986 336.014C63.009 340.065 64.0828 352.46 64.0647 357.873L63.9974 432.019L47.9136 431.945C48.0629 399.915 48.0515 367.885 47.8794 335.855Z"/><path fill="#A40E0C" d="M95.9959 351.997L112.011 352.003L112.01 432.014L95.9931 431.96L95.9959 351.997Z"/><path fill="#FAFCE3" d="M271.955 207.952L288.041 208.001C288.052 212.858 287.94 218.293 288.115 223.101L287.974 224.009L240.008 224.033L239.984 207.988L271.955 207.952Z"/><path fill="#E4BE86" d="M112.015 240.063C117.17 239.873 122.824 239.994 128.018 240.002L127.976 256.114L127.978 271.998L112.002 272.03L112.026 255.886C111.858 250.594 111.954 245.354 112.015 240.063Z"/><path fill="#FB9678" d="M127.915 224.013L144.027 224.014C144.004 229.001 143.813 235.136 144.091 240.03C143.722 245.034 143.864 250.807 143.871 255.881C138.707 255.95 133.103 255.927 127.976 256.114L128.018 240.002C127.825 234.834 127.923 229.216 127.915 224.013Z"/><path fill="#BE6742" d="M144.014 336.016L160.038 335.972L160.028 352.019L208.022 351.971L208.011 368.023L240.022 367.971L240.011 384.022L288.022 383.971L288.011 400.02L320.029 399.971L319.979 416.013C320.009 419.172 320.637 430.262 319.219 431.865L317.558 431.911C309.472 432.301 298.901 432.01 290.652 432.008L239.912 431.998L224.112 432.015C224.089 435.229 223.955 439.149 224.069 442.303C225.31 449.665 223.614 457.072 224.184 464.007L208.053 464.01L191.985 464.002L191.996 479.982C181.32 479.921 170.643 479.918 159.967 479.974L143.99 480.007L143.98 463.993L111.999 463.966L95.9694 463.988C96.1837 453.61 95.9943 442.398 95.9931 431.96L112.01 432.014L112.011 352.003L127.996 352.009L128.011 336.019L144.014 336.016Z"/><path fill="#AC4F2B" d="M144.014 336.016L160.038 335.972L160.028 352.019L208.022 351.971L208.011 368.023L240.022 367.971L240.011 384.022L288.022 383.971L288.011 400.02L320.029 399.971L319.979 416.013C320.009 419.172 320.637 430.262 319.219 431.865L317.558 431.911C312.838 431.44 305.333 431.635 300.499 431.635L272.036 431.636C271.952 426.487 271.998 421.184 271.986 416.023L255.995 416.003L255.981 400.028C239.988 399.938 223.994 399.931 208 400.007L207.982 384.025L159.995 384.006L159.969 368.024L127.996 368.001L127.996 352.009L128.011 336.019L144.014 336.016Z"/><path fill="#B6AF89" d="M95.9931 431.96L112.01 432.014L224.112 432.015C224.089 435.229 223.955 439.149 224.069 442.303C225.31 449.665 223.614 457.072 224.184 464.007L208.053 464.01L191.985 464.002L191.996 479.982C181.32 479.921 170.643 479.918 159.967 479.974L143.99 480.007L143.98 463.993L111.999 463.966L95.9694 463.988C96.1837 453.61 95.9943 442.398 95.9931 431.96Z"/><path fill="#AC4F2B" d="M143.98 463.993L191.985 464.002L191.996 479.982C181.32 479.921 170.643 479.918 159.967 479.974L143.99 480.007L143.98 463.993Z"/><path fill="#CBC0AC" d="M224.069 442.303C225.31 449.665 223.614 457.072 224.184 464.007L208.053 464.01L208.001 448.064C212.531 448.092 219.122 448.323 223.47 447.849C224.24 446.587 224.044 443.914 224.069 442.303Z"/><path fill="#AC4F2B" d="M304.011 256.03C306.819 256.004 318.013 255.615 319.947 256.504C319.952 261.208 319.785 267.299 320.085 271.891L320.381 272.024L335.966 272.006L335.978 288.015L351.973 288.006L351.958 303.908L351.99 320.042L352.014 336.012C357.132 336.087 362.252 336.014 367.366 335.793L367.506 351.951C351.773 352.142 335.744 351.995 319.987 352.007L319.976 336.028L287.987 336.007L287.977 320.028L239.972 320.007L239.967 304.028L191.976 304.007L191.904 288.021L208.009 288.016L208.014 272.019L224.047 272.023C250.487 272.02 277.63 271.682 304.006 272.019L304.011 256.03Z"/><path fill="#BE6742" d="M304.011 256.03C306.819 256.004 318.013 255.615 319.947 256.504C319.952 261.208 319.785 267.299 320.085 271.891L320.381 272.024L335.966 272.006L335.978 288.015L351.973 288.006L351.958 303.908L351.99 320.042C335.996 319.937 320.002 319.931 304.008 320.022L304.018 303.968L272.03 304.016L272.035 287.969L224.014 288.02L224.047 272.023C250.487 272.02 277.63 271.682 304.006 272.019L304.011 256.03Z"/><path fill="#A40E0C" d="M335.978 288.015L351.973 288.006L351.958 303.908C347.427 304.266 340.682 304.03 335.984 304.004L335.978 288.015Z"/><path fill="#FB9678" d="M304.011 256.03C306.819 256.004 318.013 255.615 319.947 256.504C319.952 261.208 319.785 267.299 320.085 271.891C315.331 272.181 308.897 272.009 304.006 272.019L304.011 256.03Z"/><path fill="#A40E0C" d="M320.381 272.024L335.966 272.006L335.978 288.015L319.968 288.01C319.905 284.419 319.572 275.098 320.381 272.024Z"/><path fill="#FB9678" d="M479.944 528.006L495.988 527.995L496 607.984L495.956 624.156L495.968 752.008L511.975 751.971L528.037 751.996L528.03 848.013C527.958 858.136 527.637 869.884 528.085 879.904L527.966 880.536L528.005 944.029L544.013 944.051C549.267 944.013 554.788 943.892 560.021 943.948L559.983 960.037L544.03 960.002C544.122 965.331 544.142 970.661 544.09 975.991L480.008 975.994L480.003 960.02C474.879 959.91 469.31 960.019 464.151 960.021C463.853 955.162 464.015 948.961 464.009 944.002L448.002 943.998C442.098 943.996 420.692 944.667 416.697 943.509C415.288 941.488 415.932 931.018 415.992 928.025C405.342 927.991 394.692 928.02 384.042 928.111C383.797 922.666 383.944 917.453 384.043 912.011C378.606 911.972 373.169 912.03 367.734 912.185C367.73 907.595 367.481 900.385 367.953 896.028C357.089 896.007 347.02 896.226 336.097 895.88C335.946 890.692 336.029 885.247 336.029 880.037C330.822 879.932 325.303 880.013 320.071 880.005C319.963 874.775 320.026 869.269 320.014 864.017L304.005 864.006L304.01 847.979L320.015 847.99L319.995 832.004L319.973 799.994L319.992 784.519C325.651 783.942 330.329 784.002 336.001 784.002L336.021 751.989L351.993 752.004L351.969 736.016L367.87 735.922C367.434 727.381 367.952 712.899 368.017 703.986L383.945 703.996L384.016 671.984L400 671.994L400.015 639.991L416.004 640.004L416.015 607.99L432.003 608.003L431.969 592.003L448.002 592.003L447.98 560.007L464 560.003L463.968 544.001L480.005 544.003L479.944 528.006Z"/><path fill="#BFF9F5" d="M479.944 528.006L495.988 527.995L496 607.984L495.956 624.156C487.062 623.632 473.027 624.042 464.047 624.175L447.998 624.013C448.007 626.638 448.188 637.89 447.898 639.855L448.222 640.008C447.737 644.572 447.921 651.982 447.976 656.708L447.988 688.079L447.974 719.961L447.993 752.107L447.971 815.948L447.983 847.994L400.015 848.015L400.018 831.987L368.015 832.015L368.018 815.997L352.125 816.014L336.011 816.002L335.998 800.189L335.68 800.059L319.973 799.994L319.992 784.519C325.651 783.942 330.329 784.002 336.001 784.002L336.021 751.989L351.993 752.004L351.969 736.016L367.87 735.922C367.434 727.381 367.952 712.899 368.017 703.986L383.945 703.996L384.016 671.984L400 671.994L400.015 639.991L416.004 640.004L416.015 607.99L432.003 608.003L431.969 592.003L448.002 592.003L447.98 560.007L464 560.003L463.968 544.001L480.005 544.003L479.944 528.006Z"/><path fill="#AC4F2B" d="M351.994 768.014L367.994 768.055L384.032 767.975L384.004 784.02L416.018 783.978L416.009 800.026L432.019 799.972L432.009 816.029C436.952 816.009 443.128 816.156 447.971 815.948L447.983 847.994L400.015 848.015L400.018 831.987L368.015 832.015L368.018 815.997L352.125 816.014L336.011 816.002L335.998 800.189L335.68 800.059C336.256 796.327 336.023 788.071 336.002 784.016L352.024 784.039L351.994 768.014Z"/><path fill="#BE4809" d="M335.998 800.189C341.602 799.94 346.422 799.918 352.013 799.976C352.035 805.045 351.928 811.016 352.125 816.014L336.011 816.002L335.998 800.189Z"/><path fill="#BE6742" d="M383.996 720.016L400.005 720.048L400.015 736.002L415.964 736.022L415.996 752.005C426.97 751.964 437.076 750.888 447.993 752.107L447.971 815.948C443.128 816.156 436.952 816.009 432.009 816.029L432.019 799.972L416.009 800.026L416.018 783.978L384.004 784.02L384.032 767.975L367.994 768.055C367.623 756.593 367.538 747.461 368.003 736.005L384.022 736.04L383.996 720.016Z"/><path fill="#AC4F2B" d="M399.998 704.014L416.025 704.062L432.041 703.974L432.026 720.018L447.974 719.961L447.993 752.107C437.076 750.888 426.97 751.964 415.996 752.005L415.964 736.022L400.015 736.002L400.005 720.048L399.998 704.014Z"/><path fill="#BE6742" d="M432.028 687.895C436.963 687.612 443.238 687.082 447.988 688.079L447.974 719.961L432.026 720.018L432.041 703.974L416.025 704.062L415.997 688.016C421.346 688.048 426.684 688.131 432.028 687.895Z"/><path fill="#F7E9A6" d="M463.984 591.997L479.987 591.98L480.009 608.016L496 607.984L495.956 624.156C487.062 623.632 473.027 624.042 464.047 624.175L463.984 591.997Z"/><path fill="#AC4F2B" d="M431.963 655.913C437.162 655.848 442.921 655.618 447.976 656.708L447.988 688.079C443.238 687.082 436.963 687.612 432.028 687.895L431.963 655.913Z"/><path fill="#BE4809" d="M432.04 640.103C437.649 639.858 442.272 639.752 447.898 639.855L448.222 640.008C447.737 644.572 447.921 651.982 447.976 656.708C442.921 655.618 437.162 655.848 431.963 655.913L432.04 640.103Z"/><path fill="#A40E0C" d="M448.222 640.008L464.006 639.998L464.01 880L432 880.003L431.986 864.007L383.999 864.004L383.986 848.007L351.999 848.004L351.986 832.007L319.995 832.004L319.973 799.994L335.68 800.059L335.998 800.189L336.011 816.002L352.125 816.014L368.018 815.997L368.015 832.015L400.018 831.987L400.015 848.015L447.983 847.994L447.971 815.948L447.993 752.107L447.974 719.961L447.988 688.079L447.976 656.708C447.921 651.982 447.737 644.572 448.222 640.008Z"/><path fill="#FB8973" d="M511.983 879.974C517.704 879.995 522.245 880.02 527.966 880.536L528.005 944.029L544.013 944.051C549.267 944.013 554.788 943.892 560.021 943.948L559.983 960.037L544.03 960.002C544.122 965.331 544.142 970.661 544.09 975.991L480.008 975.994L480.003 960.02C474.879 959.91 469.31 960.019 464.151 960.021C463.853 955.162 464.015 948.961 464.009 944.002L479.977 943.995L512.022 943.904C512.567 923.554 512.066 900.443 511.983 879.974Z"/><path fill="#D1BCB2" d="M480.003 960.02L544.03 960.002C544.122 965.331 544.142 970.661 544.09 975.991L480.008 975.994L480.003 960.02Z"/><path fill="#F8725C" d="M464.009 944.002L479.977 943.995L480.003 960.02C474.879 959.91 469.31 960.019 464.151 960.021C463.853 955.162 464.015 948.961 464.009 944.002Z"/><path fill="#F7E9A6" d="M495.968 752.008L511.975 751.971L528.037 751.996L528.03 848.013L496.01 848.014L495.981 832.042L495.968 752.008Z"/><path fill="#FCFCC2" d="M495.968 752.008L511.975 751.971L511.989 831.985L495.981 832.042L495.968 752.008Z"/><path fill="#FB8973" d="M383.943 895.442C386.398 896.479 411.752 895.965 416.15 895.74C416.059 901.144 416.034 906.548 416.073 911.951L415.992 928.025C405.342 927.991 394.692 928.02 384.042 928.111C383.797 922.666 383.944 917.453 384.043 912.011C378.606 911.972 373.169 912.03 367.734 912.185C367.73 907.595 367.481 900.385 367.953 896.028C372.881 896.002 378.988 896.118 383.826 895.902L383.943 895.442Z"/><path fill="#D1BCB2" d="M384.043 912.011C394.056 912.003 406.231 912.309 416.073 911.951L415.992 928.025C405.342 927.991 394.692 928.02 384.042 928.111C383.797 922.666 383.944 917.453 384.043 912.011Z"/><path fill="#D1BCB2" d="M367.953 896.028C372.881 896.002 378.988 896.118 383.826 895.902C384.281 901.024 383.956 906.815 384.043 912.011C378.606 911.972 373.169 912.03 367.734 912.185C367.73 907.595 367.481 900.385 367.953 896.028Z"/><path fill="#FB8973" d="M416.073 911.951C426.589 911.949 437.668 912.119 448.137 911.748C448.1 917.111 447.995 922.667 448.046 928.014L448.093 931.778L448.002 943.998C442.098 943.996 420.692 944.667 416.697 943.509C415.288 941.488 415.932 931.018 415.992 928.025L416.073 911.951Z"/><path fill="#D1BCB2" d="M415.992 928.025L448.046 928.014L448.093 931.778L448.002 943.998C442.098 943.996 420.692 944.667 416.697 943.509C415.288 941.488 415.932 931.018 415.992 928.025Z"/><path fill="#E4BE86" d="M496.01 848.014L528.03 848.013C527.958 858.136 527.637 869.884 528.085 879.904L527.966 880.536C522.245 880.02 517.704 879.995 511.983 879.974L512.021 863.981L495.902 864.013L496.01 848.014Z"/><path fill="#F8725C" d="M320.014 864.017L352.025 863.971L352.058 880.024L336.029 880.037C330.822 879.932 325.303 880.013 320.071 880.005C319.963 874.775 320.026 869.269 320.014 864.017Z"/><path fill="#D1BCB2" d="M352.058 880.024L368.013 880.013L367.953 896.028C357.089 896.007 347.02 896.226 336.097 895.88C335.946 890.692 336.029 885.247 336.029 880.037L352.058 880.024Z"/><path fill="#FB8973" d="M448.093 931.778C448.415 930.093 448.277 928.856 449.299 928.097C458.378 927.57 470.548 928.098 479.982 928.021C479.901 933.345 479.899 938.67 479.977 943.995L464.009 944.002L448.002 943.998L448.093 931.778Z"/><path fill="#FB8973" d="M495.902 864.013L512.021 863.981L511.983 879.974C506.66 879.978 501.336 880.063 496.015 880.23L495.902 864.013Z"/><path fill="#F8725C" d="M368.013 880.013L384.026 879.952C384.006 884.909 384.1 890.536 383.943 895.442L383.826 895.902C378.988 896.118 372.881 896.002 367.953 896.028L368.013 880.013Z"/><path fill="#FEFEFE" d="M495.981 320.018L528.013 319.982L527.999 367.985L560.007 368.002L559.982 352.018L592.003 352.001L591.982 336.018L608.003 336.001L607.982 320.022L640.013 319.982L639.999 336.003L623.963 336.004L623.995 352.002L607.963 352.005L607.995 368.002L591.974 368.004L591.996 400.002L575.95 400.008L575.982 415.982L624.013 415.982L624.006 431.986C650.233 432.02 677.951 431.673 704.038 431.993L735.878 431.987C735.956 437.336 735.997 442.686 736.003 448.036L703.965 448.004L703.985 464.06C677.083 463.696 650.811 464.108 623.966 464.005L623.996 480.002L559.974 480.005L560.001 495.985L576.017 495.98L576.007 527.985L592.014 527.981L592.007 559.985L608.022 559.98L608.008 591.985L624.018 591.988L624.007 623.985L640.014 623.988L640.007 655.985L656.014 655.989L656.004 704.006L639.999 704.022L639.989 671.996L623.999 672.024L623.989 639.996L607.999 640.024L607.989 607.996L591.999 608.024L591.989 575.996L575.997 576.024L575.989 559.996L559.997 560.024L559.985 543.996L543.997 544.024L543.985 527.997L527.971 528.008C528.179 543.874 528.006 560.11 528.01 576.004L511.976 576.013L512.005 608.003L496 607.984L495.988 527.995L479.944 528.006L480.005 544.003L463.968 544.001L464 560.003L447.98 560.007L448.002 592.003L431.969 592.003L432.003 608.003L416.015 607.99C415.903 591.998 415.892 576.006 415.981 560.014L431.998 560.001L431.976 528.014L448.001 528.001L447.972 496.018L463.997 495.999L463.986 479.997L415.997 480.023L415.987 463.996L351.999 464.022L351.972 432.018L399.985 431.998L399.972 416.018L463.997 416.002L463.986 399.996L447.997 400.023L447.986 383.996L431.997 384.022L431.99 367.995L415.997 368.022L415.989 351.996L399.995 352.023L399.997 336.003L432.022 335.985L432.02 351.986L448.021 351.984L448.008 367.986L495.997 368.001L495.981 320.018Z"/><path fill="#E4BE86" d="M591.963 47.6201C598.077 48.0687 605.931 47.7955 612.184 47.7642C621.458 47.7366 630.732 47.7744 640.005 47.8774L640.115 64.012C645.024 63.9992 650.566 64.1022 655.415 63.9369C656.265 68.6852 656.054 75.079 656.008 80.0129L655.992 95.9764L688.024 96.0091L703.996 96.0066L719.989 96.0226L735.968 96.0139L735.998 111.997L735.989 127.995L736.002 160.002L719.981 160.015L719.998 176.003L720.029 192.012L720.01 208.011L704.025 207.993L687.964 207.909L687.991 224.008L671.955 224.007L671.99 240.007L655.928 240.01L640.012 240.013L639.99 256.01L608.011 256.029L608.009 272.014L559.972 271.967L544.004 272.049L544.025 159.998L528.026 160.005L528.009 128.091L528.026 95.9668L528.036 80.0096L560.116 79.9667C559.816 75.2616 559.992 68.9384 559.986 64.1137C569.79 63.7274 582.128 64.0116 592.101 64.0002C591.945 58.5416 591.899 53.0805 591.963 47.6201Z"/><path fill="#E4BE86" d="M591.963 47.6201C598.077 48.0687 605.931 47.7955 612.184 47.7642C621.458 47.7366 630.732 47.7744 640.005 47.8774L640.115 64.012C645.024 63.9992 650.566 64.1022 655.415 63.9369C656.265 68.6852 656.054 75.079 656.008 80.0129L655.992 95.9764L623.97 96.0081L623.982 111.988L559.971 112.006L559.995 127.986C549.575 127.962 538.367 127.735 528.009 128.091L528.026 95.9668L528.036 80.0096L560.116 79.9667C559.816 75.2616 559.992 68.9384 559.986 64.1137C569.79 63.7274 582.128 64.0116 592.101 64.0002C591.945 58.5416 591.899 53.0805 591.963 47.6201Z"/><path fill="#BE4809" d="M591.963 47.6201C598.077 48.0687 605.931 47.7955 612.184 47.7642C621.458 47.7366 630.732 47.7744 640.005 47.8774L640.115 64.012C645.024 63.9992 650.566 64.1022 655.415 63.9369C656.265 68.6852 656.054 75.079 656.008 80.0129C624.323 79.6201 591.892 79.9956 560.116 79.9667C559.816 75.2616 559.992 68.9384 559.986 64.1137C569.79 63.7274 582.128 64.0116 592.101 64.0002C591.945 58.5416 591.899 53.0805 591.963 47.6201Z"/><path fill="#FCF2B7" d="M591.963 47.6201C598.077 48.0687 605.931 47.7955 612.184 47.7642C621.458 47.7366 630.732 47.7744 640.005 47.8774L640.115 64.012L592.101 64.0002C591.945 58.5416 591.899 53.0805 591.963 47.6201Z"/><path fill="#D49D5C" d="M655.992 95.9764L688.024 96.0091L688.033 112.009L672.003 112.077L672.021 128.016L624.01 128.028L624.013 144.016L592.003 144.028L592.008 160.016L544.025 159.998L528.026 160.005L528.009 128.091C538.367 127.735 549.575 127.962 559.995 127.986L559.971 112.006L623.982 111.988L623.97 96.0081L655.992 95.9764Z"/><path fill="#D49D5C" d="M671.979 192.008L687.984 191.985L687.964 207.909L687.991 224.008L671.955 224.007L671.99 240.007L655.928 240.01L640.012 240.013L639.99 256.01L608.011 256.029L608.009 272.014L559.972 271.967L559.936 256.006L575.98 255.995L575.965 240.008L607.993 239.989L607.97 224.008L655.994 223.994L655.968 208.008L671.998 207.997L671.979 192.008Z"/><path fill="#D0E4D2" d="M703.99 176.016L719.998 176.003L720.029 192.012L720.01 208.011L704.025 207.993L687.964 207.909L687.984 191.985L704.002 192.021L703.99 176.016Z"/><path fill="#AC4F2B" d="M719.989 96.0226L735.968 96.0139L735.998 111.997L704.001 112L703.996 96.0066L719.989 96.0226Z"/><path fill="#E4BE86" d="M479.811 95.8799C485.221 96.0104 490.633 95.9894 496.041 95.8169C495.77 117.089 495.985 138.717 496.004 160.014L479.978 160.007L479.981 207.833C453.325 208.037 426.668 208.088 400.011 207.984L384.005 208.02L367.996 208.029L368.002 191.998L304.016 191.99L300.065 192.067C290.7 191.996 281.334 191.984 271.969 192.032L255.988 192.033L255.977 176.228C257.897 176.172 259.834 176.02 261.752 175.891C265.417 175.758 268.444 175.82 272.116 175.948C271.76 171.47 271.964 164.743 271.966 160.098L304.109 159.987C314.712 159.882 325.414 159.985 336.025 160.012C335.942 154.724 336.002 149.298 336.003 143.997C346.308 143.746 357.67 143.989 368.113 143.944C367.784 139.126 367.968 132.89 367.979 127.968L432.093 127.899C431.79 123.064 431.973 116.967 431.989 112.04C447.888 111.739 464.014 112.033 480.005 111.837C479.773 106.919 479.858 100.883 479.811 95.8799Z"/><path fill="#D49D5C" d="M447.977 160.005L479.978 160.007L479.981 207.833C453.325 208.037 426.668 208.088 400.011 207.984L384.005 208.02L383.977 176.005L447.994 175.983L447.977 160.005Z"/><path fill="#C47933" d="M261.752 175.891C265.417 175.758 268.444 175.82 272.116 175.948C282.745 176.02 293.374 176.032 304.003 175.986L304.016 191.99L300.065 192.067C290.7 191.996 281.334 191.984 271.969 192.032L255.988 192.033L255.977 176.228C257.897 176.172 259.834 176.02 261.752 175.891Z"/><path fill="#AC4F2B" d="M191.996 479.982L223.996 479.97L224.012 496.02L271.995 495.977L271.998 512.023L303.989 511.97L303.984 528.025L335.994 527.973L336.006 544.014L368.019 543.974L368.01 560.019L383.591 560.012C383.435 563.31 382.942 568.725 383.888 571.792C383.916 574.15 384.325 574.068 383.198 575.488C379.198 576.827 372.715 575.907 367.917 575.998C367.94 582.374 368.258 591.418 367.927 597.576C367.822 595.95 367.984 594.552 366.975 593.39C362.984 591.007 356.917 591.936 351.988 592.004L319.997 592.01L319.984 576.034C304.097 575.856 287.913 576.012 272.002 576.007L271.985 560.032C261.404 559.911 250.592 560.015 239.994 560.008L239.983 544.02L207.984 544.02L207.996 528.01L208.044 512L208.01 495.987C202.685 495.957 197.359 495.96 192.034 495.994L191.996 479.982Z"/><path fill="#A40E0C" d="M271.887 544.013L288.084 544.022L304.036 543.99L304.015 560.015L336.036 559.996L336.015 576.015L352.026 575.99L351.988 592.004L319.997 592.01L319.984 576.034C304.097 575.856 287.913 576.012 272.002 576.007L271.985 560.032C261.404 559.911 250.592 560.015 239.994 560.008L239.983 544.02L256.245 544.022L271.887 544.013Z"/><path fill="#A40E0C" d="M207.996 528.01L240.02 527.993L239.983 544.02L207.984 544.02L207.996 528.01Z"/><path fill="#BE6742" d="M208.044 512C218.563 512.015 229.478 511.89 239.968 512.062L240.02 527.993L207.996 528.01L208.044 512Z"/><path fill="#BE4809" d="M240.02 527.993C245.323 527.975 250.778 527.897 256.068 527.953C256.094 533.13 256 538.895 256.245 544.022L239.983 544.02L240.02 527.993Z"/><path fill="#BE4809" d="M271.991 527.94L288.016 527.949L288.084 544.022L271.887 544.013L271.991 527.94Z"/><path fill="#BE6742" d="M224.184 464.007L239.976 464.027L303.952 464.013L303.979 480.049L383.956 480.014L383.984 496.051L399.955 496.013L399.976 527.998L383.925 528C384.084 542.597 384.072 557.195 383.888 571.792C382.942 568.725 383.435 563.31 383.591 560.012L368.01 560.019L368.019 543.974L336.006 544.014L335.994 527.973L303.984 528.025L303.989 511.97L271.998 512.023L271.995 495.977L224.012 496.02L223.996 479.97L191.996 479.982L191.985 464.002L208.053 464.01L224.184 464.007Z"/><path fill="#E4BE86" d="M608.011 256.029L639.99 256.01L639.991 272.015L623.963 272.017L623.995 288.016L607.959 288.02L607.996 304.015L591.964 304.017L592.001 320.016L575.964 320.018L575.998 336.018L544.016 336.006L544.001 287.937L544.004 272.049L559.972 271.967L608.009 272.014L608.011 256.029Z"/><path fill="#D49D5C" d="M544.004 272.049L559.972 271.967L560.01 288.025C554.74 287.997 549.251 288.049 544.001 287.937L544.004 272.049Z"/><path fill="#E4BE86" d="M400.011 207.984C426.668 208.088 453.325 208.037 479.981 207.833C479.971 228.904 480.317 251.088 479.943 272.066C469.592 271.774 458.411 271.996 447.999 272.011L432.063 271.964L432.006 256.001L432.008 240.002L416.001 240.028L416.005 224.002L400.001 224.028L400.011 207.984Z"/><path fill="#BE4809" d="M432.006 256.001L448.003 255.991L447.999 272.011L432.063 271.964L432.006 256.001Z"/><path fill="#BE6742" d="M304.016 191.99L368.002 191.998L367.996 208.029L384.005 208.02L400.011 207.984L400.001 224.028L416.005 224.002L416.001 240.028L432.008 240.002L432.006 256.001L416.103 255.985L400.02 255.987L400.013 239.996L383.98 239.971L368.109 239.965C368.047 234.643 368.013 229.32 368.006 223.997L352.021 223.986L336.039 223.998L336.028 207.991L304.031 207.998L304.016 191.99Z"/><path fill="#FAFCE3" d="M368.109 239.965L383.98 239.971L400.013 239.996L400.02 255.987L416.103 255.985L432.006 256.001L432.063 271.964L432.023 303.979L399.997 304.045L400.009 271.993L367.993 272.045L368.056 255.996C367.922 250.902 367.752 245.001 368.109 239.965Z"/><path fill="#FCFCC2" d="M383.98 239.971L400.013 239.996L400.02 255.987L416.103 255.985C415.827 261.243 415.976 266.775 416.025 272.06L399.978 271.97L400.006 256.049L383.962 256.128C384.025 250.743 384.031 245.357 383.98 239.971Z"/><path fill="#FCFCC2" d="M432.063 271.964L447.999 272.011L448.021 287.992L463.869 287.982C463.961 293.358 464.001 298.735 463.99 304.112L447.968 304.068L448.073 320.015L431.994 320.051L432.023 303.979L432.063 271.964Z"/><path fill="#FEFEFE" d="M351.985 704.018L368.017 703.986C367.952 712.899 367.434 727.381 367.87 735.922L351.969 736.016L351.993 752.004L336.021 751.989L335.979 720.014L352.005 720.001L351.985 704.018Z"/><path fill="#E4BE86" d="M287.964 239.941C298.476 239.527 309.397 239.975 319.982 239.901L319.947 256.504C318.013 255.615 306.819 256.004 304.011 256.03L287.554 256.008C287.596 250.65 287.732 245.294 287.964 239.941Z"/><path fill="#FAFCE3" d="M463.99 304.112C469.324 304.01 474.66 303.965 479.995 303.979L480.001 320.015L448.073 320.015L447.968 304.068L463.99 304.112Z"/><path fill="#FEFEFE" d="M399.977 608.02L416.015 607.99L416.004 640.004L400.015 639.991L399.977 608.02Z"/><path fill="#FEFEFE" d="M383.982 640.025L400.015 639.991L400 671.994L384.016 671.984L383.982 640.025Z"/><path fill="#FEFEFE" d="M367.982 672.027L384.016 671.984L383.945 703.996L368.017 703.986L367.982 672.027Z"/><path fill="#BE6742" d="M447.999 272.011C458.411 271.996 469.592 271.774 479.943 272.066L479.977 287.998L463.869 287.982L448.021 287.992L447.999 272.011Z"/><path fill="#FEFEFE" d="M319.988 751.98L336.021 751.989L336.001 784.002C330.329 784.002 325.651 783.942 319.992 784.519L319.988 751.98Z"/><path fill="#FCFCC2" d="M352.021 223.986L368.006 223.997C368.013 229.32 368.047 234.643 368.109 239.965C367.752 245.001 367.922 250.902 368.056 255.996L351.977 256.048L352.021 223.986Z"/><path fill="#D1BCB2" d="M224.112 432.015L239.912 431.998L239.976 464.027L224.184 464.007C223.614 457.072 225.31 449.665 224.069 442.303C223.955 439.149 224.089 435.229 224.112 432.015Z"/><path fill="#D0E4D2" d="M271.969 192.032C281.334 191.984 290.7 191.996 300.065 192.067C296.662 192.808 292.285 192.579 288.728 192.557C288.89 197.569 288.732 218.696 288.115 223.101C287.94 218.293 288.052 212.858 288.041 208.001L271.955 207.952C271.759 203.181 271.947 196.916 271.969 192.032Z"/><path fill="#FEFEFE" d="M383.984 320.027L400.013 319.989L399.997 336.003L383.997 336.019L383.984 320.027Z"/><path fill="#E4BE86" d="M640.012 240.013L655.928 240.01L655.997 256.022L639.99 256.01L640.012 240.013Z"/><defs><linearGradient id="gradient_0" gradientUnits="userSpaceOnUse" x1="783.62305" y1="1020.2158" x2="799.22955" y2="868.21997"><stop offset="0" stop-color="#FFFFE7"/><stop offset="1" stop-color="#E6FCF2"/></linearGradient></defs><path fill="url(#gradient_0)" d="M751.986 864.037L767.813 863.841C768.027 874.552 768.105 885.266 768.047 895.979C772.921 895.952 779.51 895.743 784.254 895.947C783.943 901.463 783.985 906.466 784.021 911.981C788.599 911.949 795.507 912.103 799.885 911.592C800.055 922.39 800.104 933.189 800.033 943.987L815.954 943.867L816.018 975.996L831.977 975.929C832.269 986.61 832.295 997.297 832.053 1007.98C851.13 1007.61 847.688 1006.16 847.954 1024L800.049 1024L767.98 1024C767.776 1008.88 767.756 993.758 767.919 978.638C767.941 961.893 767.247 944.597 767.809 927.922C762.667 928.043 757.228 927.899 752.063 927.846C751.838 923.213 752.005 916.749 752.001 911.982C746.613 912.035 741.558 912.13 736.17 911.796C735.186 904.69 735.827 888.282 735.986 880.424L736.02 864.006L751.986 864.037Z"/><path fill="#FEFEFE" d="M767.919 978.638L768.692 975.107C772.033 976.411 780.164 975.992 784.006 976.02C784.081 981.337 784.125 986.654 784.139 991.971C789.351 991.986 794.83 991.911 800.018 992.055L800.049 1024L767.98 1024C767.776 1008.88 767.756 993.758 767.919 978.638Z"/><defs><linearGradient id="gradient_1" gradientUnits="userSpaceOnUse" x1="200.25104" y1="1033.4434" x2="282.56284" y2="862.60303"><stop offset="0" stop-color="#FFD"/><stop offset="1" stop-color="#E7FBF8"/></linearGradient></defs><path fill="url(#gradient_1)" d="M272.079 847.989L304.01 847.979L304.005 864.006L320.014 864.017C320.026 869.269 319.963 874.775 320.071 880.005L303.935 880.046L303.559 880.01L303.44 896.019L287.54 896.352C288.272 901.729 287.38 906.236 288.109 911.962C283.032 912.06 276.643 912.354 271.673 912.039C272.379 921.409 271.583 934.076 271.992 944.212C266.469 943.994 261.561 943.995 256.045 944.057C256.033 954.468 256.203 965.656 255.965 976.005C250.663 975.995 245.361 976.055 240.06 976.185L240.038 991.981C234.999 992.03 229.577 992.174 224.569 992.104L224.5 1024L175.8 1024C175.462 1020.16 175.905 1012.59 176.028 1008.47C181.296 1008.6 186.808 1008.49 192.095 1008.46C192.027 1003 191.334 979.852 192.984 976.034C195.275 975.399 205.319 975.924 208.385 976.007C207.855 971.322 208.233 964.422 208.434 959.561C212.814 960.306 219.621 959.903 224.094 959.612C223.597 949.942 224.004 937.543 224.101 927.66C229.012 928.101 235.122 927.933 240.14 927.925C239.874 923.481 239.422 899.33 241.025 895.792C243.806 895.43 252.473 895.964 256.076 895.968C255.82 886.873 255.939 876.779 256.046 867.707C255.794 861.674 256.004 854.137 256.009 847.99L272.079 847.989Z"/><path fill="#D0E4D2" d="M272.079 847.989L304.01 847.979L304.005 864.006L288.017 863.995C282.799 863.98 260.635 863.234 256.81 864.174C256.15 865.641 256.189 866.139 256.046 867.707C255.794 861.674 256.004 854.137 256.009 847.99L272.079 847.989Z"/><path fill="#FAFCE3" d="M304.005 864.006L320.014 864.017C320.026 869.269 319.963 874.775 320.071 880.005L303.935 880.046L303.559 880.01C298.37 879.951 293.18 879.993 287.993 880.134L288.017 863.995L304.005 864.006Z"/><path fill="#D1BCB2" d="M304.005 864.006L320.014 864.017C320.026 869.269 319.963 874.775 320.071 880.005L303.935 880.046C303.905 874.699 303.929 869.352 304.005 864.006Z"/><defs><linearGradient id="gradient_2" gradientUnits="userSpaceOnUse" x1="199.99184" y1="-8.8207159" x2="279.88177" y2="169.15302"><stop offset="0" stop-color="#FEFFDF"/><stop offset="1" stop-color="#E9FBFC"/></linearGradient></defs><path fill="url(#gradient_2)" d="M175.887 0L224.026 0L224.04 31.9894L239.986 31.8633L239.995 63.699C245.453 63.9739 250.481 63.9281 255.936 63.8872C255.967 68.892 256.138 74.6417 255.893 79.5863C261.221 79.8103 266.555 79.8808 271.887 79.7977C272.077 90.3739 272.096 100.952 271.944 111.529C277.107 112.075 282.279 111.931 287.472 111.901C287.77 116.358 288.164 123.51 287.587 127.854C293.071 127.704 298.543 127.972 303.993 127.822L304.109 159.987L271.966 160.098L271.999 143.981L256.509 144.016C256.382 138.612 256.35 133.206 256.412 127.801C251.643 127.893 244.472 128.024 239.901 127.475C239.971 117.255 239.523 106.127 239.989 96.0472C234.86 96.1797 229.25 96.0054 224.086 95.9454C223.499 90.2287 223.637 85.9449 223.972 80.2331L208.007 80.0243C207.911 69.3854 207.909 58.7458 208 48.1067L192.05 48.0789C191.921 42.9144 192.012 37.2621 192.005 32.0616C186.687 32.1371 181.369 32.0875 176.054 31.9131C175.409 24.4262 175.857 7.85464 175.887 0Z"/><path fill="#CBC0AC" d="M752.008 784.009L783.836 783.985C784.169 789.013 783.943 794.84 783.87 799.937L767.953 799.942C767.95 804.798 768.127 811.31 767.855 816.026L783.996 815.995L784 832.079C784.021 837.398 784.013 842.716 783.973 848.034C774.06 848.056 761.88 848.461 752.147 848.046C752.03 853.376 751.976 858.706 751.986 864.037L736.02 864.006L735.986 880.424C730.904 880.49 725.066 880.228 719.927 880.11C714.912 879.96 709.151 880.083 704.08 880.086C703.917 874.931 704.021 869.34 704.017 864.15L704.004 848.034C704.13 842.694 704.154 837.352 704.077 832.012C703.799 826.896 703.961 821.13 703.994 815.96L719.996 816.004L720.016 799.987C724.015 800 750.395 800.597 751.894 799.282L751.903 797.217C752.142 793.314 751.999 788.016 752.008 784.009Z"/><path fill="#FCFCC2" d="M752.008 784.009L783.836 783.985C784.169 789.013 783.943 794.84 783.87 799.937L767.953 799.942C767.95 804.798 768.127 811.31 767.855 816.026L751.998 816.03L752.002 831.998L735.998 831.991L736.001 848.017L720.076 848.031L704.004 848.034C704.13 842.694 704.154 837.352 704.077 832.012C703.799 826.896 703.961 821.13 703.994 815.96L719.996 816.004L720.016 799.987C724.015 800 750.395 800.597 751.894 799.282L751.903 797.217C752.142 793.314 751.999 788.016 752.008 784.009Z"/><path fill="#FAFCE3" d="M719.961 832.083L735.998 831.991L736.001 848.017L720.076 848.031L719.961 832.083Z"/><path fill="#FB9678" d="M767.855 816.026L783.996 815.995L784 832.079C775.008 831.616 761.321 832.002 752.002 831.998L751.998 816.03L767.855 816.026Z"/><path fill="#BFF9F5" d="M719.988 864.092C723.853 863.796 731.905 864.006 736.02 864.006L735.986 880.424C730.904 880.49 725.066 880.228 719.927 880.11L719.988 864.092Z"/><path fill="#D1BCB2" d="M704.017 864.15C709.409 864.274 714.601 864.183 719.988 864.092L719.927 880.11C714.912 879.96 709.151 880.083 704.08 880.086C703.917 874.931 704.021 869.34 704.017 864.15Z"/><path fill="#FCF2B7" d="M655.677 48.0102C668.957 47.1332 690.484 47.38 704.102 47.6162C704.216 53.0457 704.221 58.4771 704.117 63.9068C720.076 63.8023 736.036 63.794 751.996 63.8821L752.114 79.9459C757.397 79.7411 763.049 80.0137 768.11 79.7581C768.013 90.5143 767.988 101.271 768.035 112.028L751.975 112.057L751.885 117.676L751.971 127.702C748.672 128.232 739.694 127.988 735.989 127.995L735.998 111.997L735.968 96.0139L719.989 96.0226L703.996 96.0066L688.024 96.0091L655.992 95.9764L656.008 80.0129C656.054 75.079 656.265 68.6852 655.415 63.9369L656.009 63.8903C655.69 58.6379 656.044 52.9713 655.677 48.0102Z"/><path fill="#FB9678" d="M656.009 63.8903C672.118 63.897 687.89 63.1777 703.999 64.0547L703.927 79.9085L703.661 80.0281C704.282 83.1334 704.006 92.3014 703.996 96.0066L688.024 96.0091L655.992 95.9764L656.008 80.0129C656.054 75.079 656.265 68.6852 655.415 63.9369L656.009 63.8903Z"/><path fill="#AC4F2B" d="M656.008 80.0129L703.661 80.0281C704.282 83.1334 704.006 92.3014 703.996 96.0066L688.024 96.0091L655.992 95.9764L656.008 80.0129Z"/><path fill="#FB9678" d="M735.968 96.0139L752.008 96.0026L751.975 112.057L751.885 117.676L751.971 127.702C748.672 128.232 739.694 127.988 735.989 127.995L735.998 111.997L735.968 96.0139Z"/><path fill="#AC4F2B" d="M735.998 111.997C739.968 111.977 747.494 111.726 751.162 112.26C751.927 113.649 751.818 115.98 751.885 117.676L751.971 127.702C748.672 128.232 739.694 127.988 735.989 127.995L735.998 111.997Z"/><path fill="#FB8973" d="M703.927 79.9085C709.346 80.1069 714.58 80.0496 719.997 80.0078L719.989 96.0226L703.996 96.0066C704.006 92.3014 704.282 83.1334 703.661 80.0281L703.927 79.9085Z"/><path fill="#F7E9A6" d="M945.834 464.184C950.805 464.012 955.002 463.905 960.006 464.079L960.111 509.433C960.133 515.427 959.898 522.229 960.152 528.127C954.763 528.032 949.373 528.037 943.983 528.143L944.061 591.94C938.706 592.05 933.35 592.098 927.994 592.082L928.021 656.059L912.01 656.067C911.892 634.189 912.62 614.041 911.974 591.984L911.975 544.066L928.009 543.954L928.003 512.05L944.006 512.012C944.242 496.349 944.021 480.162 944.005 464.458L945.834 464.184Z"/><path fill="#FAFCE3" d="M496.111 0L527.889 0C527.999 18.1552 528.583 40.5574 527.937 58.4799C528.052 65.6559 528.084 72.8329 528.036 80.0096L528.026 95.9668C517.364 96.0013 506.702 95.9513 496.041 95.8169C495.668 79.4527 496.071 61.2511 496.069 44.7074C495.599 31.3437 495.939 13.4091 496.111 0Z"/><path fill="#D0E4D2" d="M496.069 44.7074L496.941 47.8453C501.321 48.4477 507.325 47.9498 511.944 48.13L512.012 64.0158L527.429 63.985L527.937 58.4799C528.052 65.6559 528.084 72.8329 528.036 80.0096L528.026 95.9668C517.364 96.0013 506.702 95.9513 496.041 95.8169C495.668 79.4527 496.071 61.2511 496.069 44.7074Z"/><path fill="#D1BCB2" d="M655.961 864.011L687.605 864.079C692.5 864.088 699.287 863.869 704.017 864.15C704.021 869.34 703.917 874.931 704.08 880.086C704.084 885.377 704.06 890.667 704.007 895.957C693.338 896.036 682.669 896.06 672.001 896.028C672.006 901.266 672.094 906.801 671.994 912.013L639.999 912.071L639.988 896L639.972 880.572C645.764 879.956 650.216 879.988 656.003 880L655.961 864.011Z"/><path fill="#FB9678" d="M655.961 864.011L687.605 864.079C692.5 864.088 699.287 863.869 704.017 864.15C704.021 869.34 703.917 874.931 704.08 880.086C690.144 879.36 670.389 879.993 656.003 880L655.961 864.011Z"/><path fill="#FB9678" d="M639.972 880.572C645.764 879.956 650.216 879.988 656.003 880L656.008 896.022L639.988 896L639.972 880.572Z"/><path fill="#BE6742" d="M239.981 175.888C246.971 175.599 254.776 175.503 261.752 175.891C259.834 176.02 257.897 176.172 255.977 176.228L255.988 192.033L271.969 192.032C271.947 196.916 271.759 203.181 271.955 207.952L239.984 207.988L208.028 207.971L208.024 191.983C218.417 192.198 229.578 192.015 240.023 192.019C239.976 186.643 239.962 181.265 239.981 175.888Z"/><path fill="#BFF9F5" d="M303.941 799.646L304.049 799.976L319.973 799.994L319.995 832.004L288.281 832.026C287.766 828.292 288.054 820.704 288.111 816.695L288.033 816.052L287.95 799.988C292.565 799.994 299.6 800.22 303.941 799.646Z"/><path fill="#D0E4D2" d="M303.941 799.646L304.049 799.976C304.029 805.265 303.94 810.754 304.012 816.025C300.991 815.99 290.056 815.445 288.111 816.695L288.033 816.052L287.95 799.988C292.565 799.994 299.6 800.22 303.941 799.646Z"/><path fill="#CBC0AC" d="M272.046 832.031L288.281 832.026L319.995 832.004L320.015 847.99L304.01 847.979L272.079 847.989C271.899 842.852 272.029 837.207 272.046 832.031Z"/><path fill="#E4BE86" d="M639.991 864.005L655.961 864.011L656.003 880C650.216 879.988 645.764 879.956 639.972 880.572L639.687 880.165C640.245 876.625 640.009 867.896 639.991 864.005Z"/><path fill="#D1BCB2" d="M448.002 943.998L464.009 944.002C464.015 948.961 463.853 955.162 464.151 960.021C458.739 959.981 453.326 960.03 447.916 960.167L448.002 943.998Z"/></svg>