<?xml version="1.0" encoding="utf-8" ?><svg xmlns="http://www.w3.org/2000/svg" xmlns:xlink="http://www.w3.org/1999/xlink" width="1024" height="1024" viewBox="0 0 1024 1024"><path fill="#832424" d="M223.997 0L256.002 0L767.994 0L800.017 0C800.005 5.22855 800.095 10.83 799.977 16.0268L799.977 32.1153L799.993 48.018C807.403 47.9963 825.332 47.5162 831.982 48.4808L831.995 80.0207C842.445 80.0173 853.566 79.8271 863.962 80.0261L863.981 96.1208L863.995 128.021L879.995 127.997L879.989 192.019L895.645 191.993C896.105 197.331 896.018 202.659 896.02 208.016L880.035 207.988L863.995 208.007L864.009 255.996L848.004 256.003C847.967 261.124 847.802 266.832 848.037 271.903L848.362 272.025C847.835 274.527 847.507 285.646 848.039 287.991C847.955 293.333 847.955 298.677 848.039 304.019L832.002 304.013L832.043 320.014L815.997 320.014L816.033 336.016L800.01 336.019L800.047 367.979C810.587 367.935 821.683 367.055 832.012 368.044L832.011 383.951C837.342 384.004 842.674 384.012 848.005 383.974C858.567 384.142 869.571 383.753 879.999 384.045L880.062 399.941L896.016 400.003L911.968 400.027L912.011 416.008L912.004 432.004L895.941 431.974C895.957 436.598 896.18 443.478 895.898 447.915L896.238 448.012C895.732 451.852 895.978 459.846 896.005 463.986L895.98 480.003L880.037 479.996L848.007 479.984L848.005 511.997L831.952 511.976L831.992 559.866L831.98 592.197L831.979 608.028L847.996 608.005L864.085 607.981C868.137 608.041 876.201 608.313 879.946 607.628L880.059 607.853C883.338 607.353 892.465 607.598 896.003 607.944C900.633 608.188 907.226 608.008 912.005 608.005L911.99 576.01L960.106 576.05L960.055 592.018L960.016 624.319L959.995 736.007L944 736.054L943.981 752.613C943.964 783.789 943.332 817.15 944.021 848.071L928.014 848.003L928.022 880.013L896.016 879.994C896.023 885.292 895.958 890.758 896.093 896.041L815.991 896.009L816.023 912.116C795.528 911.808 772.533 911.626 752.084 912.024L752.002 928.106C731.696 927.751 708.244 927.596 687.989 928.021C688.012 932.984 688.22 939.373 687.888 944.225C677.197 943.776 665.326 944.002 654.56 943.999L600.441 943.983L432.08 943.998C432.028 938.816 431.908 933.508 432.051 928.338L431.918 928.093L368.048 928.039L368.009 944.011L336 943.996L335.99 927.997L271.998 928.011L271.971 912.001L271.961 896.408L272.079 896.055C271.831 890.87 271.967 885.204 271.992 879.978L255.997 880.018L255.988 864.035C255.66 842.695 255.65 821.351 255.956 800.01L271.994 799.994L271.976 768.005L287.994 767.994L288.021 736.018L287.796 735.156C287.057 731.471 287.442 708.68 287.486 703.961C282.669 703.79 277.166 703.952 272.298 703.982C272.401 707.546 272.844 716.939 272.125 720.04C271.78 716.793 271.983 707.686 271.984 703.997L256.017 703.99L256.005 687.987L240.039 687.957L240.019 671.989L208.399 671.962C207.788 667.278 208.004 660.846 208.02 655.996C202.714 656.024 197.272 656.219 192.063 655.219L192.059 639.888L192.044 623.973L192.034 608.016L175.975 607.974C171.786 607.941 167.48 607.997 163.322 607.577C167.344 607.181 171.859 607.386 175.937 607.463C176.336 575.908 175.978 543.612 175.969 511.998L175.992 496.007C162.139 494.663 140.883 498.005 128 495.383L128.016 479.98L128.002 464.002L112.026 463.979L111.992 448.032L97.8137 447.899C101.879 447.116 107.143 447.35 111.273 447.722C111.991 442.206 111.983 437.565 111.995 432.026L111.957 416.017L128.011 416.003L128.046 399.43C133.352 399.985 138.692 400.146 144.022 399.911C151.355 399.18 168.84 398.838 176.02 400.026C175.849 394.78 175.973 389.26 176.009 383.992L159.961 384.025L160.014 367.988C171.61 368.144 179.693 367.284 192.018 368.062L192.015 384.002L208.014 384L207.996 368.012L223.985 367.999L224.003 336.007L191.988 336.461L192.015 304L176.008 304.037L176.015 287.99L176.085 272.01C170.77 271.956 165.35 272.013 160.025 272.016C159.952 256.016 159.992 240.015 160.147 224.016C154.883 223.921 149.287 224.014 143.997 224.022C144.004 218.685 144.06 213.349 144.164 208.014L128.003 207.918L128.014 192.001L144.015 192.01L144.002 128.01L160.016 128.01C159.979 120.419 160.006 112.828 160.096 105.238L160.011 96.1656L160.007 80.0118C165.362 80.042 170.718 80.0128 176.073 79.9243L176.693 80.0439L192.029 80.0163L192.005 64.0693L192.024 48.0308L224.023 48.0073L224.003 32.0673L224.017 16.0237L223.997 0Z"/><path fill="#F0E8DD" d="M911.99 576.01L960.106 576.05L960.055 592.018L960.016 624.319L959.995 736.007L944 736.054L943.981 752.613C943.964 783.789 943.332 817.15 944.021 848.071L928.014 848.003L928.022 880.013L896.016 879.994C896.023 885.292 895.958 890.758 896.093 896.041L815.991 896.009L816.023 912.116C795.528 911.808 772.533 911.626 752.084 912.024L752.002 928.106C731.696 927.751 708.244 927.596 687.989 928.021C688.012 932.984 688.22 939.373 687.888 944.225C677.197 943.776 665.326 944.002 654.56 943.999L600.441 943.983L432.08 943.998C432.028 938.816 431.908 933.508 432.051 928.338L431.918 928.093L368.048 928.039L368.009 944.011L336 943.996L335.99 927.997L271.998 928.011L271.971 912.001L271.961 896.408L272.079 896.055C271.831 890.87 271.967 885.204 271.992 879.978L255.997 880.018L255.988 864.035C255.66 842.695 255.65 821.351 255.956 800.01L271.994 799.994L271.976 768.005L287.994 767.994L288.021 736.018L319.968 736.011L320.001 719.959L367.969 720.003L448.04 719.967L479.997 719.983L496.019 719.994L496.012 735.932C506.559 736.106 517.108 736.121 527.656 735.978L527.973 736.057C537.729 735.392 550.05 735.875 559.983 736.025L559.969 719.992L575.965 719.973L575.973 703.977L703.986 703.984L703.966 687.997L746.838 688.028C751.897 688.03 763.511 688.323 767.983 687.629L767.929 671.996L783.994 671.992L799.927 671.985L815.634 671.945L815.971 672.05C821.318 672.002 826.666 671.986 832.014 672.004L831.981 655.955L831.877 623.99L847.156 623.961C848.252 620.587 848.009 611.89 847.996 608.005L864.085 607.981C868.137 608.041 876.201 608.313 879.946 607.628L880.059 607.853C883.338 607.353 892.465 607.598 896.003 607.944C900.633 608.188 907.226 608.008 912.005 608.005L911.99 576.01Z"/><path fill="#D8C5B2" d="M911.99 576.01L960.106 576.05L960.055 592.018L960.016 624.319L959.995 736.007L944 736.054L943.981 752.613C943.964 783.789 943.332 817.15 944.021 848.071L928.014 848.003L928.022 880.013L896.016 879.994C896.023 885.292 895.958 890.758 896.093 896.041L815.991 896.009L816.023 912.116C795.528 911.808 772.533 911.626 752.084 912.024C751.896 907.009 752.003 901.087 751.984 896.006L799.997 896.008L799.997 879.991L832.153 880.005C831.79 870.057 832.045 858.095 832.031 847.996L800.007 848.006L799.987 832.034L816.002 832.013L815.996 816.011L832 816.013L831.984 800.012L848.006 800.012L848.019 784.005L832.002 783.993L831.991 768.013L864 768.013L863.989 720.012L880.004 720.013L879.987 688.014L895.984 688.022L895.988 672.04C896.018 667.372 896.262 660.489 895.809 656.007L896.216 655.817C896.527 650.658 895.847 645.759 896.354 640.029L895.915 639.939C896.22 636.481 895.995 627.849 895.99 624.021L896.003 607.944C900.633 608.188 907.226 608.008 912.005 608.005L911.99 576.01Z"/><path fill="#D8C5B2" d="M911.99 576.01L960.106 576.05L960.055 592.018L960.016 624.319L959.995 736.007L944 736.054L943.981 752.613C940.191 751.655 932.2 751.971 927.976 752.013L928.004 768.046C923.195 767.846 916.896 768.006 912.001 768.003L912.004 704.015L895.951 703.992L895.984 688.022L895.988 672.04C896.018 667.372 896.262 660.489 895.809 656.007L896.216 655.817C896.527 650.658 895.847 645.759 896.354 640.029L895.915 639.939C896.22 636.481 895.995 627.849 895.99 624.021L896.003 607.944C900.633 608.188 907.226 608.008 912.005 608.005L911.99 576.01Z"/><path fill="#C7AF99" d="M895.988 672.04L911.999 671.996L911.991 688.019L927.994 687.968L927.978 720.214L943.985 719.997L944 736.054L943.981 752.613C940.191 751.655 932.2 751.971 927.976 752.013L928.004 768.046C923.195 767.846 916.896 768.006 912.001 768.003L912.004 704.015L895.951 703.992L895.984 688.022L895.988 672.04Z"/><path fill="#BBA08B" d="M927.945 735.964C933.297 735.947 938.648 735.977 944 736.054L943.981 752.613C940.191 751.655 932.2 751.971 927.976 752.013L927.945 735.964Z"/><path fill="#B9493A" d="M944.006 624.04C949.301 624.05 954.744 623.972 960.016 624.319L959.995 736.007L944 736.054L943.985 719.997L944.006 624.04Z"/><path fill="#BBA08B" d="M943.977 592.003L960.055 592.018L960.016 624.319C954.744 623.972 949.301 624.05 944.006 624.04L943.977 592.003Z"/><path fill="#BBA08B" d="M896.354 640.029L912.004 639.966L912.008 656.011C907.405 656.015 900.638 656.219 896.216 655.817C896.527 650.658 895.847 645.759 896.354 640.029Z"/><path fill="#C7AF99" d="M927.976 752.013C932.2 751.971 940.191 751.655 943.981 752.613C943.964 783.789 943.332 817.15 944.021 848.071L928.014 848.003L928.022 880.013L896.016 879.994C896.023 885.292 895.958 890.758 896.093 896.041L815.991 896.009L816.023 912.116C795.528 911.808 772.533 911.626 752.084 912.024C751.896 907.009 752.003 901.087 751.984 896.006L799.997 896.008L799.997 879.991L832.153 880.005C831.79 870.057 832.045 858.095 832.031 847.996L895.996 847.992L895.954 832.004L911.982 831.986L911.964 784.004L927.986 783.998L928.004 768.046L927.976 752.013Z"/><path fill="#B9493A" d="M911.989 848.004L928.014 848.003L928.022 880.013L896.016 879.994C896.023 885.292 895.958 890.758 896.093 896.041L815.991 896.009L816.023 912.116C795.528 911.808 772.533 911.626 752.084 912.024C751.896 907.009 752.003 901.087 751.984 896.006L799.997 896.008L799.997 879.991L832.153 880.005L863.994 880.011L863.982 864.006L911.999 864.009L911.989 848.004Z"/><path fill="#B9493A" d="M927.976 752.013C932.2 751.971 940.191 751.655 943.981 752.613C943.964 783.789 943.332 817.15 944.021 848.071L928.014 848.003L927.986 783.998L928.004 768.046L927.976 752.013Z"/><path fill="#D8C5B2" d="M783.999 847.963L800.007 848.006L832.031 847.996C832.045 858.095 831.79 870.057 832.153 880.005L799.997 879.991L799.997 896.008L751.984 896.006C752.003 901.087 751.896 907.009 752.084 912.024L752.002 928.106C731.696 927.751 708.244 927.596 687.989 928.021C688.012 932.984 688.22 939.373 687.888 944.225C677.197 943.776 665.326 944.002 654.56 943.999L600.441 943.983L432.08 943.998C432.028 938.816 431.908 933.508 432.051 928.338L431.918 928.093L368.048 928.039L368.009 944.011L336 943.996L335.99 927.997L271.998 928.011L271.971 912.001L271.961 896.408L272.079 896.055C271.831 890.87 271.967 885.204 271.992 879.978L255.997 880.018L255.988 864.035L319.985 863.983L319.98 880.033L351.983 879.983L351.98 896.029L624.005 896.008L623.985 880.008L736.01 880.009L735.994 864.013L783.921 864.001L783.999 847.963Z"/><path fill="#C7AF99" d="M783.976 879.987L799.997 879.991L799.997 896.008L751.984 896.006C752.003 901.087 751.896 907.009 752.084 912.024L752.002 928.106C731.696 927.751 708.244 927.596 687.989 928.021C651.021 927.544 613.018 928.005 575.964 928.005L575.922 911.956L687.983 911.976L687.978 895.989L751.967 895.968L751.973 879.983L783.976 879.987Z"/><path fill="#B9493A" d="M687.986 912.006L752.084 912.024L752.002 928.106C731.696 927.751 708.244 927.596 687.989 928.021L687.986 912.006Z"/><path fill="#C7AF99" d="M272.079 896.055C293.37 895.863 314.789 896.223 336.026 895.958L335.995 911.988C366.895 911.985 401.452 912.725 432.006 911.858C431.981 917.187 432.042 922.788 431.918 928.093L368.048 928.039L368.009 944.011L336 943.996L335.99 927.997L271.998 928.011L271.971 912.001L271.961 896.408L272.079 896.055Z"/><path fill="#B9493A" d="M271.971 912.001L336 912.008L335.99 927.997L271.998 928.011L271.971 912.001Z"/><path fill="#B9493A" d="M335.99 927.997C345.925 927.999 358.305 927.668 368.048 928.039L368.009 944.011L336 943.996L335.99 927.997Z"/><path fill="#B9493A" d="M479.998 928.007L528 928.01L560.022 928.008L575.964 928.005C613.018 928.005 651.021 927.544 687.989 928.021C688.012 932.984 688.22 939.373 687.888 944.225C677.197 943.776 665.326 944.002 654.56 943.999L600.441 943.983L432.08 943.998C432.028 938.816 431.908 933.508 432.051 928.338C434.873 927.715 444.629 927.964 447.968 927.991L479.998 928.007Z"/><path fill="#BBA08B" d="M800.007 848.006L832.031 847.996C832.045 858.095 831.79 870.057 832.153 880.005L799.997 879.991L783.976 879.987L783.95 864.009L799.989 863.992L800.007 848.006Z"/><path fill="#C7AF99" d="M527.989 911.931C538.591 911.95 549.424 912.07 560.009 911.963L560.022 928.008L528 928.01L527.989 911.931Z"/><path fill="#C7AF99" d="M447.98 911.968C458.567 911.966 469.447 912.08 480.01 911.931L479.998 928.007L447.968 927.991L447.98 911.968Z"/><path fill="#D8C5B2" d="M703.966 687.997L746.838 688.028C751.897 688.03 763.511 688.323 767.983 687.629L768.055 687.975C767.951 693.322 767.92 698.67 767.962 704.018L703.984 703.969L704.002 720.008L687.972 720.008L671.991 719.986L639.969 720.005L623.991 719.991L575.965 719.973L575.973 703.977L703.986 703.984L703.966 687.997Z"/><path fill="#C7AF99" d="M496.013 752.002L511.989 751.968L511.973 848.028L527.99 847.993L527.989 864L511.972 864.009L511.991 879.998L480.017 880L479.996 864.016L496.014 864.018L496.007 784.005L480.012 783.999L479.99 768.014L496.005 768.019L496.013 752.002Z"/><path fill="#FEFEFE" d="M448.04 719.967L479.997 719.983L480.013 736.034L463.997 735.885C432.137 736.259 399.869 736.024 367.978 736.026L367.969 720.003L448.04 719.967Z"/><path fill="#FEFEFE" d="M847.156 623.961L847.672 624.085C848.279 627.532 848.017 636.026 848.005 639.979L864.02 640.001L864 656.012L847.991 656.021L848.001 672.011L832.014 672.004L831.981 655.955L831.877 623.99L847.156 623.961Z"/><path fill="#FEFEFE" d="M575.965 719.973L623.991 719.991L624.007 736.009C603.216 736.018 580.626 736.473 559.983 736.025L559.969 719.992L575.965 719.973Z"/><path fill="#D8C5B2" d="M479.997 719.983L496.019 719.994L496.012 735.932C506.559 736.106 517.108 736.121 527.656 735.978L527.973 736.057L528.014 752.012L511.989 751.968L496.013 752.002L495.937 735.952L480.013 736.034L479.997 719.983Z"/><path fill="#BBA08B" d="M784.004 800.04L799.989 800.012L799.987 832.034L800.007 848.006L783.999 847.963L784.004 800.04Z"/><path fill="#FEFEFE" d="M639.969 720.005L671.991 719.986L672.003 736.016C661.582 736.341 650.461 736.095 639.977 736.023L639.969 720.005Z"/><path fill="#BBA08B" d="M864.085 607.981C868.137 608.041 876.201 608.313 879.946 607.628L880.059 607.853C879.966 613.004 879.753 618.558 879.999 623.671C874.847 624.639 854.517 623.846 847.672 624.085L847.156 623.961C848.252 620.587 848.009 611.89 847.996 608.005L864.085 607.981Z"/><path fill="#C7AF99" d="M463.997 735.885L480.013 736.034L495.937 735.952L496.013 752.002L464.014 751.999L463.997 735.885Z"/><path fill="#FEFEFE" d="M880.059 607.853C883.338 607.353 892.465 607.598 896.003 607.944L895.99 624.021C890.745 624.031 885.5 624.007 880.255 623.95L879.999 623.671C879.753 618.558 879.966 613.004 880.059 607.853Z"/><path fill="#ECDBCF" d="M880.255 623.95C885.5 624.007 890.745 624.031 895.99 624.021C895.995 627.849 896.22 636.481 895.915 639.939C893.168 639.945 882.121 639.788 880.359 640.32C879.835 642.18 879.912 642.756 879.909 644.644C879.237 641.261 879.691 627.735 880.255 623.95Z"/><path fill="#C7AF99" d="M895.915 639.939L896.354 640.029C895.847 645.759 896.527 650.658 896.216 655.817L895.809 656.007L880.012 656C880.022 652.214 879.988 648.429 879.909 644.644C879.912 642.756 879.835 642.18 880.359 640.32C882.121 639.788 893.168 639.945 895.915 639.939Z"/><path fill="#D8C5B2" d="M783.989 784.013L799.991 783.975L799.989 800.012L784.004 800.04L783.989 784.013Z"/><path fill="#ECDBCF" d="M671.991 719.986L687.972 720.008L688.008 736.032L672.003 736.016L671.991 719.986Z"/><path fill="#FEFEFE" d="M815.971 672.05C821.318 672.002 826.666 671.986 832.014 672.004L831.998 688.011L815.982 688.017L815.971 672.05Z"/><path fill="#ECDBCF" d="M767.929 671.996L783.994 671.992C783.966 675.159 783.705 685.428 784.312 687.99L784.003 688.091C779.284 687.853 772.894 687.994 768.055 687.975L767.983 687.629L767.929 671.996Z"/><path fill="#FEFEFE" d="M768.055 687.975C772.894 687.994 779.284 687.853 784.003 688.091L784.006 704.01C779.169 704.028 772.674 704.222 767.962 704.018C767.92 698.67 767.951 693.322 768.055 687.975Z"/><path fill="#C7AF99" d="M783.994 671.992L799.927 671.985L800.002 688L784.312 687.99C783.705 685.428 783.966 675.159 783.994 671.992Z"/><path fill="#36323B" d="M176.032 479.916C202.368 480.362 229.607 480.01 256.009 479.987L255.99 496.027L272.003 496.003L271.99 480.008L288.005 479.988L287.99 496.027L432.122 495.988L607.854 495.986L720.322 496.003L735.994 495.99L752.009 496L752.023 479.996L767.667 479.984L767.991 480.101C789.335 479.944 810.679 479.907 832.023 479.989L848.007 479.984L848.005 511.997L831.952 511.976L831.992 559.866L831.98 592.197L831.979 608.028L847.996 608.005C848.009 611.89 848.252 620.587 847.156 623.961L831.877 623.99L831.981 655.955L832.014 672.004C826.666 671.986 821.318 672.002 815.971 672.05L815.634 671.945L799.927 671.985L783.994 671.992L767.929 671.996L767.983 687.629C763.511 688.323 751.897 688.03 746.838 688.028L703.966 687.997L703.986 703.984L575.973 703.977L575.965 719.973L559.969 719.992L559.983 736.025C550.05 735.875 537.729 735.392 527.973 736.057L527.656 735.978C517.108 736.121 506.559 736.106 496.012 735.932L496.019 719.994L479.997 719.983L448.04 719.967L367.969 720.003L320.001 719.959L319.968 736.011L288.021 736.018L287.796 735.156C287.057 731.471 287.442 708.68 287.486 703.961C282.669 703.79 277.166 703.952 272.298 703.982C272.401 707.546 272.844 716.939 272.125 720.04C271.78 716.793 271.983 707.686 271.984 703.997L256.017 703.99L256.005 687.987L240.039 687.957L240.019 671.989L208.399 671.962C207.788 667.278 208.004 660.846 208.02 655.996C202.714 656.024 197.272 656.219 192.063 655.219L192.059 639.888L192.044 623.973L192.034 608.016L175.975 607.974C171.786 607.941 167.48 607.997 163.322 607.577C167.344 607.181 171.859 607.386 175.937 607.463C176.336 575.908 175.978 543.612 175.969 511.998L175.992 496.007L176.032 479.916Z"/><path fill="#403C43" d="M832.023 479.989L848.007 479.984L848.005 511.997L831.952 511.976L831.992 559.866L831.98 592.197C828.304 591.64 820.038 591.871 815.922 591.877L815.844 607.786C811.534 607.81 804.049 607.623 799.992 608.02L800.008 624L768.055 624.003C767.777 634.496 767.966 645.393 768.011 655.917L751.965 655.956L751.91 671.882L687.917 671.934L687.863 687.914L672.039 687.988L672.132 671.929L623.917 671.934L623.849 687.873L576 687.989L576.063 672.125L592.129 672.035C592.008 666.902 592.105 661.285 592.104 656.117L608.067 656.035C607.893 645.625 608.09 634.573 608.104 624.114L624.067 624.036C623.632 597.867 624.066 570.402 624.104 544.114L640.054 544.035L640.104 528.117C661.201 527.827 682.904 528.044 704.046 528.037L704.118 512.119L720.14 511.962C720.155 506.642 720.216 501.322 720.322 496.003L735.994 495.99L752.009 496L752.023 479.996L767.667 479.984L767.991 480.101C789.335 479.944 810.679 479.907 832.023 479.989Z"/><path fill="#5C5463" d="M783.99 560.024L800.001 560.012L799.992 608.02L800.008 624L768.055 624.003C767.553 608.831 767.984 591.368 767.999 576.022L784.012 576.005L783.99 560.024Z"/><path fill="#36323B" d="M832.023 479.989L848.007 479.984L848.005 511.997L831.952 511.976L831.992 559.866C827.181 560.214 820.893 560.073 815.969 560.099C815.963 537.984 815.608 518.112 815.052 496.031L831.973 495.969L832.023 479.989Z"/><path fill="#36323B" d="M767.667 479.984L767.991 480.101L768.074 512.061L735.978 512.106C735.967 507.049 735.811 500.962 735.994 495.99L752.009 496L752.023 479.996L767.667 479.984Z"/><path fill="#36323B" d="M735.973 575.955C741.27 576.032 746.741 575.922 752.052 575.884L752.09 591.997L736.017 592.101L735.973 575.955Z"/><path fill="#36323B" d="M751.973 543.942C757.234 544.044 762.777 543.947 768.062 543.932C767.991 549.231 768.057 554.7 768.062 560.013L752.01 560.015L751.973 543.942Z"/><path fill="#403C43" d="M432.122 495.988L607.854 495.986C607.844 500.422 607.619 507.903 607.884 512.104C607.956 517.446 607.994 522.789 607.998 528.132L608 559.997L592.029 560.002L592 623.998L576.027 624.005L575.999 639.993L560.03 640.008L559.998 655.996L544.031 656.006L543.997 671.999L528.021 672.012C517.592 671.804 506.459 671.981 495.976 671.988L495.991 656.015L480.014 655.99L479.997 640.022L464.012 639.994L464.003 608.012L448.014 608.007L448.002 560.012L432.005 559.985L431.995 528.027L415.987 527.989L416.013 512.115L432.107 512.096L432.122 495.988Z"/><path fill="#675E6F" d="M575.998 560.026L592.029 560.002L592 623.998L576.027 624.005C575.629 603.178 575.999 580.957 575.998 560.026Z"/><path fill="#675E6F" d="M591.991 527.969C595.749 527.987 604.625 527.814 607.998 528.132L608 559.997L592.029 560.002L591.991 527.969Z"/><path fill="#5C5463" d="M528.004 656.031L544.031 656.006L543.997 671.999L528.021 672.012L528.004 656.031Z"/><path fill="#675E6F" d="M544 640.026L560.03 640.008L559.998 655.996L544.031 656.006L544 640.026Z"/><path fill="#675E6F" d="M560 624.027L576.027 624.005L575.999 639.993L560.03 640.008L560 624.027Z"/><path fill="#5C5463" d="M591.994 512.016C597.291 511.945 602.588 511.974 607.884 512.104C607.956 517.446 607.994 522.789 607.998 528.132C604.625 527.814 595.749 527.987 591.991 527.969L591.994 512.016Z"/><path fill="#C7AF99" d="M256.005 687.987L320.007 687.995C319.975 691.205 319.702 701.375 320.33 703.986L320.022 704.075L320.001 719.959L319.968 736.011L288.021 736.018L287.796 735.156C287.057 731.471 287.442 708.68 287.486 703.961C282.669 703.79 277.166 703.952 272.298 703.982C272.401 707.546 272.844 716.939 272.125 720.04C271.78 716.793 271.983 707.686 271.984 703.997L256.017 703.99L256.005 687.987Z"/><path fill="#FEFEFE" d="M287.991 703.995C298.668 703.83 309.346 703.856 320.022 704.075L320.001 719.959L319.968 736.011L288.021 736.018L287.796 735.156C288.474 727.037 288.004 712.55 287.991 703.995Z"/><path fill="#D8C5B2" d="M320.33 703.986L448.016 703.993L448.04 719.967L367.969 720.003L320.001 719.959L320.022 704.075L320.33 703.986Z"/><path fill="#B9493A" d="M175.969 511.998L192.03 511.99L192.004 527.875C192.003 537.908 192.291 550.132 191.927 560.009L208.023 560.012L208.031 576.004L192.1 575.992C191.816 586.466 192.008 597.502 192.034 608.016L175.975 607.974C171.786 607.941 167.48 607.997 163.322 607.577C167.344 607.181 171.859 607.386 175.937 607.463C176.336 575.908 175.978 543.612 175.969 511.998Z"/><path fill="#675E6F" d="M432.005 559.985L448.002 560.012L448.014 608.007L464.003 608.012L464.012 639.994L447.994 640.024L448.003 623.991L431.996 624.025L432.005 559.985Z"/><path fill="#675E6F" d="M415.987 527.989L431.995 528.027L432.005 559.985L416.006 560.021L415.987 527.989Z"/><path fill="#BBA08B" d="M527.995 720.002L559.969 719.992L559.983 736.025C550.05 735.875 537.729 735.392 527.973 736.057L527.656 735.978C528.252 733.162 528.015 723.346 527.995 720.002Z"/><path fill="#D8C5B2" d="M831.981 655.955L832.014 672.004C826.666 671.986 821.318 672.002 815.971 672.05L815.634 671.945C816.322 669.464 816.001 659.107 815.971 655.999L831.981 655.955Z"/><path fill="#E54C2C" d="M559.98 703.985L575.973 703.977L575.965 719.973L559.969 719.992L559.98 703.985Z"/><path fill="#675E6F" d="M464.012 639.994L479.997 640.022L480.014 655.99L464.008 656.019L464.012 639.994Z"/><path fill="#5C5463" d="M480.014 655.99L495.991 656.015L495.976 671.988L480.01 672.025L480.014 655.99Z"/><path fill="#231F28" d="M192.03 511.99L207.988 511.982L208.004 528.072C203.129 528.079 196.755 528.265 192.004 527.875L192.03 511.99Z"/><path fill="#5C5463" d="M240.015 560.102L256.026 560.009C255.202 570.119 255.64 581.696 255.821 591.967L239.839 591.992L223.989 592.027L223.99 576.017L240.007 576.001C239.977 570.701 239.979 565.401 240.015 560.102Z"/><path fill="#403C43" d="M448.169 672.126L463.947 672.067L463.839 687.863L448.002 687.995L448.169 672.126Z"/><path fill="#5C5463" d="M752.012 224.018L768.007 224.013L767.991 239.988L768.013 255.991L768.016 271.969L784.031 272.018L784.032 288.02L784.013 336.009L800.01 336.019L800.047 367.979C810.587 367.935 821.683 367.055 832.012 368.044L832.011 383.951C837.342 384.004 842.674 384.012 848.005 383.974C858.567 384.142 869.571 383.753 879.999 384.045L880.062 399.941L896.016 400.003L911.968 400.027L912.011 416.008L912.004 432.004L895.941 431.974C895.957 436.598 896.18 443.478 895.898 447.915L896.238 448.012C895.732 451.852 895.978 459.846 896.005 463.986L895.98 480.003L880.037 479.996L848.007 479.984L832.023 479.989C810.679 479.907 789.335 479.944 767.991 480.101L767.667 479.984L752.023 479.996L752.009 496L735.994 495.99L720.322 496.003L607.854 495.986L432.122 495.988L287.99 496.027L288.005 479.988L271.99 480.008L272.003 496.003L255.99 496.027L256.009 479.987C229.607 480.01 202.368 480.362 176.032 479.916L175.992 496.007C162.139 494.663 140.883 498.005 128 495.383L128.016 479.98L128.002 464.002L112.026 463.979L111.992 448.032L97.8137 447.899C101.879 447.116 107.143 447.35 111.273 447.722C111.991 442.206 111.983 437.565 111.995 432.026L111.957 416.017L128.011 416.003L128.046 399.43C133.352 399.985 138.692 400.146 144.022 399.911C151.355 399.18 168.84 398.838 176.02 400.026C175.849 394.78 175.973 389.26 176.009 383.992L159.961 384.025L160.014 367.988C171.61 368.144 179.693 367.284 192.018 368.062L192.015 384.002L208.014 384L207.996 368.012L223.985 367.999L224.003 336.007L240.015 336.008L239.991 303.983L256.036 304L256.007 288.052C259.405 288.056 269.094 288.266 272.005 287.946C275.593 287.558 284.027 287.941 287.97 288.013L288 336.038L304.01 336.025L304.016 367.979L320.01 368.014L320.025 384.004L336.016 384.013L336.023 399.985L432.009 400.002L432.031 384.01L431.999 368.02L448.02 368.011L448.023 335.905L448.011 320.018L464.033 320.007L464.023 303.997L464.015 288.009L480.042 288.01L480.039 271.861C485.36 272.004 490.684 272.053 496.007 272.009L512.031 272.01L528.016 271.991L544.006 272.005L559.989 272.025L559.978 287.893L560 303.989L560.037 320.015L575.952 320.015L575.988 335.925L575.982 368.02L591.992 368.007L592.023 384.01L640.044 384.012L640.01 368.02L672.039 368.012L672.007 336.024L688.038 336.009L687.994 288.009L704.033 288.011L703.997 272.012L720.012 272.026L720.004 255.979L720.007 240.004L720.004 223.984L752.012 224.018Z"/><path fill="#36323B" d="M752.012 224.018L768.007 224.013L767.991 239.988L768.013 255.991L768.016 271.969L784.031 272.018L784.032 288.02L784.013 336.009L800.01 336.019L800.047 367.979C810.587 367.935 821.683 367.055 832.012 368.044L832.011 383.951C820.149 384.209 811.889 384.308 800.009 383.954L799.968 400.142L815.961 399.986L815.941 415.873L767.993 416.017L768.015 432.002L592.521 432.003C591.807 428.073 591.985 420.24 592.067 416.012C591.808 410.833 591.965 405.207 592.008 399.99L592.023 384.01L640.044 384.012L640.01 368.02L672.039 368.012L672.007 336.024L688.038 336.009L687.994 288.009L704.033 288.011L703.997 272.012L720.012 272.026L720.004 255.979L720.007 240.004L720.004 223.984L752.012 224.018Z"/><path fill="#675E6F" d="M752.012 224.018L768.007 224.013L767.991 239.988L768.013 255.991L768.016 271.969L784.031 272.018L784.032 288.02L784.013 336.009L800.01 336.019L800.047 367.979C810.587 367.935 821.683 367.055 832.012 368.044L832.011 383.951C820.149 384.209 811.889 384.308 800.009 383.954L783.977 384.083L783.987 351.988L767.985 352.085L767.984 303.991L752.021 304.005L735.984 304C735.904 298.675 735.911 293.35 736.004 288.026L736.014 271.994L720.012 272.026L720.004 255.979L720.007 240.004L720.004 223.984L752.012 224.018Z"/><path fill="#36323B" d="M752.012 224.018L768.007 224.013L767.991 239.988L768.013 255.991L752.013 256.007L752.012 224.018Z"/><path fill="#403C43" d="M736.004 288.026L752.002 287.982L752.021 304.005L735.984 304C735.904 298.675 735.911 293.35 736.004 288.026Z"/><path fill="#B9493A" d="M768.016 271.969L784.031 272.018L784.032 288.02L768.006 288.039L768.016 271.969Z"/><path fill="#36323B" d="M720.007 240.004L736.013 239.985L736.022 256.001L720.004 255.979L720.007 240.004Z"/><path fill="#675E6F" d="M720.006 320.016L736.048 320.001L736.019 384.004L720.009 384.003L720.015 400.003L688.045 400.005L688.002 384.015L704.035 384.001L703.996 368.014L720.034 368.001L720.006 320.016Z"/><path fill="#675E6F" d="M592.008 399.99L623.994 400.015L623.997 416.001L592.067 416.012C591.808 410.833 591.965 405.207 592.008 399.99Z"/><path fill="#675E6F" d="M656.006 400.033L688.045 400.005L688.012 416.003L656.017 416.014L656.006 400.033Z"/><path fill="#675E6F" d="M735.984 304L752.021 304.005L752.017 320L736.048 320.001L735.984 304Z"/><path fill="#403C43" d="M480.039 271.861C485.36 272.004 490.684 272.053 496.007 272.009L512.031 272.01L528.016 271.991L544.006 272.005L559.989 272.025L559.978 287.893L560 303.989L560.037 320.015L575.952 320.015L575.988 335.925L575.982 368.02L591.992 368.007L592.023 384.01L592.008 399.99C591.965 405.207 591.808 410.833 592.067 416.012C591.985 420.24 591.807 428.073 592.521 432.003L575.362 431.997L432.138 431.995L415.676 431.99C412.47 432.044 402.712 432.381 400.009 431.648C396.193 431.245 390.219 431.985 386.183 431.493C384.619 431.302 384.957 431.311 384.198 430.17C383.844 426 384.03 420.282 384.049 415.986L336.009 416.015L336.023 399.985L432.009 400.002L432.031 384.01L431.999 368.02L448.02 368.011L448.023 335.905L448.011 320.018L464.033 320.007L464.023 303.997L464.015 288.009L480.042 288.01L480.039 271.861Z"/><path fill="#675E6F" d="M464.015 288.009L480.042 288.01C480.031 293.253 479.94 298.782 480.027 304.002L480.01 351.995L464.003 352.005L464.01 383.995L448.003 384.005L448.005 416.035L432.158 416.001C431.836 420.955 432.069 426.956 432.138 431.995L415.676 431.99C412.47 432.044 402.712 432.381 400.009 431.648C396.193 431.245 390.219 431.985 386.183 431.493C384.619 431.302 384.957 431.311 384.198 430.17C383.844 426 384.03 420.282 384.049 415.986L336.009 416.015L336.023 399.985L432.009 400.002L432.031 384.01L431.999 368.02L448.02 368.011L448.023 335.905L448.011 320.018L464.033 320.007L464.023 303.997L464.015 288.009Z"/><path fill="#403C43" d="M415.996 415.999L432.158 416.001C431.836 420.955 432.069 426.956 432.138 431.995L415.676 431.99C416.238 428.516 416.017 419.844 415.996 415.999Z"/><path fill="#36323B" d="M464.015 288.009L480.042 288.01C480.031 293.253 479.94 298.782 480.027 304.002L464.023 303.997L464.015 288.009Z"/><path fill="#36323B" d="M399.992 416.002L415.996 415.999C416.017 419.844 416.238 428.516 415.676 431.99C412.47 432.044 402.712 432.381 400.009 431.648L399.992 416.002Z"/><path fill="#36323B" d="M448.011 320.018L464.033 320.007L464.015 336.003C459.886 335.996 451.856 336.198 448.023 335.905L448.011 320.018Z"/><path fill="#36323B" d="M432.158 416.001L448.005 416.035L576.07 415.963C575.928 421.148 575.903 426.882 575.362 431.997L432.138 431.995C432.069 426.956 431.836 420.955 432.158 416.001Z"/><path fill="#675E6F" d="M560.037 320.015L575.952 320.015L575.988 335.925L575.982 368.02L591.992 368.007L592.023 384.01L592.008 399.99L575.994 400.023L576.007 383.985L559.999 384.021L560.009 335.982L560.037 320.015Z"/><path fill="#36323B" d="M560.037 320.015L575.952 320.015L575.988 335.925C570.662 335.972 565.335 335.991 560.009 335.982L560.037 320.015Z"/><path fill="#675E6F" d="M544.006 272.005L559.989 272.025L559.978 287.893L560 303.989L544.012 303.988L527.996 304.019L528.016 271.991L544.006 272.005Z"/><path fill="#36323B" d="M544.006 272.005L559.989 272.025L559.978 287.893L560 303.989L544.012 303.988L544.006 272.005Z"/><path fill="#675E6F" d="M544.012 303.988L560 303.989L560.037 320.015L560.009 335.982L544 336.019L544.012 303.988Z"/><path fill="#675E6F" d="M480.039 271.861C485.36 272.004 490.684 272.053 496.007 272.009L496.008 303.992L480.027 304.002C479.94 298.782 480.031 293.253 480.042 288.01L480.039 271.861Z"/><path fill="#403C43" d="M272.005 287.946C275.593 287.558 284.027 287.941 287.97 288.013L288 336.038L304.01 336.025L304.016 367.979L320.01 368.014L320.025 384.004L336.016 384.013L336.023 399.985L336.009 416.015L384.049 415.986C384.03 420.282 383.844 426 384.198 430.17C384.034 430.744 383.828 430.987 383.522 431.52C372.389 432.567 350.776 432.002 339.048 432.017L256.014 432.006L256.001 416.012L176.015 415.998L176.02 400.026C175.849 394.78 175.973 389.26 176.009 383.992L159.961 384.025L160.014 367.988C171.61 368.144 179.693 367.284 192.018 368.062L192.015 384.002L208.014 384L207.996 368.012L223.985 367.999L224.003 336.007L240.015 336.008L239.991 303.983L256.036 304L256.007 288.052C259.405 288.056 269.094 288.266 272.005 287.946Z"/><path fill="#675E6F" d="M239.991 303.983L256.036 304L256.013 367.995L240.003 368.005L240.015 384.003L224.004 384.002L224.019 399.968L176.02 400.026C175.849 394.78 175.973 389.26 176.009 383.992L159.961 384.025L160.014 367.988C171.61 368.144 179.693 367.284 192.018 368.062L192.015 384.002L208.014 384L207.996 368.012L223.985 367.999L224.003 336.007L240.015 336.008L239.991 303.983Z"/><path fill="#675E6F" d="M304.016 367.979L320.01 368.014L320.025 384.004L336.016 384.013L336.023 399.985L303.999 400.016L304.016 367.979Z"/><path fill="#675E6F" d="M288 336.038L304.01 336.025L304.016 367.979L288.006 368.02L288 336.038Z"/><path fill="#231F28" d="M240.015 384.003L240.023 399.999L224.019 399.968L224.004 384.002L240.015 384.003Z"/><path fill="#776D7E" d="M256.007 288.052C259.405 288.056 269.094 288.266 272.005 287.946L272.008 304L256.036 304L256.007 288.052Z"/><path fill="#5C5463" d="M896.016 400.003L911.968 400.027L912.011 416.008L912.004 432.004L895.941 431.974C895.957 436.598 896.18 443.478 895.898 447.915L896.238 448.012C895.732 451.852 895.978 459.846 896.005 463.986L895.98 480.003L880.037 479.996L848.007 479.984L832.023 479.989C810.679 479.907 789.335 479.944 767.991 480.101L767.667 479.984C768.276 477.443 768.021 467.137 767.998 464.004L816.009 463.994L815.98 448.004L848.007 447.995L848.018 432.003L863.978 432L863.935 415.995L880.038 416.008C879.997 410.652 880.006 405.297 880.062 399.941L896.016 400.003Z"/><path fill="#847988" d="M896.016 400.003L911.968 400.027L912.011 416.008L912.004 432.004L895.941 431.974L880.011 432.001L880.038 416.008C879.997 410.652 880.006 405.297 880.062 399.941L896.016 400.003Z"/><path fill="#36323B" d="M896.016 400.003L911.968 400.027L912.011 416.008L896.021 416.012L896.016 400.003Z"/><path fill="#776D7E" d="M863.935 415.995L880.038 416.008L880.011 432.001L895.941 431.974C895.957 436.598 896.18 443.478 895.898 447.915C885.724 448.309 874.263 448.037 863.996 448.019L863.978 432L863.935 415.995Z"/><path fill="#36323B" d="M847.999 464.003L896.005 463.986L895.98 480.003L880.037 479.996L848.007 479.984L847.999 464.003Z"/><path fill="#847988" d="M799.999 432.02L848.018 432.003L848.007 447.995L815.98 448.004L816.009 463.994L767.998 464.004C768.021 467.137 768.276 477.443 767.667 479.984L752.023 479.996L703.998 480.015L704.002 448.021L800.015 447.995L799.999 432.02Z"/><path fill="#847988" d="M128.046 399.43C133.352 399.985 138.692 400.146 144.022 399.911L144.036 415.964L160.031 416.015L160.019 431.995L111.995 432.026L111.957 416.017L128.011 416.003L128.046 399.43Z"/><path fill="#832424" d="M128.016 479.98C139.393 480 150.469 479.668 161.815 479.502C165.075 479.455 173.02 479.442 176.032 479.916L175.992 496.007C162.139 494.663 140.883 498.005 128 495.383L128.016 479.98Z"/><path fill="#36323B" d="M128.002 464.002L176.01 463.987L176.032 479.916C173.02 479.442 165.075 479.455 161.815 479.502C150.469 479.668 139.393 480 128.016 479.98L128.002 464.002Z"/><path fill="#675E6F" d="M864.001 400.037L880.062 399.941C880.006 405.297 879.997 410.652 880.038 416.008L863.935 415.995C864.156 411.28 863.996 404.871 864.001 400.037Z"/><path fill="#36323B" d="M111.992 448.032C117.293 447.999 122.717 447.91 128.008 447.947L128.002 464.002L112.026 463.979L111.992 448.032Z"/><path fill="#847988" d="M847.989 415.634C853.306 416.059 858.603 415.987 863.935 415.995L863.978 432L848.018 432.003L847.989 415.634Z"/><path fill="#776D7E" d="M672 448.026L688 448.008L688.011 464.071L688.006 479.996L672.06 480.011L495.996 480.018L495.998 464.031L672.012 463.989L672 448.026Z"/><path fill="#847988" d="M672.063 464.017L688.011 464.071L688.006 479.996L672.06 480.011L672.063 464.017Z"/><path fill="#847988" d="M176.006 432.023L224 432.015L224.015 448.007L255.998 448.016L256.007 463.994L191.992 464.019L192.005 447.98L175.993 448.018L176.006 432.023Z"/><path fill="#776D7E" d="M383.928 464.003L447.979 464.014L447.995 479.995L383.942 480.006C384.095 474.823 383.958 469.22 383.928 464.003Z"/><path fill="#847988" d="M336 464.028L383.928 464.003C383.958 469.22 384.095 474.823 383.942 480.006L335.994 480.017L336 464.028Z"/><path fill="#4C1412" d="M223.997 0L256.002 0L767.994 0L800.017 0C800.005 5.22855 800.095 10.83 799.977 16.0268L799.977 32.1153L799.993 48.018C807.403 47.9963 825.332 47.5162 831.982 48.4808L831.995 80.0207C842.445 80.0173 853.566 79.8271 863.962 80.0261L863.981 96.1208L863.995 128.021L879.995 127.997L879.989 192.019L895.645 191.993C896.105 197.331 896.018 202.659 896.02 208.016L880.035 207.988L863.995 208.007L864.009 255.996L848.004 256.003C847.967 261.124 847.802 266.832 848.037 271.903C842.699 271.996 837.361 272.03 832.022 272.004L832.017 240.004L816.024 240.001L816.017 192.004L800.024 192.001L800.014 160.003L784.019 160.001L784.014 112.004L768.019 112L768.014 80.0027L735.986 80.0056L736.017 112.001L719.986 112.006L720.014 160.001L703.98 160.006L704.008 176.001L687.982 176.006L688.01 192.001L671.98 192.003L672.008 208.001L656.021 208.004L656.024 192L624.034 191.993L624.026 176.004L608.024 176L608.014 144.003L576.022 144.002L576.021 128.004L560.019 128.002L560.012 112.004L544.02 112.001L544.014 80.0035L528.019 80.0008L528.014 48.0029L511.984 48.0002L512.016 63.9973L495.985 64.0056L496.015 96.0011L479.979 96.0026L480.015 112.001L431.985 112.003L432.015 128.001L415.979 128.006L416.015 144.001L399.979 144.003L400.015 160.001L383.98 160.007L384.009 208.001L336.02 208.001L336.012 192.004L320.011 191.999L320.009 160.003L240.02 160.001L240.014 128.003L223.985 128.002L224.016 143.998L207.984 144.007L207.991 160.027L224.017 159.987L224.023 207.998L207.985 208.006L208.023 271.998L191.983 272.001L192.02 287.998L176.015 287.99L176.085 272.01C170.77 271.956 165.35 272.013 160.025 272.016C159.952 256.016 159.992 240.015 160.147 224.016C154.883 223.921 149.287 224.014 143.997 224.022C144.004 218.685 144.06 213.349 144.164 208.014L128.003 207.918L128.014 192.001L144.015 192.01L144.002 128.01L160.016 128.01C159.979 120.419 160.006 112.828 160.096 105.238L160.011 96.1656L160.007 80.0118C165.362 80.042 170.718 80.0128 176.073 79.9243L176.693 80.0439L192.029 80.0163L192.005 64.0693L192.024 48.0308L224.023 48.0073L224.003 32.0673L224.017 16.0237L223.997 0Z"/><path fill="#D8C5B2" d="M767.994 0L800.017 0C800.005 5.22855 800.095 10.83 799.977 16.0268C789.477 15.8732 778.535 16.0303 768.002 16.0351L767.994 0Z"/><path fill="#C7AF99" d="M223.997 0L256.002 0L256.015 16.0096L224.017 16.0237L223.997 0Z"/><path fill="#902523" d="M176.073 79.9243L176.693 80.0439C175.783 85.457 175.974 90.5056 176.039 95.9858C170.093 95.9865 166.202 96.0401 160.229 96.8747C160.292 99.7605 160.44 102.365 160.096 105.238L160.011 96.1656L160.007 80.0118C165.362 80.042 170.718 80.0128 176.073 79.9243Z"/><path fill="#E54C2C" d="M495.977 111.997L512.028 111.998L512.025 144.006L528.027 143.996L528.031 175.991L560.032 175.999L560.025 192.004L592.028 191.998L592.023 208.004L608.032 207.996L608.032 240.004L624.037 239.999L624.032 256.003L640.03 255.996L640.025 288.007L656.003 287.986L655.984 255.996L688.001 255.986L687.976 223.997L704.001 223.985L703.978 207.999L720.021 207.998L720.004 223.984L720.007 240.004L720.004 255.979L720.012 272.026L703.997 272.012L704.033 288.011L687.994 288.009L688.038 336.009L672.007 336.024L672.039 368.012L640.01 368.02L640.044 384.012L592.023 384.01L591.992 368.007L575.982 368.02L575.988 335.925L575.952 320.015L560.037 320.015L560 303.989L559.978 287.893L559.989 272.025L544.006 272.005L528.016 271.991L512.031 272.01L496.007 272.009C490.684 272.053 485.36 272.004 480.039 271.861L480.042 288.01L464.015 288.009L464 272.01L463.995 255.978L464.009 239.988L464.03 223.999L464.01 192.017L480.043 192.013L479.996 176.002L480.038 159.58C485.166 160.274 490.684 160.033 495.839 159.674C496.498 145.105 495.946 126.85 495.977 111.997Z"/><path fill="#F6A96B" d="M592.101 319.888C594.818 319.884 606.021 319.588 607.723 320.488C608.193 322.886 608.139 323.592 608.11 326.084L608.138 335.993C613.065 335.986 618.786 336.105 623.655 335.952L623.993 336.057C629.125 335.92 634.826 336.019 640 336.007L640.04 319.949L656.029 320.003L671.987 320.02L672.007 336.024L672.039 368.012L640.01 368.02L640.044 384.012L592.023 384.01L591.992 368.007L575.982 368.02L575.988 335.925L575.952 320.015C578.96 319.991 589.513 319.748 591.961 320.215L592.101 319.888Z"/><path fill="#EE7140" d="M592.101 319.888C594.818 319.884 606.021 319.588 607.723 320.488C608.193 322.886 608.139 323.592 608.11 326.084L608.138 335.993C613.065 335.986 618.786 336.105 623.655 335.952L623.993 336.057L624.004 352.008L607.976 352.005L607.983 336.01L591.979 336.005L591.961 320.215L592.101 319.888Z"/><path fill="#36323B" d="M480.001 224.007L496.025 223.999L528.008 224.013L528.016 271.991L512.031 272.01L496.007 272.009C490.684 272.053 485.36 272.004 480.039 271.861L480.042 288.01L464.015 288.009L464 272.01L463.995 255.978L464.009 239.988L464.03 223.999L480.001 224.007Z"/><path fill="#776D7E" d="M496.025 223.999L528.008 224.013L528.016 271.991L512.031 272.01L496.007 272.009C495.809 261.317 495.809 250.623 496.006 239.931L496.025 223.999Z"/><path fill="#675E6F" d="M496.006 239.931C501.352 239.998 506.698 239.977 512.043 239.868C512.024 250.538 511.911 261.352 512.031 272.01L496.007 272.009C495.809 261.317 495.809 250.623 496.006 239.931Z"/><path fill="#F6A96B" d="M463.995 255.978L480.047 255.999L480.039 271.861L480.042 288.01L464.015 288.009L464 272.01L463.995 255.978Z"/><path fill="#E58E5E" d="M464.03 223.999L480.001 224.007L480.04 240.038L480.047 255.999L463.995 255.978L464.009 239.988L464.03 223.999Z"/><path fill="#EE7140" d="M464.03 223.999L480.001 224.007L480.04 240.038L464.009 239.988L464.03 223.999Z"/><path fill="#F3592F" d="M480.038 159.58C485.166 160.274 490.684 160.033 495.839 159.674L496.007 160.153C500.452 159.75 507.257 160.004 511.878 160.041L512.001 176.014C512.006 180.203 511.787 188.147 512.175 192.007C516.939 192.011 523.033 191.849 527.689 192.198L527.914 192.362L527.972 207.947L528.008 224.013L496.025 223.999L480.001 224.007L464.03 223.999L464.01 192.017L480.043 192.013L479.996 176.002L480.038 159.58Z"/><path fill="#36323B" d="M512.175 192.007C516.939 192.011 523.033 191.849 527.689 192.198L527.914 192.362L527.972 207.947L528.008 224.013L496.025 223.999L496 192.016L512.175 192.007Z"/><path fill="#B9493A" d="M480.038 159.58C485.166 160.274 490.684 160.033 495.839 159.674L496.007 160.153L496.008 175.994L479.996 176.002L480.038 159.58Z"/><path fill="#E58E5E" d="M559.891 256.075C565.256 255.992 570.622 255.969 575.987 256.007L575.928 272.017L575.999 288.005L591.953 288.013L592 304.029C591.992 308.967 591.82 315.042 592.101 319.888L591.961 320.215C589.513 319.748 578.96 319.991 575.952 320.015L560.037 320.015L560 303.989L559.978 287.893L559.989 272.025L559.891 256.075Z"/><path fill="#EE7140" d="M559.891 256.075C565.256 255.992 570.622 255.969 575.987 256.007L575.928 272.017L575.999 288.005L591.953 288.013L592 304.029C586.931 303.881 581.11 304.015 575.985 304.014L575.964 288.009L559.978 287.893L559.989 272.025L559.891 256.075Z"/><path fill="#F6A96B" d="M560 303.989L575.927 304.033L575.952 320.015L560.037 320.015L560 303.989Z"/><path fill="#36323B" d="M528.008 224.013L543.972 224.011L543.98 240.089L543.978 255.984L559.891 256.075L559.989 272.025L544.006 272.005L528.016 271.991L528.008 224.013Z"/><path fill="#F6A96B" d="M543.978 255.984L559.891 256.075L559.989 272.025L544.006 272.005L543.978 255.984Z"/><path fill="#F3592F" d="M575.928 272.017L591.939 272.049C591.96 277.305 592.032 282.662 591.994 287.91L608.014 288.063C608.16 296.746 608.918 318.453 608.11 326.084C608.139 323.592 608.193 322.886 607.723 320.488C606.021 319.588 594.818 319.884 592.101 319.888C591.82 315.042 591.992 308.967 592 304.029L591.953 288.013L575.999 288.005L575.928 272.017Z"/><path fill="#F3592F" d="M559.96 239.898C565.279 240.026 570.598 240.071 575.918 240.033L575.987 256.007C570.622 255.969 565.256 255.992 559.891 256.075L543.978 255.984L543.98 240.089C549.305 239.9 554.633 239.836 559.96 239.898Z"/><path fill="#EE7140" d="M527.972 207.947L543.938 208.035L543.94 224.01C549.1 224.014 554.845 223.902 559.959 224.044L559.96 239.898C554.633 239.836 549.305 239.9 543.98 240.089L543.972 224.011L528.008 224.013L527.972 207.947Z"/><path fill="#F3592F" d="M527.914 192.362C531.593 191.691 539.876 191.99 543.869 192.075L543.948 207.959L559.874 208.058C559.897 213.146 559.782 219.02 559.959 224.044C554.845 223.902 549.1 224.014 543.94 224.01L543.938 208.035L527.972 207.947L527.914 192.362Z"/><path fill="#F3592F" d="M624.008 319.903C629.73 319.994 634.244 319.803 639.94 319.484L640.04 319.949L640 336.007C634.826 336.019 629.125 335.92 623.993 336.057L623.655 335.952C624.094 334.022 623.925 322.632 624.008 319.903Z"/><path fill="#E58E5E" d="M640.011 304.018L655.983 304.033L656.029 320.003L640.04 319.949L639.94 319.484L640.011 304.018Z"/><path fill="#EE7140" d="M512.001 176.014L527.981 176.006C527.996 179.482 528.224 189.196 527.689 192.198C523.033 191.849 516.939 192.011 512.175 192.007C511.787 188.147 512.006 180.203 512.001 176.014Z"/><path fill="#36323B" d="M304.008 207.995L320.03 207.998L320.013 223.874C325.343 223.969 330.674 224.013 336.004 224.006L336.024 239.991L336.013 256.004L352.026 255.995L352.015 271.999C365.134 271.922 387.043 271.069 399.115 272.234C404.4 273.969 422.046 272.287 428.02 272.131C434.586 271.96 441.422 271.978 448.05 272.028L464 272.01L464.015 288.009L464.023 303.997L464.033 320.007L448.011 320.018L448.023 335.905L448.02 368.011L431.999 368.02L432.031 384.01L432.009 400.002L336.023 399.985L336.016 384.013L320.025 384.004L320.01 368.014L304.016 367.979L304.01 336.025L288 336.038L287.97 288.013C288.082 266.68 288.087 245.347 287.985 224.014L272.008 223.993L271.963 208L304.008 207.995Z"/><path fill="#F3592F" d="M448.05 272.028L464 272.01L464.015 288.009L464.023 303.997L464.033 320.007L448.011 320.018L448.023 335.905L448.02 368.011L431.999 368.02L432.031 384.01L383.968 384.017L383.972 368.003L383.946 351.988L383.993 320.057C379.191 319.853 372.914 320.012 368.009 320.011L368.077 304.056C368.28 298.704 368.414 293.349 368.479 287.993L352.002 288.018C352.103 282.784 352.02 277.258 352.015 271.999C365.134 271.922 387.043 271.069 399.115 272.234C404.4 273.969 422.046 272.287 428.02 272.131C434.586 271.96 441.422 271.978 448.05 272.028Z"/><path fill="#F6A96B" d="M447.958 304.009L464.023 303.997L464.033 320.007L448.011 320.018L448.023 335.905L448.02 368.011L431.999 368.02L432.031 384.01L383.968 384.017L383.972 368.003L383.946 351.988L400.018 352.015L415.995 352.006L416.006 336.017L432 336.006L432.008 304.017L447.958 304.009Z"/><path fill="#EE7140" d="M383.946 351.988L400.018 352.015L400.009 368.007L383.972 368.003L383.946 351.988Z"/><path fill="#EE7140" d="M448.05 272.028L464 272.01L464.015 288.009L464.023 303.997L447.958 304.009C448.191 293.48 448.051 282.584 448.05 272.028Z"/><path fill="#EE7140" d="M368.077 304.056C373.373 304.004 378.669 304.006 383.964 304.062L383.993 320.057C379.191 319.853 372.914 320.012 368.009 320.011L368.077 304.056Z"/><path fill="#E54C2C" d="M304.008 207.995L320.03 207.998L320.013 223.874C325.343 223.969 330.674 224.013 336.004 224.006L336.024 239.991L336.013 256.004L352.026 255.995L352.015 271.999C352.02 277.258 352.103 282.784 352.002 288.018L368.479 287.993C368.414 293.349 368.28 298.704 368.077 304.056L368.009 320.011L368.001 336.003L351.98 335.996L335.987 336.02L335.995 304.011L319.987 304.02L319.996 272.012L303.995 272.02L304.008 207.995Z"/><path fill="#B9493A" d="M320.013 223.874C325.343 223.969 330.674 224.013 336.004 224.006L336.024 239.991L319.99 240.002L320.013 223.874Z"/><path fill="#F6A96B" d="M368.009 320.011C372.914 320.012 379.191 319.853 383.993 320.057L383.946 351.988L383.972 368.003L351.981 368.018L351.976 351.969L351.98 335.996L368.001 336.003L368.009 320.011Z"/><path fill="#EE7140" d="M368.001 336.003L368.017 352.018L351.976 351.969L351.98 335.996L368.001 336.003Z"/><path fill="#E54C2C" d="M463.973 143.996L480.041 143.998L480.038 159.58L479.996 176.002L480.043 192.013L464.01 192.017L464.03 223.999L464.009 239.988L463.995 255.978L464 272.01L448.05 272.028C441.422 271.978 434.586 271.96 428.02 272.131C422.046 272.287 404.4 273.969 399.115 272.234C399.185 272.188 399.273 272.163 399.325 272.098C400.765 270.306 399.993 244.211 399.981 239.992L416.002 239.985L415.976 223.999L431.999 223.985L431.976 159.995L463.992 159.985L463.973 143.996Z"/><path fill="#675E6F" d="M272.008 223.993L287.985 224.014C288.087 245.347 288.082 266.68 287.97 288.013C284.027 287.941 275.593 287.558 272.005 287.946C269.094 288.266 259.405 288.056 256.007 288.052L256.012 272L272.013 272.003L272.008 223.993Z"/><path fill="#36323B" d="M255.978 224.004L272.008 223.993L272.013 272.003L256.012 272L256.023 256.013L256.019 240.016L255.978 224.004Z"/><path fill="#36323B" d="M239.981 272.003L256.012 272L256.007 288.052L256.036 304L239.991 303.983L239.981 272.003Z"/><path fill="#E54C2C" d="M767.991 239.988L784.029 240L784.031 272.018L768.016 271.969L768.013 255.991L767.991 239.988Z"/><path fill="#36323B" d="M736.056 208.01L752.013 207.991L752.012 224.018L720.004 223.984L720.021 207.998L736.056 208.01Z"/><path fill="#B9493A" d="M719.992 192.008L736.005 191.994L736.056 208.01L720.021 207.998L719.992 192.008Z"/><path fill="#E54C2C" d="M752.013 207.991L768.02 208.004L768.007 224.013L752.012 224.018L752.013 207.991Z"/><path fill="#B9493A" d="M240.003 240.043L256.019 240.016L256.023 256.013L240.002 256.032L240.003 240.043Z"/><path fill="#E54C2C" d="M736.005 191.994L752.021 191.999L752.013 207.991L736.056 208.01L736.005 191.994Z"/><path fill="#F0E8DD" d="M175.925 0L223.997 0L224.017 16.0237L224.003 32.0673L224.023 48.0073L192.024 48.0308L192.005 64.0693L192.029 80.0163L176.693 80.0439L176.073 79.9243C170.718 80.0128 165.362 80.042 160.007 80.0118L160.011 96.1656L160.096 105.238C160.006 112.828 159.979 120.419 160.016 128.01L144.002 128.01L144.015 192.01L128.014 192.001L128.003 207.918L144.164 208.014C144.06 213.349 144.004 218.685 143.997 224.022C149.287 224.014 154.883 223.921 160.147 224.016C159.992 240.015 159.952 256.016 160.025 272.016C165.35 272.013 170.77 271.956 176.085 272.01L176.015 287.99L176.008 304.037L192.015 304L191.988 336.461L224.003 336.007L223.985 367.999L207.996 368.012L208.014 384L192.015 384.002L192.018 368.062C179.693 367.284 171.61 368.144 160.014 367.988L159.961 384.025L176.009 383.992C175.973 389.26 175.849 394.78 176.02 400.026C168.84 398.838 151.355 399.18 144.022 399.911C138.692 400.146 133.352 399.985 128.046 399.43L128.011 416.003L111.957 416.017L111.995 432.026C111.983 437.565 111.991 442.206 111.273 447.722C107.143 447.35 101.879 447.116 97.8137 447.899L111.992 448.032L112.026 463.979L128.002 464.002L128.016 479.98L128 495.383C140.883 498.005 162.139 494.663 175.992 496.007L175.969 511.998C175.978 543.612 176.336 575.908 175.937 607.463C171.859 607.386 167.344 607.181 163.322 607.577C167.48 607.997 171.786 607.941 175.975 607.974L192.034 608.016L192.044 623.973L192.059 639.888L192.063 655.219C197.272 656.219 202.714 656.024 208.02 655.996C208.004 660.846 207.788 667.278 208.399 671.962L240.019 671.989L240.039 687.957L256.005 687.987L256.017 703.99L271.984 703.997C271.983 707.686 271.78 716.793 272.125 720.04C272.844 716.939 272.401 707.546 272.298 703.982C277.166 703.952 282.669 703.79 287.486 703.961C287.442 708.68 287.057 731.471 287.796 735.156L288.021 736.018L287.994 767.994L271.976 768.005L271.994 799.994L255.956 800.01C255.65 821.351 255.66 842.695 255.988 864.035L255.997 880.018L271.992 879.978C271.967 885.204 271.831 890.87 272.079 896.055L271.961 896.408L271.971 912.001C250.845 911.755 229.159 912 207.992 912.005L207.986 895.989L128.14 895.976C127.919 890.866 128.036 885.138 128.03 879.98L95.7752 879.999C96.018 874.551 95.9972 869.435 95.9717 863.991C96.0119 858.654 96.0231 853.317 96.0053 847.981L95.9879 831.561C88.6737 832.061 87.4942 832.499 80.0077 831.158L79.9877 752.011L63.9807 751.99L63.9611 640.002C64.1341 629.608 63.958 618.627 63.9515 608.19L63.9023 591.98C63.886 581.443 63.7264 570.525 64.0077 560.019C58.8504 560.154 53.2225 560.023 48.0255 560.002C47.6928 554.265 47.8077 549.739 47.9684 544.018C53.0948 543.814 58.8718 543.956 64.0475 543.973L64.073 527.666C59.1845 527.906 53.0214 527.819 48.0382 527.871C47.3226 521.677 47.7574 503.027 47.7645 495.987L47.8702 431.818L64.1189 431.762L64.0069 415.969C58.6987 416.036 53.3348 415.999 48.0215 416.003C47.5031 407.744 47.8449 396.418 47.8557 387.837L47.8759 337.571L47.8991 191.937C53.2802 191.792 58.6633 191.737 64.0463 191.774C63.8251 186.967 63.9271 181.307 63.8919 176.435C63.8669 165.626 63.9014 154.816 63.9952 144.007L79.8125 143.799C79.3171 128.894 79.7258 110.595 80.0024 95.5657C85.3916 95.5185 90.5484 95.445 95.9389 95.693C95.5903 93.1467 95.6784 82.6265 95.6504 79.7206L112.02 79.5881C111.862 69.023 111.865 58.4562 112.027 47.8912C117.351 47.9421 122.776 47.7306 128.105 47.5842C127.885 42.5719 127.999 36.9281 127.99 31.8667C137.373 31.125 149.952 31.814 159.832 31.5035C159.395 28.2792 159.61 19.5061 159.606 15.8694C165.068 15.727 170.532 15.6587 175.996 15.6644C175.737 10.7325 175.901 4.99324 175.925 0Z"/><path fill="#D8C5B2" d="M63.9611 640.002C69.0082 640.017 74.9971 639.881 79.9677 640.063L79.9789 688.022L95.9837 687.987L95.9771 720.034L111.981 719.985L111.98 752.097L127.97 751.983L127.973 784.098L143.969 783.983C143.949 789.059 143.775 795.014 143.989 800.022L144.018 816.017L159.985 816.017L175.99 815.983L175.995 832.043L191.953 831.957C197.301 831.995 202.65 832.005 207.998 831.986L207.994 848.029L224.021 847.979L239.993 848.027L240.003 864.003L223.979 864.003L224.001 880.002L208.011 879.996L207.986 895.989L128.14 895.976C127.919 890.866 128.036 885.138 128.03 879.98L95.7752 879.999C96.018 874.551 95.9972 869.435 95.9717 863.991C96.0119 858.654 96.0231 853.317 96.0053 847.981L95.9879 831.561C88.6737 832.061 87.4942 832.499 80.0077 831.158L79.9877 752.011L63.9807 751.99L63.9611 640.002Z"/><path fill="#B9493A" d="M128.041 864.009L144.007 864.014L159.99 864.026L160.001 880.029L176.089 880.011L208.011 879.996L207.986 895.989L128.14 895.976C127.919 890.866 128.036 885.138 128.03 879.98L95.7752 879.999C96.018 874.551 95.9972 869.435 95.9717 863.991L128.041 864.009Z"/><path fill="#B9493A" d="M63.9611 640.002C69.0082 640.017 74.9971 639.881 79.9677 640.063L79.9789 688.022L79.988 736.01L79.9877 752.011L63.9807 751.99L63.9611 640.002Z"/><path fill="#B9493A" d="M79.9877 752.011L95.9906 752.03L95.9874 816.049L95.9879 831.561C88.6737 832.061 87.4942 832.499 80.0077 831.158L79.9877 752.011Z"/><path fill="#C7AF99" d="M95.9874 816.049L111.995 815.961L112.003 848.022L128.051 847.972L128.041 864.009L95.9717 863.991C96.0119 858.654 96.0231 853.317 96.0053 847.981L95.9879 831.561L95.9874 816.049Z"/><path fill="#C7AF99" d="M159.99 864.026L176.043 863.916L176.089 880.011L160.001 880.029L159.99 864.026Z"/><path fill="#C7AF99" d="M143.975 832.011L160.01 831.932L159.993 848.025L143.978 848.008L143.975 832.011Z"/><path fill="#BBA08B" d="M79.988 736.01L96.0071 735.978L95.9906 752.03L79.9877 752.011L79.988 736.01Z"/><path fill="#E54C2C" d="M143.978 848.008L159.993 848.025L159.99 864.026L144.007 864.014L143.978 848.008Z"/><path fill="#ECDBCF" d="M175.995 832.043L191.953 831.957L191.954 847.987L175.989 848.011L175.995 832.043Z"/><path fill="#ECDBCF" d="M63.8919 176.435C68.2882 175.761 75.3974 175.901 80.0377 175.855C79.9074 202.586 79.9112 229.318 80.0491 256.05L64.0036 256.025L64.0154 271.995C69.1985 271.967 74.9275 272.059 80.0638 271.828L80.0593 336.082C74.7181 336.064 69.3769 336.086 64.036 336.149L64.1191 399.933C69.1989 399.897 75.1427 399.999 80.148 399.689L80.0593 448.082C74.7693 448.085 69.3015 448.014 64.028 448.144L64.0782 463.913C69.1483 463.897 75.0964 464.023 80.0907 463.689L80.0397 496.039L64.0177 496.058L64.0517 512.002C69.1553 511.951 75.0613 512.036 80.0973 511.743C80.0917 527.691 80.2855 544.066 80.0555 559.977L64.0077 560.019C58.8504 560.154 53.2225 560.023 48.0255 560.002C47.6928 554.265 47.8077 549.739 47.9684 544.018C53.0948 543.814 58.8718 543.956 64.0475 543.973L64.073 527.666C59.1845 527.906 53.0214 527.819 48.0382 527.871C47.3226 521.677 47.7574 503.027 47.7645 495.987L47.8702 431.818L64.1189 431.762L64.0069 415.969C58.6987 416.036 53.3348 415.999 48.0215 416.003C47.5031 407.744 47.8449 396.418 47.8557 387.837L47.8759 337.571L47.8991 191.937C53.2802 191.792 58.6633 191.737 64.0463 191.774C63.8251 186.967 63.9271 181.307 63.8919 176.435Z"/><path fill="#36323B" d="M128.003 207.918L144.164 208.014C144.06 213.349 144.004 218.685 143.997 224.022C149.287 224.014 154.883 223.921 160.147 224.016C159.992 240.015 159.952 256.016 160.025 272.016C165.35 272.013 170.77 271.956 176.085 272.01L176.015 287.99L176.008 304.037L192.015 304L191.988 336.461L224.003 336.007L223.985 367.999L207.996 368.012L208.014 384L192.015 384.002L192.018 368.062C179.693 367.284 171.61 368.144 160.014 367.988L160.002 352.023L144.026 351.976L144.004 335.863L143.991 304.123L144.048 288.013L128.018 287.99L128.001 240.152L128.006 224.023L128.003 207.918Z"/><path fill="#231F28" d="M128.001 240.152C133.342 239.862 138.685 239.908 144.034 239.898L144.048 288.013L128.018 287.99L128.001 240.152Z"/><path fill="#231F28" d="M143.991 304.123C149.329 303.987 154.669 303.937 160.008 303.973L160.022 335.996C155.096 336.009 148.823 336.199 144.004 335.863L143.991 304.123Z"/><path fill="#BBA08B" d="M272.298 703.982C277.166 703.952 282.669 703.79 287.486 703.961C287.442 708.68 287.057 731.471 287.796 735.156L288.021 736.018L287.994 767.994L271.976 768.005L271.994 799.994L255.956 800.01C255.65 821.351 255.66 842.695 255.988 864.035L255.997 880.018L271.992 879.978C271.967 885.204 271.831 890.87 272.079 896.055L271.961 896.408L271.971 912.001C250.845 911.755 229.159 912 207.992 912.005L207.986 895.989L208.011 879.996L224.001 880.002L223.979 864.003L240.003 864.003L239.993 848.027L224.021 847.979L223.997 816.014L240.014 816.02L239.997 784.014L256.019 784.019L256.03 720.021L272.125 720.04C272.844 716.939 272.401 707.546 272.298 703.982Z"/><path fill="#B9493A" d="M207.986 895.989L248.985 895.985C254.873 895.98 266.398 895.685 271.961 896.408L271.971 912.001C250.845 911.755 229.159 912 207.992 912.005L207.986 895.989Z"/><path fill="#FEFEFE" d="M175.975 607.974L192.034 608.016L192.044 623.973L192.059 639.888L192.063 655.219C197.272 656.219 202.714 656.024 208.02 655.996C208.004 660.846 207.788 667.278 208.399 671.962L240.019 671.989L240.039 687.957L256.005 687.987L256.017 703.99L271.984 703.997C271.983 707.686 271.78 716.793 272.125 720.04L256.03 720.021L223.982 720.025L223.979 703.984L191.979 704.025L191.984 687.984L175.982 688.027L175.983 671.984L159.983 672.032L159.978 639.991L159.982 624.017C165.314 624.095 170.648 624.057 175.978 623.904L175.975 607.974Z"/><path fill="#F0E8DD" d="M175.975 607.974L192.034 608.016L192.044 623.973L192.059 639.888L192.063 655.219L191.938 655.592C187.048 656.063 181.036 655.934 176.042 655.955L176.038 639.992L159.978 639.991L159.982 624.017C165.314 624.095 170.648 624.057 175.978 623.904L175.975 607.974Z"/><path fill="#D8C5B2" d="M175.975 607.974L192.034 608.016L192.044 623.973C186.689 624.012 181.333 623.989 175.978 623.904L175.975 607.974Z"/><path fill="#ECDBCF" d="M175.978 623.904C181.333 623.989 186.689 624.012 192.044 623.973L192.059 639.888C187.411 640.123 180.901 639.956 176.115 639.96C175.974 634.609 175.929 629.256 175.978 623.904Z"/><path fill="#ECDBCF" d="M208.399 671.962L240.019 671.989L240.039 687.957L208.009 687.985L208.051 672.033L208.399 671.962Z"/><path fill="#D8C5B2" d="M192.063 655.219C197.272 656.219 202.714 656.024 208.02 655.996C208.004 660.846 207.788 667.278 208.399 671.962L208.051 672.033L192.018 671.996L191.938 655.592L192.063 655.219Z"/><path fill="#902523" d="M128 495.383C140.883 498.005 162.139 494.663 175.992 496.007L175.969 511.998C175.978 543.612 176.336 575.908 175.937 607.463C171.859 607.386 167.344 607.181 163.322 607.577C156.784 608.126 150.526 607.585 144.03 608.044L144.025 591.979L144.001 575.973L144.013 560.021L143.97 527.997L128.062 527.976L128.001 512.278L128 495.383Z"/><path fill="#832424" d="M128.001 512.278C133.136 511.874 138.874 511.999 144.068 511.993C144.046 517.157 144.132 522.88 143.97 527.997L128.062 527.976L128.001 512.278Z"/><path fill="#D8C5B2" d="M143.995 96.0098L160.011 96.1656L160.096 105.238C160.006 112.828 159.979 120.419 160.016 128.01L144.002 128.01L144.015 192.01L128.014 192.001L128.003 207.918L128.006 224.023L112.013 224.032L111.993 176.007L127.98 176.007L128.008 128.01L144.01 128.006L143.995 96.0098Z"/><path fill="#5C5463" d="M112.031 288.063C116.846 287.856 123.096 288.01 128.018 287.99L144.048 288.013L143.991 304.123L144.004 335.863L144.026 351.976C138.709 352.036 133.391 352.019 128.074 351.925L127.584 352.034L112.013 352.031L112.026 319.979L112.031 288.063Z"/><path fill="#D8C5B2" d="M112.026 319.979L127.994 319.989L128.074 351.925L127.584 352.034L112.013 352.031L112.026 319.979Z"/><path fill="#36323B" d="M112.031 288.063C116.846 287.856 123.096 288.01 128.018 287.99L127.994 319.989L112.026 319.979L112.031 288.063Z"/><path fill="#403C43" d="M127.584 352.034L128.074 351.925C133.391 352.019 138.709 352.036 144.026 351.976L160.002 352.023L160.014 367.988L159.961 384.025L176.009 383.992C175.973 389.26 175.849 394.78 176.02 400.026C168.84 398.838 151.355 399.18 144.022 399.911C138.692 400.146 133.352 399.985 128.046 399.43L128.016 368.007C123.591 368.02 119.167 367.984 114.743 367.898L112.032 367.996L112.013 352.031L127.584 352.034Z"/><path fill="#675E6F" d="M144.026 351.976L160.002 352.023L160.014 367.988L143.997 368.019L144.026 351.976Z"/><path fill="#36323B" d="M112.013 352.031L127.584 352.034C128.17 355.187 127.991 363.923 128.007 367.532C124.544 367.441 118.093 367.181 114.743 367.898L112.032 367.996L112.013 352.031Z"/><path fill="#D8C5B2" d="M112.026 463.979L128.002 464.002L128.016 479.98L128 495.383L128.001 512.278L128.062 527.976L143.97 527.997L144.013 560.021C138.851 559.842 133.005 560 127.792 560.023C128.484 551.406 128.015 536.992 127.997 527.998L112.003 527.998L112.026 463.979Z"/><path fill="#847988" d="M112.013 224.032L128.006 224.023L128.001 240.152L128.018 287.99C123.096 288.01 116.846 287.856 112.031 288.063L112.013 224.032Z"/><path fill="#D8C5B2" d="M112.032 367.996L114.743 367.898C119.167 367.984 123.591 368.02 128.016 368.007L128.046 399.43L128.011 416.003L111.957 416.017L112.032 367.996Z"/><path fill="#FEFEFE" d="M163.322 607.577C167.48 607.997 171.786 607.941 175.975 607.974L175.978 623.904C170.648 624.057 165.314 624.095 159.982 624.017L159.978 639.991L143.991 640.025L144.03 608.044C150.526 607.585 156.784 608.126 163.322 607.577Z"/><path fill="#D8C5B2" d="M64.0077 560.019L80.0555 559.977C79.9762 570.652 79.9602 581.327 80.0073 592.002L63.9023 591.98C63.886 581.443 63.7264 570.525 64.0077 560.019Z"/><path fill="#C7AF99" d="M191.995 32.0202L224.003 32.0673L224.023 48.0073L192.024 48.0308L191.995 32.0202Z"/><path fill="#BBA08B" d="M63.9515 608.19C69.8881 608.661 73.9656 607.103 79.9853 608.839L79.9677 640.063C74.9971 639.881 69.0082 640.017 63.9611 640.002C64.1341 629.608 63.958 618.627 63.9515 608.19Z"/><path fill="#36323B" d="M111.957 416.017L111.995 432.026C111.983 437.565 111.991 442.206 111.273 447.722C107.143 447.35 101.879 447.116 97.8137 447.899L96.6225 447.803C95.4924 445.914 96.01 420.079 96.0245 416.017L111.957 416.017Z"/><path fill="#ECDBCF" d="M127.814 578.613C127.433 576.126 127.459 562.618 127.792 560.023C133.005 560 138.851 559.842 144.013 560.021L144.001 575.973C140.874 575.953 130.132 575.29 128.149 576.774L127.814 578.613Z"/><path fill="#ECDBCF" d="M112.02 79.5881L112.042 96.0416C106.665 95.9872 101.31 95.9769 95.9389 95.693C95.5903 93.1467 95.6784 82.6265 95.6504 79.7206L112.02 79.5881Z"/><path fill="#C7AF99" d="M63.9023 591.98L80.0073 592.002L79.9853 608.839C73.9656 607.103 69.8881 608.661 63.9515 608.19L63.9023 591.98Z"/><path fill="#C7AF99" d="M111.988 112.024L127.99 111.992L128.008 128.01L112.01 127.992L111.988 112.024Z"/><path fill="#BBA08B" d="M143.989 800.022L159.993 800.003L159.985 816.017L144.018 816.017L143.989 800.022Z"/><path fill="#D8C5B2" d="M175.989 64.0084L192.005 64.0693L192.029 80.0163L176.693 80.0439L176.073 79.9243L175.989 64.0084Z"/><path fill="#D8C5B2" d="M144.001 575.973L144.025 591.979L127.989 591.994C128.047 587.533 127.988 583.071 127.814 578.613L128.149 576.774C130.132 575.29 140.874 575.953 144.001 575.973Z"/><path fill="#F0E8DD" d="M800.017 0L864.046 0C864.147 5.2391 864.15 10.4797 864.052 15.7188C869.505 15.6612 874.958 15.6812 880.41 15.7789C880.428 21.0792 880.537 26.6393 880.423 31.9171C885.519 31.8475 890.939 31.6722 896.005 31.8854C896.144 37.1088 896.172 42.3345 896.088 47.5591L912.224 47.5404C912.219 58.0036 912.672 69.6381 912.408 79.9357C916.419 79.9028 924.89 78.9906 927.48 81.1333C929.157 84.2316 928.066 91.5906 928.2 95.648L928.412 95.8704C933.15 95.8329 939.489 95.5933 944.102 95.8295L944.37 143.454C949.384 143.94 955.036 143.457 960.133 143.593C960.192 153.003 960.707 166.722 960.282 175.817C963.996 175.479 972.124 175.505 976.008 175.705C977.067 207.39 976.169 243.749 976.156 275.735L976.154 467.627L976.179 528.487C976.174 538.236 975.769 550.899 976.264 560.325C970.974 560.204 965.485 560.003 960.221 560.381L960.106 576.05L911.99 576.01L912.005 608.005C907.226 608.008 900.633 608.188 896.003 607.944C892.465 607.598 883.338 607.353 880.059 607.853L879.946 607.628C876.201 608.313 868.137 608.041 864.085 607.981L847.996 608.005L831.979 608.028L831.98 592.197L831.992 559.866L831.952 511.976L848.005 511.997L848.007 479.984L880.037 479.996L895.98 480.003L896.005 463.986C895.978 459.846 895.732 451.852 896.238 448.012L912.013 447.985L912.004 432.004L912.011 416.008L911.968 400.027L896.016 400.003L880.062 399.941L879.999 384.045C869.571 383.753 858.567 384.142 848.005 383.974C842.674 384.012 837.342 384.004 832.011 383.951L832.012 368.044C821.683 367.055 810.587 367.935 800.047 367.979L800.01 336.019L816.033 336.016L815.997 320.014L832.043 320.014L832.002 304.013L848.039 304.019C847.955 298.677 847.955 293.333 848.039 287.991C847.507 285.646 847.835 274.527 848.362 272.025L848.037 271.903C847.802 266.832 847.967 261.124 848.004 256.003L864.009 255.996L863.995 208.007L880.035 207.988L896.02 208.016C896.018 202.659 896.105 197.331 895.645 191.993L879.989 192.019L879.995 127.997L863.995 128.021L863.981 96.1208L863.962 80.0261C853.566 79.8271 842.445 80.0173 831.995 80.0207L831.982 48.4808C825.332 47.5162 807.403 47.9963 799.993 48.018L799.977 32.1153L799.977 16.0268C800.095 10.83 800.005 5.22855 800.017 0Z"/><path fill="#36323B" d="M896.02 208.016L911.982 208.014L911.985 223.965L895.972 223.998C895.694 240.332 895.187 255.649 896.014 271.961L896.043 288.015L896.005 335.972L879.951 336.017L879.989 352.006L880.03 368.02L879.999 384.045C869.571 383.753 858.567 384.142 848.005 383.974C842.674 384.012 837.342 384.004 832.011 383.951L832.012 368.044C821.683 367.055 810.587 367.935 800.047 367.979L800.01 336.019L816.033 336.016L815.997 320.014L832.043 320.014L832.002 304.013L848.039 304.019C847.955 298.677 847.955 293.333 848.039 287.991C847.507 285.646 847.835 274.527 848.362 272.025L848.037 271.903C847.802 266.832 847.967 261.124 848.004 256.003L864.009 255.996L863.995 208.007L880.035 207.988L896.02 208.016Z"/><path fill="#776D7E" d="M896.014 271.961L896.043 288.015L896.005 335.972L879.951 336.017C879.623 314.678 879.632 293.335 879.979 271.996L896.014 271.961Z"/><path fill="#675E6F" d="M863.935 368L880.03 368.02L879.999 384.045C869.571 383.753 858.567 384.142 848.005 383.974L848.024 368.017L863.935 368Z"/><path fill="#902523" d="M848.362 272.025C853.561 272 858.854 271.927 864.045 271.965L864.033 288.02L848.039 287.991C847.507 285.646 847.835 274.527 848.362 272.025Z"/><path fill="#231F28" d="M832.012 368.044L848.024 368.017L848.005 383.974C842.674 384.012 837.342 384.004 832.011 383.951L832.012 368.044Z"/><path fill="#403C43" d="M864.031 352.055L879.989 352.006L880.03 368.02L863.935 368C864.062 362.809 864.005 357.273 864.031 352.055Z"/><path fill="#231F28" d="M896.02 208.016L895.971 223.925L880.077 224.028L880.035 207.988L896.02 208.016Z"/><path fill="#B9493A" d="M880.037 479.996L895.98 480.003L895.965 527.99L879.974 527.997L879.969 559.936L880.004 575.89L880.077 582.745L879.992 592.019L879.946 607.628C876.201 608.313 868.137 608.041 864.085 607.981L847.996 608.005L831.979 608.028L831.98 592.197L831.992 559.866L831.952 511.976L848.005 511.997L848.007 479.984L880.037 479.996Z"/><path fill="#902523" d="M880.037 479.996L895.98 480.003L895.965 527.99L879.974 527.997L879.969 559.936L880.004 575.89C874.667 575.969 869.329 576.005 863.992 575.997L863.98 496.016L880.006 495.996L880.037 479.996Z"/><path fill="#D8C5B2" d="M880.004 575.89L880.077 582.745L879.992 592.019L879.946 607.628C876.201 608.313 868.137 608.041 864.085 607.981C863.872 602.76 863.992 597.254 864.019 592.009C863.869 586.79 863.978 581.243 863.992 575.997C869.329 576.005 874.667 575.969 880.004 575.89Z"/><path fill="#902523" d="M864.019 592.009L879.992 592.019L879.946 607.628C876.201 608.313 868.137 608.041 864.085 607.981C863.872 602.76 863.992 597.254 864.019 592.009Z"/><path fill="#D8C5B2" d="M912.031 288.097L927.984 287.98L928.009 368.007L911.988 368.012L911.968 400.027L896.016 400.003L880.062 399.941L879.999 384.045L880.03 368.02L879.989 352.006L879.951 336.017L896.005 335.972L896.043 288.015C899.851 288.004 908.54 287.774 911.933 288.427L912.031 288.097Z"/><path fill="#36323B" d="M896.043 288.015C899.851 288.004 908.54 287.774 911.933 288.427L911.998 335.99L896.005 335.972L896.043 288.015Z"/><path fill="#5C5463" d="M879.951 336.017L896.005 335.972L895.99 368.753C890.824 367.718 885.317 367.987 880.03 368.02L879.989 352.006L879.951 336.017Z"/><path fill="#403C43" d="M880.03 368.02C885.317 367.987 890.824 367.718 895.99 368.753L896.016 400.003L880.062 399.941L879.999 384.045L880.03 368.02Z"/><path fill="#D8C5B2" d="M863.981 96.1208L879.993 95.9817L879.991 112.027L895.983 111.98C895.993 132.543 896.537 155.718 895.757 176.078L911.98 175.98L911.982 208.014L896.02 208.016C896.018 202.659 896.105 197.331 895.645 191.993L879.989 192.019L879.995 127.997L863.995 128.021L863.981 96.1208Z"/><path fill="#D8C5B2" d="M896.238 448.012L912.013 447.985L911.994 463.976L911.999 528.007L895.988 527.966C895.996 538.5 895.844 549.516 896.025 560.012L879.969 559.936L879.974 527.997L895.965 527.99L895.98 480.003L896.005 463.986C895.978 459.846 895.732 451.852 896.238 448.012Z"/><path fill="#36323B" d="M896.238 448.012L912.013 447.985L911.994 463.976L896.005 463.986C895.978 459.846 895.732 451.852 896.238 448.012Z"/><path fill="#D8C5B2" d="M799.977 32.1153L831.985 31.9794L831.981 48.125L847.977 47.9804L847.975 64.0913L863.988 63.9781L863.962 80.0261C853.566 79.8271 842.445 80.0173 831.995 80.0207L831.982 48.4808C825.332 47.5162 807.403 47.9963 799.993 48.018L799.977 32.1153Z"/><path fill="#847988" d="M911.985 223.965C911.69 245.342 911.705 266.721 912.031 288.097L911.933 288.427C908.54 287.774 899.851 288.004 896.043 288.015L896.014 271.961C895.187 255.649 895.694 240.332 895.972 223.998L911.985 223.965Z"/><path fill="#ECDBCF" d="M928.412 95.8704C933.15 95.8329 939.489 95.5933 944.102 95.8295L944.37 143.454C938.996 144.096 933.416 144.002 927.991 144.041C927.952 131.85 927.233 106.862 928.412 95.8704Z"/><path fill="#36323B" d="M912.011 416.008L927.991 416.026L927.99 447.973L912.013 447.985L912.004 432.004L912.011 416.008Z"/><path fill="#ECDBCF" d="M879.969 559.936L896.025 560.012L896.03 576.043L880.618 575.985C880.527 577.957 880.497 580.905 880.077 582.745L880.004 575.89L879.969 559.936Z"/><path fill="#ECDBCF" d="M912.408 79.9357C916.419 79.9028 924.89 78.9906 927.48 81.1333C929.157 84.2316 928.066 91.5906 928.2 95.648C925.458 96.2198 915.287 96.0052 912.013 95.9964C911.986 90.2569 912.029 85.6807 912.408 79.9357Z"/><path fill="#E54C2C" d="M80.0077 831.158C87.4942 832.499 88.6737 832.061 95.9879 831.561L96.0053 847.981L79.9994 848.009L80.0077 831.158Z"/><path fill="#675E6F" d="M895.941 431.974L912.004 432.004L912.013 447.985L896.238 448.012L895.898 447.915C896.18 443.478 895.957 436.598 895.941 431.974Z"/></svg>